{"glyphs":{"0":{"ha":842,"x_min":62,"x_max":781,"o":"m 420 -16 q 614 45 533 -16 q 738 220 694 107 q 781 489 781 334 l 781 490 q 738 759 781 646 q 614 933 694 872 q 420 995 533 995 q 228 933 308 995 q 104 759 147 872 q 62 490 62 646 l 62 489 q 104 220 62 334 q 228 45 147 107 q 420 -16 308 -16 m 420 90 q 293 139 346 90 q 212 277 240 187 q 184 489 184 366 l 184 490 q 212 702 184 613 q 293 840 240 791 q 420 888 346 888 q 548 840 495 888 q 630 702 602 791 q 658 490 658 613 l 658 489 q 630 277 658 366 q 548 139 602 187 q 420 90 495 90 z "},"1":{"ha":616,"x_min":67,"x_max":447,"o":"m 329 0 l 447 0 l 447 979 l 328 979 l 67 791 l 67 669 l 326 849 l 329 849 l 329 0 z "},"2":{"ha":786,"x_min":73,"x_max":725,"o":"m 79 0 l 725 0 l 725 109 l 211 109 l 247 75 l 247 150 l 211 75 l 479 350 q 619 505 570 442 q 689 618 669 568 q 709 722 709 668 l 709 723 q 669 861 709 800 q 560 959 629 923 q 402 995 491 995 q 236 957 311 995 q 117 851 161 918 q 73 700 73 785 l 73 696 l 191 696 l 191 699 q 219 795 191 752 q 295 863 247 838 q 404 888 343 888 q 499 866 458 888 q 563 806 540 844 q 587 717 587 767 l 587 715 q 573 639 587 675 q 525 558 560 603 q 424 444 490 513 l 79 84 l 79 0 z "},"3":{"ha":822,"x_min":62,"x_max":749,"o":"m 409 -16 q 584 21 507 -16 q 705 122 661 58 q 749 268 749 186 l 749 269 q 683 437 749 374 q 509 509 616 500 l 509 512 q 617 556 570 525 q 690 634 664 587 q 717 741 717 681 l 717 743 q 679 874 717 817 q 571 963 640 930 q 408 995 501 995 q 246 962 316 995 q 133 869 176 928 q 83 729 91 809 l 82 722 l 199 722 l 200 729 q 233 814 205 779 q 305 870 260 850 q 408 889 350 889 q 509 870 467 889 q 572 815 551 851 q 594 728 594 779 l 594 726 q 569 639 594 677 q 499 579 544 601 q 396 557 454 557 l 279 557 l 279 454 l 401 454 q 565 405 505 454 q 625 267 625 357 l 625 265 q 597 174 625 214 q 522 112 570 134 q 409 90 473 90 q 250 135 311 90 q 180 252 188 180 l 180 259 l 62 259 l 63 251 q 114 113 70 174 q 233 18 157 53 q 409 -16 308 -16 z "},"4":{"ha":840,"x_min":53,"x_max":801,"o":"m 545 0 l 663 0 l 663 203 l 801 203 l 801 311 l 663 311 l 663 979 l 482 979 q 396 846 439 912 q 311 713 353 779 q 225 580 268 646 q 139 447 182 513 q 53 314 96 380 l 53 203 l 545 203 l 545 0 m 174 311 l 174 313 q 247 426 210 370 q 320 538 283 481 q 394 650 357 594 q 467 762 431 706 q 541 874 504 818 l 545 874 l 545 311 l 174 311 z "},"5":{"ha":812,"x_min":80,"x_max":764,"o":"m 416 -16 q 596 26 517 -16 q 720 144 675 68 q 764 317 764 219 l 764 318 q 723 485 764 412 q 608 600 681 558 q 441 642 535 642 q 311 616 370 642 q 218 541 253 591 l 216 541 l 249 870 l 709 870 l 709 979 l 149 979 l 98 420 l 206 420 q 228 452 216 437 q 252 478 239 466 q 327 523 285 508 q 419 537 370 537 q 534 509 484 537 q 613 430 585 480 q 642 316 642 380 l 642 315 q 614 198 642 249 q 534 119 585 148 q 417 91 484 91 q 312 113 359 91 q 236 175 265 136 q 201 262 207 214 l 200 267 l 80 267 l 81 260 q 132 118 88 180 q 249 20 176 56 q 416 -16 322 -16 z "},"6":{"ha":857,"x_min":62,"x_max":780,"o":"m 433 -16 q 612 27 534 -16 q 735 145 690 70 q 780 316 780 220 l 780 317 q 738 484 780 410 q 622 599 695 557 q 455 641 549 641 q 334 620 389 641 q 241 563 280 598 q 182 484 202 527 l 168 484 l 168 317 l 209 317 l 209 318 q 238 429 209 380 q 319 506 268 478 q 434 534 370 534 q 549 506 498 534 q 627 428 599 477 q 656 315 656 378 l 656 313 q 626 201 656 252 q 545 122 596 151 q 432 92 494 92 q 319 122 370 92 q 238 204 268 153 q 209 317 209 255 l 180 478 q 180 491 180 485 q 180 505 180 498 q 210 694 183 608 q 293 834 237 781 q 440 887 349 887 q 530 871 490 887 q 597 826 570 855 q 640 756 625 797 l 642 749 l 766 749 l 764 758 q 703 882 748 829 q 592 965 659 936 q 441 995 525 995 q 237 933 322 995 q 107 754 152 871 q 62 473 62 637 l 62 471 q 94 242 62 335 q 180 92 126 149 q 300 9 234 35 q 433 -16 366 -16 z "},"7":{"ha":760,"x_min":52,"x_max":699,"o":"m 136 0 l 264 0 l 699 865 l 699 979 l 52 979 l 52 870 l 578 870 l 578 867 l 136 0 z "},"8":{"ha":833,"x_min":61,"x_max":772,"o":"m 416 -16 q 601 20 520 -16 q 726 119 681 56 q 772 264 772 182 l 772 266 q 745 378 772 326 q 672 466 719 429 q 562 516 625 502 l 562 519 q 689 602 642 544 q 736 736 736 659 l 736 738 q 695 870 736 812 q 582 961 654 928 q 416 995 509 995 q 252 961 324 995 q 138 870 179 928 q 96 738 96 812 l 96 736 q 144 602 96 659 q 271 519 191 544 l 271 516 q 161 466 209 502 q 87 378 114 429 q 61 266 61 326 l 61 264 q 107 119 61 182 q 233 20 153 56 q 416 -16 313 -16 m 416 90 q 297 114 349 90 q 215 178 245 137 q 185 272 185 219 l 185 273 q 215 368 185 327 q 296 433 244 410 q 416 457 349 457 q 536 433 484 457 q 618 368 589 410 q 648 273 648 327 l 648 272 q 618 178 648 219 q 536 114 588 137 q 416 90 484 90 m 416 564 q 313 585 357 564 q 243 642 268 606 q 218 726 218 679 l 218 728 q 243 812 218 775 q 313 869 268 848 q 416 890 357 890 q 520 869 475 890 q 590 812 565 848 q 615 728 615 775 l 615 726 q 590 642 615 679 q 520 585 565 606 q 416 564 475 564 z "},"9":{"ha":857,"x_min":77,"x_max":795,"o":"m 424 995 q 245 952 323 995 q 122 834 168 909 q 77 663 77 759 l 77 661 q 120 495 77 568 q 236 380 162 422 q 402 338 309 338 q 523 359 469 338 q 616 416 578 380 q 675 495 655 452 l 689 495 l 689 661 l 648 661 l 648 661 q 619 549 648 598 q 538 473 589 500 q 423 445 488 445 q 309 473 359 445 q 230 551 258 501 q 201 664 201 600 l 201 665 q 231 777 201 727 q 312 857 261 827 q 425 886 363 886 q 539 856 488 886 q 619 775 589 826 q 648 661 648 724 l 677 500 q 677 487 677 494 q 677 474 677 481 q 647 284 674 372 q 565 144 621 197 q 417 92 509 92 q 327 107 367 92 q 260 153 288 123 q 218 222 233 182 l 215 230 l 91 230 l 93 221 q 154 97 109 150 q 266 14 199 43 q 416 -16 333 -16 q 621 45 536 -16 q 750 224 705 107 q 795 506 795 341 l 795 507 q 763 737 795 644 q 677 887 731 830 q 557 969 623 944 q 424 995 492 995 z "},"":{"ha":0,"x_min":0,"x_max":0,"o":""},"":{"ha":0,"x_min":0,"x_max":0,"o":""}," ":{"ha":285,"x_min":0,"x_max":0,"o":""}," ":{"ha":285,"x_min":0,"x_max":0,"o":""}," ":{"ha":142,"x_min":0,"x_max":0,"o":""}," ":{"ha":694,"x_min":0,"x_max":0,"o":""}," ":{"ha":1389,"x_min":0,"x_max":0,"o":""}," ":{"ha":694,"x_min":0,"x_max":0,"o":""}," ":{"ha":1389,"x_min":0,"x_max":0,"o":""}," ":{"ha":463,"x_min":0,"x_max":0,"o":""}," ":{"ha":347,"x_min":0,"x_max":0,"o":""}," ":{"ha":231,"x_min":0,"x_max":0,"o":""}," ":{"ha":840,"x_min":0,"x_max":0,"o":""}," ":{"ha":298,"x_min":0,"x_max":0,"o":""}," ":{"ha":142,"x_min":0,"x_max":0,"o":""}," ":{"ha":71,"x_min":0,"x_max":0,"o":""},"​":{"ha":0,"x_min":0,"x_max":0,"o":""},"‌":{"ha":0,"x_min":0,"x_max":0,"o":""},"‍":{"ha":0,"x_min":0,"x_max":0,"o":""},"⁠":{"ha":0,"x_min":0,"x_max":0,"o":""}," ":{"ha":309,"x_min":0,"x_max":0,"o":""},"A":{"ha":882,"x_min":17,"x_max":865,"o":"m 17 0 l 145 0 l 440 832 l 471 832 l 471 979 l 381 979 l 17 0 m 184 280 l 699 280 l 659 384 l 224 384 l 184 280 m 737 0 l 865 0 l 502 979 l 443 979 l 443 832 l 737 0 z "},"À":{"ha":882,"x_min":17,"x_max":865,"o":"m 17 0 l 145 0 l 440 832 l 471 832 l 471 979 l 381 979 l 17 0 m 184 280 l 699 280 l 659 384 l 224 384 l 184 280 m 737 0 l 865 0 l 502 979 l 443 979 l 443 832 l 737 0 m 412 1057 l 501 1057 l 391 1253 l 269 1253 l 412 1057 z "},"Á":{"ha":882,"x_min":17,"x_max":865,"o":"m 17 0 l 145 0 l 440 832 l 471 832 l 471 979 l 381 979 l 17 0 m 184 280 l 699 280 l 659 384 l 224 384 l 184 280 m 737 0 l 865 0 l 502 979 l 443 979 l 443 832 l 737 0 m 475 1057 l 618 1253 l 496 1253 l 386 1057 l 475 1057 z "},"Ä":{"ha":882,"x_min":17,"x_max":865,"o":"m 17 0 l 145 0 l 440 832 l 471 832 l 471 979 l 381 979 l 17 0 m 184 280 l 699 280 l 659 384 l 224 384 l 184 280 m 737 0 l 865 0 l 502 979 l 443 979 l 443 832 l 737 0 m 320 1090 q 367 1109 348 1090 q 387 1157 387 1129 q 367 1204 387 1185 q 320 1224 348 1224 q 273 1204 292 1224 q 253 1157 253 1185 q 273 1109 253 1129 q 320 1090 292 1090 m 563 1090 q 611 1109 591 1090 q 630 1157 630 1129 q 611 1204 630 1185 q 563 1224 591 1224 q 516 1204 536 1224 q 496 1157 496 1185 q 516 1109 496 1129 q 563 1090 536 1090 z "},"Ǟ":{"ha":882,"x_min":17,"x_max":865,"o":"m 17 0 l 145 0 l 440 832 l 471 832 l 471 979 l 381 979 l 17 0 m 184 280 l 699 280 l 659 384 l 224 384 l 184 280 m 737 0 l 865 0 l 502 979 l 443 979 l 443 832 l 737 0 z "},"Å":{"ha":882,"x_min":17,"x_max":865,"o":"m 17 0 l 145 0 l 440 832 l 471 832 l 471 979 l 381 979 l 17 0 m 184 280 l 699 280 l 659 384 l 224 384 l 184 280 m 737 0 l 865 0 l 502 979 l 443 979 l 443 832 l 737 0 m 444 1034 q 531 1069 495 1034 q 568 1155 568 1105 l 568 1156 q 551 1217 568 1190 q 506 1260 534 1244 q 444 1276 478 1276 q 381 1260 410 1276 q 337 1217 353 1244 q 320 1156 320 1190 l 320 1155 q 356 1069 320 1105 q 444 1034 393 1034 m 444 1100 q 405 1116 421 1100 q 389 1155 389 1132 l 389 1156 q 405 1195 389 1179 q 444 1211 421 1211 q 483 1195 467 1211 q 499 1156 499 1179 l 499 1155 q 483 1116 499 1132 q 444 1100 467 1100 z "},"Å":{"ha":882,"x_min":17,"x_max":865,"o":"m 17 0 l 145 0 l 440 832 l 471 832 l 471 979 l 381 979 l 17 0 m 184 280 l 699 280 l 659 384 l 224 384 l 184 280 m 737 0 l 865 0 l 502 979 l 443 979 l 443 832 l 737 0 m 444 1034 q 531 1069 495 1034 q 568 1155 568 1105 l 568 1156 q 551 1217 568 1190 q 506 1260 534 1244 q 444 1276 478 1276 q 381 1260 410 1276 q 337 1217 353 1244 q 320 1156 320 1190 l 320 1155 q 356 1069 320 1105 q 444 1034 393 1034 m 444 1100 q 405 1116 421 1100 q 389 1155 389 1132 l 389 1156 q 405 1195 389 1179 q 444 1211 421 1211 q 483 1195 467 1211 q 499 1156 499 1179 l 499 1155 q 483 1116 499 1132 q 444 1100 467 1100 z "},"Ǻ":{"ha":882,"x_min":17,"x_max":865,"o":"m 17 0 l 145 0 l 440 832 l 471 832 l 471 979 l 381 979 l 17 0 m 184 280 l 699 280 l 659 384 l 224 384 l 184 280 m 737 0 l 865 0 l 502 979 l 443 979 l 443 832 l 737 0 z "},"Ã":{"ha":882,"x_min":17,"x_max":865,"o":"m 17 0 l 145 0 l 440 832 l 471 832 l 471 979 l 381 979 l 17 0 m 184 280 l 699 280 l 659 384 l 224 384 l 184 280 m 737 0 l 865 0 l 502 979 l 443 979 l 443 832 l 737 0 m 533 1058 q 609 1100 582 1058 q 637 1225 637 1141 l 637 1232 l 556 1232 l 556 1226 q 548 1166 556 1185 q 521 1146 540 1146 q 492 1156 507 1146 q 460 1179 477 1166 l 437 1199 q 398 1224 419 1215 q 349 1234 376 1234 q 273 1192 300 1234 q 245 1067 245 1150 l 245 1059 l 326 1059 l 326 1065 q 334 1126 326 1106 q 361 1145 342 1145 q 389 1136 375 1145 q 419 1112 404 1126 l 443 1093 q 483 1068 460 1078 q 533 1058 506 1058 z "},"Ằ":{"ha":882,"x_min":17,"x_max":865,"o":"m 17 0 l 145 0 l 440 832 l 471 832 l 471 979 l 381 979 l 17 0 m 184 280 l 699 280 l 659 384 l 224 384 l 184 280 m 737 0 l 865 0 l 502 979 l 443 979 l 443 832 l 737 0 z "},"Ǡ":{"ha":882,"x_min":17,"x_max":865,"o":"m 17 0 l 145 0 l 440 832 l 471 832 l 471 979 l 381 979 l 17 0 m 184 280 l 699 280 l 659 384 l 224 384 l 184 280 m 737 0 l 865 0 l 502 979 l 443 979 l 443 832 l 737 0 z "},"Ḁ":{"ha":882,"x_min":17,"x_max":865,"o":"m 17 0 l 145 0 l 440 832 l 471 832 l 471 979 l 381 979 l 17 0 m 184 280 l 699 280 l 659 384 l 224 384 l 184 280 m 737 0 l 865 0 l 502 979 l 443 979 l 443 832 l 737 0 m 442 -68 l 441 -68 q 346 -107 385 -68 q 306 -200 306 -146 l 306 -201 q 346 -294 306 -255 q 441 -332 385 -332 l 442 -332 q 538 -294 498 -332 q 577 -201 577 -255 l 577 -200 q 538 -107 577 -146 q 442 -68 498 -68 m 442 -137 q 487 -156 469 -137 q 505 -200 505 -174 l 505 -201 q 487 -245 505 -227 q 442 -263 469 -263 l 441 -263 q 396 -245 414 -263 q 378 -201 378 -227 l 378 -200 q 396 -156 378 -174 q 441 -137 414 -137 l 442 -137 z "},"Â":{"ha":882,"x_min":17,"x_max":865,"o":"m 17 0 l 145 0 l 440 832 l 471 832 l 471 979 l 381 979 l 17 0 m 184 280 l 699 280 l 659 384 l 224 384 l 184 280 m 737 0 l 865 0 l 502 979 l 443 979 l 443 832 l 737 0 m 243 1057 l 343 1057 l 449 1205 l 433 1205 l 540 1057 l 640 1057 l 494 1253 l 389 1253 l 243 1057 z "},"Ậ":{"ha":882,"x_min":17,"x_max":865,"o":"m 17 0 l 145 0 l 440 832 l 471 832 l 471 979 l 381 979 l 17 0 m 184 280 l 699 280 l 659 384 l 224 384 l 184 280 m 737 0 l 865 0 l 502 979 l 443 979 l 443 832 l 737 0 m 243 1057 l 343 1057 l 449 1205 l 433 1205 l 540 1057 l 640 1057 l 494 1253 l 389 1253 l 243 1057 m 441 -267 q 494 -245 473 -267 q 515 -193 515 -224 q 494 -141 515 -162 q 441 -119 473 -119 q 389 -141 411 -119 q 368 -193 368 -162 q 389 -245 368 -224 q 441 -267 411 -267 z "},"Ấ":{"ha":882,"x_min":17,"x_max":865,"o":"m 17 0 l 145 0 l 440 832 l 471 832 l 471 979 l 381 979 l 17 0 m 184 280 l 699 280 l 659 384 l 224 384 l 184 280 m 737 0 l 865 0 l 502 979 l 443 979 l 443 832 l 737 0 z "},"Ẫ":{"ha":882,"x_min":17,"x_max":865,"o":"m 17 0 l 145 0 l 440 832 l 471 832 l 471 979 l 381 979 l 17 0 m 184 280 l 699 280 l 659 384 l 224 384 l 184 280 m 737 0 l 865 0 l 502 979 l 443 979 l 443 832 l 737 0 z "},"Ầ":{"ha":882,"x_min":17,"x_max":865,"o":"m 17 0 l 145 0 l 440 832 l 471 832 l 471 979 l 381 979 l 17 0 m 184 280 l 699 280 l 659 384 l 224 384 l 184 280 m 737 0 l 865 0 l 502 979 l 443 979 l 443 832 l 737 0 z "},"Ẩ":{"ha":882,"x_min":17,"x_max":865,"o":"m 17 0 l 145 0 l 440 832 l 471 832 l 471 979 l 381 979 l 17 0 m 184 280 l 699 280 l 659 384 l 224 384 l 184 280 m 737 0 l 865 0 l 502 979 l 443 979 l 443 832 l 737 0 z "},"Ă":{"ha":882,"x_min":17,"x_max":865,"o":"m 17 0 l 145 0 l 440 832 l 471 832 l 471 979 l 381 979 l 17 0 m 184 280 l 699 280 l 659 384 l 224 384 l 184 280 m 737 0 l 865 0 l 502 979 l 443 979 l 443 832 l 737 0 m 442 1055 q 541 1079 499 1055 q 605 1145 583 1103 q 628 1242 628 1187 l 628 1248 l 543 1248 l 543 1244 q 516 1168 543 1201 q 442 1136 490 1136 q 368 1168 395 1136 q 340 1244 340 1201 l 340 1248 l 256 1248 l 256 1242 q 278 1145 256 1187 q 343 1079 301 1103 q 442 1055 385 1055 z "},"Ắ":{"ha":882,"x_min":17,"x_max":865,"o":"m 17 0 l 145 0 l 440 832 l 471 832 l 471 979 l 381 979 l 17 0 m 184 280 l 699 280 l 659 384 l 224 384 l 184 280 m 737 0 l 865 0 l 502 979 l 443 979 l 443 832 l 737 0 z "},"Ẵ":{"ha":882,"x_min":17,"x_max":865,"o":"m 17 0 l 145 0 l 440 832 l 471 832 l 471 979 l 381 979 l 17 0 m 184 280 l 699 280 l 659 384 l 224 384 l 184 280 m 737 0 l 865 0 l 502 979 l 443 979 l 443 832 l 737 0 z "},"Ẳ":{"ha":882,"x_min":17,"x_max":865,"o":"m 17 0 l 145 0 l 440 832 l 471 832 l 471 979 l 381 979 l 17 0 m 184 280 l 699 280 l 659 384 l 224 384 l 184 280 m 737 0 l 865 0 l 502 979 l 443 979 l 443 832 l 737 0 z "},"Ặ":{"ha":882,"x_min":17,"x_max":865,"o":"m 17 0 l 145 0 l 440 832 l 471 832 l 471 979 l 381 979 l 17 0 m 184 280 l 699 280 l 659 384 l 224 384 l 184 280 m 737 0 l 865 0 l 502 979 l 443 979 l 443 832 l 737 0 m 442 1055 q 541 1079 499 1055 q 605 1145 583 1103 q 628 1242 628 1187 l 628 1248 l 543 1248 l 543 1244 q 516 1168 543 1201 q 442 1136 490 1136 q 368 1168 395 1136 q 340 1244 340 1201 l 340 1248 l 256 1248 l 256 1242 q 278 1145 256 1187 q 343 1079 301 1103 q 442 1055 385 1055 m 441 -267 q 494 -245 473 -267 q 515 -193 515 -224 q 494 -141 515 -162 q 441 -119 473 -119 q 389 -141 411 -119 q 368 -193 368 -162 q 389 -245 368 -224 q 441 -267 411 -267 z "},"Ȃ":{"ha":882,"x_min":17,"x_max":865,"o":"m 17 0 l 145 0 l 440 832 l 471 832 l 471 979 l 381 979 l 17 0 m 184 280 l 699 280 l 659 384 l 224 384 l 184 280 m 737 0 l 865 0 l 502 979 l 443 979 l 443 832 l 737 0 m 441 1248 q 343 1224 385 1248 q 278 1158 301 1200 q 256 1061 256 1116 l 256 1055 l 340 1055 l 340 1059 q 367 1135 340 1103 q 441 1167 394 1167 q 516 1135 490 1167 q 543 1059 543 1103 l 543 1055 l 628 1055 l 628 1061 q 605 1158 628 1116 q 541 1224 583 1200 q 441 1248 499 1248 z "},"Ǎ":{"ha":882,"x_min":17,"x_max":865,"o":"m 17 0 l 145 0 l 440 832 l 471 832 l 471 979 l 381 979 l 17 0 m 184 280 l 699 280 l 659 384 l 224 384 l 184 280 m 737 0 l 865 0 l 502 979 l 443 979 l 443 832 l 737 0 m 640 1253 l 540 1253 l 434 1105 l 450 1105 l 343 1253 l 243 1253 l 389 1057 l 494 1057 l 640 1253 z "},"Ȧ":{"ha":882,"x_min":17,"x_max":865,"o":"m 17 0 l 145 0 l 440 832 l 471 832 l 471 979 l 381 979 l 17 0 m 184 280 l 699 280 l 659 384 l 224 384 l 184 280 m 737 0 l 865 0 l 502 979 l 443 979 l 443 832 l 737 0 m 441 1092 q 491 1113 471 1092 q 511 1162 511 1133 q 491 1212 511 1192 q 441 1232 471 1232 q 392 1212 412 1232 q 371 1162 371 1192 q 392 1113 371 1133 q 441 1092 412 1092 z "},"Ạ":{"ha":882,"x_min":17,"x_max":865,"o":"m 17 0 l 145 0 l 440 832 l 471 832 l 471 979 l 381 979 l 17 0 m 184 280 l 699 280 l 659 384 l 224 384 l 184 280 m 737 0 l 865 0 l 502 979 l 443 979 l 443 832 l 737 0 m 441 -267 q 494 -245 473 -267 q 515 -193 515 -224 q 494 -141 515 -162 q 441 -119 473 -119 q 389 -141 411 -119 q 368 -193 368 -162 q 389 -245 368 -224 q 441 -267 411 -267 z "},"Ả":{"ha":882,"x_min":17,"x_max":865,"o":"m 17 0 l 145 0 l 440 832 l 471 832 l 471 979 l 381 979 l 17 0 m 184 280 l 699 280 l 659 384 l 224 384 l 184 280 m 737 0 l 865 0 l 502 979 l 443 979 l 443 832 l 737 0 m 390 1057 l 474 1057 q 525 1105 509 1080 q 541 1160 541 1131 q 500 1235 541 1207 q 405 1263 458 1263 q 362 1260 382 1263 q 332 1252 343 1257 l 332 1183 q 348 1185 338 1184 q 373 1186 358 1186 q 430 1174 407 1186 q 453 1140 453 1162 q 437 1102 453 1122 q 390 1059 420 1082 l 390 1057 z "},"Ȁ":{"ha":882,"x_min":17,"x_max":865,"o":"m 17 0 l 145 0 l 440 832 l 471 832 l 471 979 l 381 979 l 17 0 m 184 280 l 699 280 l 659 384 l 224 384 l 184 280 m 737 0 l 865 0 l 502 979 l 443 979 l 443 832 l 737 0 m 307 1057 l 396 1057 l 272 1253 l 151 1253 l 307 1057 m 516 1057 l 606 1057 l 495 1253 l 374 1253 l 516 1057 z "},"Ā":{"ha":882,"x_min":17,"x_max":865,"o":"m 17 0 l 145 0 l 440 832 l 471 832 l 471 979 l 381 979 l 17 0 m 184 280 l 699 280 l 659 384 l 224 384 l 184 280 m 737 0 l 865 0 l 502 979 l 443 979 l 443 832 l 737 0 m 261 1114 l 621 1114 l 621 1200 l 261 1200 l 261 1114 z "},"Ą":{"ha":882,"x_min":17,"x_max":873,"o":"m 17 0 l 145 0 l 440 832 l 471 832 l 471 979 l 381 979 l 17 0 m 184 280 l 699 280 l 659 384 l 224 384 l 184 280 m 737 0 l 865 0 l 502 979 l 443 979 l 443 832 l 737 0 m 807 -320 q 841 -317 821 -320 q 873 -309 861 -315 l 873 -230 q 831 -237 858 -237 q 782 -219 802 -237 q 761 -161 761 -200 l 761 -159 q 788 -74 761 -113 q 865 0 816 -35 l 791 0 l 791 14 l 765 14 q 682 -72 713 -21 q 651 -177 651 -123 l 651 -178 q 672 -257 651 -225 q 729 -304 694 -288 q 807 -320 765 -320 z "},"B":{"ha":840,"x_min":95,"x_max":796,"o":"m 156 0 l 465 0 q 643 33 569 0 q 756 127 717 66 q 796 275 796 189 l 796 276 q 769 392 796 341 q 691 476 742 444 q 570 517 640 509 l 570 519 q 661 558 621 527 q 724 636 701 590 q 747 733 747 682 l 747 734 q 711 863 747 808 q 613 948 676 918 q 466 979 550 979 l 156 979 l 156 871 l 438 871 q 575 832 527 871 q 623 722 623 794 l 623 720 q 566 599 623 641 q 400 557 509 557 l 156 557 l 156 452 l 435 452 q 565 433 513 452 q 644 376 618 414 q 671 281 671 338 l 671 279 q 613 152 671 195 q 446 108 556 108 l 156 108 l 156 0 m 95 0 l 217 0 l 217 979 l 95 979 l 95 0 z "},"Ḇ":{"ha":840,"x_min":95,"x_max":796,"o":"m 156 0 l 465 0 q 643 33 569 0 q 756 127 717 66 q 796 275 796 189 l 796 276 q 769 392 796 341 q 691 476 742 444 q 570 517 640 509 l 570 519 q 661 558 621 527 q 724 636 701 590 q 747 733 747 682 l 747 734 q 711 863 747 808 q 613 948 676 918 q 466 979 550 979 l 156 979 l 156 871 l 438 871 q 575 832 527 871 q 623 722 623 794 l 623 720 q 566 599 623 641 q 400 557 509 557 l 156 557 l 156 452 l 435 452 q 565 433 513 452 q 644 376 618 414 q 671 281 671 338 l 671 279 q 613 152 671 195 q 446 108 556 108 l 156 108 l 156 0 m 95 0 l 217 0 l 217 979 l 95 979 l 95 0 m 198 -228 l 572 -228 l 572 -142 l 198 -142 l 198 -228 z "},"Ḅ":{"ha":840,"x_min":95,"x_max":796,"o":"m 156 0 l 465 0 q 643 33 569 0 q 756 127 717 66 q 796 275 796 189 l 796 276 q 769 392 796 341 q 691 476 742 444 q 570 517 640 509 l 570 519 q 661 558 621 527 q 724 636 701 590 q 747 733 747 682 l 747 734 q 711 863 747 808 q 613 948 676 918 q 466 979 550 979 l 156 979 l 156 871 l 438 871 q 575 832 527 871 q 623 722 623 794 l 623 720 q 566 599 623 641 q 400 557 509 557 l 156 557 l 156 452 l 435 452 q 565 433 513 452 q 644 376 618 414 q 671 281 671 338 l 671 279 q 613 152 671 195 q 446 108 556 108 l 156 108 l 156 0 m 95 0 l 217 0 l 217 979 l 95 979 l 95 0 m 385 -267 q 438 -245 416 -267 q 459 -193 459 -224 q 438 -141 459 -162 q 385 -119 416 -119 q 333 -141 355 -119 q 311 -193 311 -162 q 333 -245 311 -224 q 385 -267 355 -267 z "},"Ḃ":{"ha":840,"x_min":95,"x_max":796,"o":"m 156 0 l 465 0 q 643 33 569 0 q 756 127 717 66 q 796 275 796 189 l 796 276 q 769 392 796 341 q 691 476 742 444 q 570 517 640 509 l 570 519 q 661 558 621 527 q 724 636 701 590 q 747 733 747 682 l 747 734 q 711 863 747 808 q 613 948 676 918 q 466 979 550 979 l 156 979 l 156 871 l 438 871 q 575 832 527 871 q 623 722 623 794 l 623 720 q 566 599 623 641 q 400 557 509 557 l 156 557 l 156 452 l 435 452 q 565 433 513 452 q 644 376 618 414 q 671 281 671 338 l 671 279 q 613 152 671 195 q 446 108 556 108 l 156 108 l 156 0 m 95 0 l 217 0 l 217 979 l 95 979 l 95 0 m 385 1092 q 435 1113 414 1092 q 455 1162 455 1133 q 435 1212 455 1192 q 385 1232 414 1232 q 335 1212 356 1232 q 315 1162 315 1192 q 335 1113 315 1133 q 385 1092 356 1092 z "},"Ɓ":{"ha":1019,"x_min":14,"x_max":976,"o":"m 336 0 l 644 0 q 823 33 749 0 q 936 127 897 66 q 976 275 976 189 l 976 276 q 949 392 976 341 q 871 476 922 444 q 749 517 820 509 l 749 519 q 840 558 800 527 q 903 636 880 590 q 926 733 926 682 l 926 734 q 891 863 926 808 q 793 948 856 918 q 646 979 730 979 l 336 979 l 336 871 l 618 871 q 755 832 707 871 q 803 722 803 794 l 803 720 q 746 599 803 641 q 580 557 688 557 l 336 557 l 336 452 l 614 452 q 745 433 692 452 q 824 376 798 414 q 850 281 850 338 l 850 279 q 793 152 850 195 q 626 108 736 108 l 336 108 l 336 0 m 275 0 l 397 0 l 397 979 l 275 979 l 275 0 m 33 664 l 144 664 q 131 718 135 694 q 127 766 127 743 q 153 843 127 817 q 233 869 179 869 l 288 869 l 288 979 l 224 979 q 70 927 125 979 q 14 782 14 875 q 18 723 14 751 q 33 664 23 694 z "},"C":{"ha":953,"x_min":57,"x_max":904,"o":"m 504 -16 q 690 22 606 -16 q 829 129 773 60 q 903 292 884 199 l 904 299 l 781 299 l 779 293 q 719 185 758 229 q 626 119 680 141 q 504 96 572 96 q 334 145 407 96 q 222 282 262 194 q 182 490 182 371 l 182 490 q 222 697 182 610 q 334 834 262 785 q 504 882 406 882 q 627 860 573 882 q 719 796 682 838 q 776 694 757 754 l 781 680 l 904 680 l 903 686 q 828 848 884 779 q 689 956 772 918 q 504 995 606 995 q 267 933 368 995 q 112 758 167 871 q 57 490 57 644 l 57 490 q 112 222 57 336 q 268 46 167 109 q 504 -16 368 -16 z "},"Ć":{"ha":953,"x_min":57,"x_max":904,"o":"m 504 -16 q 690 22 606 -16 q 829 129 773 60 q 903 292 884 199 l 904 299 l 781 299 l 779 293 q 719 185 758 229 q 626 119 680 141 q 504 96 572 96 q 334 145 407 96 q 222 282 262 194 q 182 490 182 371 l 182 490 q 222 697 182 610 q 334 834 262 785 q 504 882 406 882 q 627 860 573 882 q 719 796 682 838 q 776 694 757 754 l 781 680 l 904 680 l 903 686 q 828 848 884 779 q 689 956 772 918 q 504 995 606 995 q 267 933 368 995 q 112 758 167 871 q 57 490 57 644 l 57 490 q 112 222 57 336 q 268 46 167 109 q 504 -16 368 -16 m 538 1057 l 681 1253 l 559 1253 l 449 1057 l 538 1057 z "},"Č":{"ha":953,"x_min":57,"x_max":904,"o":"m 504 -16 q 690 22 606 -16 q 829 129 773 60 q 903 292 884 199 l 904 299 l 781 299 l 779 293 q 719 185 758 229 q 626 119 680 141 q 504 96 572 96 q 334 145 407 96 q 222 282 262 194 q 182 490 182 371 l 182 490 q 222 697 182 610 q 334 834 262 785 q 504 882 406 882 q 627 860 573 882 q 719 796 682 838 q 776 694 757 754 l 781 680 l 904 680 l 903 686 q 828 848 884 779 q 689 956 772 918 q 504 995 606 995 q 267 933 368 995 q 112 758 167 871 q 57 490 57 644 l 57 490 q 112 222 57 336 q 268 46 167 109 q 504 -16 368 -16 m 703 1253 l 603 1253 l 497 1105 l 513 1105 l 406 1253 l 307 1253 l 452 1057 l 557 1057 l 703 1253 z "},"Ĉ":{"ha":953,"x_min":57,"x_max":904,"o":"m 504 -16 q 690 22 606 -16 q 829 129 773 60 q 903 292 884 199 l 904 299 l 781 299 l 779 293 q 719 185 758 229 q 626 119 680 141 q 504 96 572 96 q 334 145 407 96 q 222 282 262 194 q 182 490 182 371 l 182 490 q 222 697 182 610 q 334 834 262 785 q 504 882 406 882 q 627 860 573 882 q 719 796 682 838 q 776 694 757 754 l 781 680 l 904 680 l 903 686 q 828 848 884 779 q 689 956 772 918 q 504 995 606 995 q 267 933 368 995 q 112 758 167 871 q 57 490 57 644 l 57 490 q 112 222 57 336 q 268 46 167 109 q 504 -16 368 -16 m 307 1057 l 406 1057 l 512 1205 l 496 1205 l 603 1057 l 703 1057 l 557 1253 l 452 1253 l 307 1057 z "},"Ċ":{"ha":953,"x_min":57,"x_max":904,"o":"m 504 -16 q 690 22 606 -16 q 829 129 773 60 q 903 292 884 199 l 904 299 l 781 299 l 779 293 q 719 185 758 229 q 626 119 680 141 q 504 96 572 96 q 334 145 407 96 q 222 282 262 194 q 182 490 182 371 l 182 490 q 222 697 182 610 q 334 834 262 785 q 504 882 406 882 q 627 860 573 882 q 719 796 682 838 q 776 694 757 754 l 781 680 l 904 680 l 903 686 q 828 848 884 779 q 689 956 772 918 q 504 995 606 995 q 267 933 368 995 q 112 758 167 871 q 57 490 57 644 l 57 490 q 112 222 57 336 q 268 46 167 109 q 504 -16 368 -16 m 504 1092 q 554 1113 534 1092 q 574 1162 574 1133 q 554 1212 574 1192 q 504 1232 534 1232 q 455 1212 475 1232 q 434 1162 434 1192 q 455 1113 434 1133 q 504 1092 475 1092 z "},"Ç":{"ha":953,"x_min":57,"x_max":904,"o":"m 504 -16 q 690 22 606 -16 q 829 129 773 60 q 903 292 884 199 l 904 299 l 781 299 l 779 293 q 719 185 758 229 q 626 119 680 141 q 504 96 572 96 q 334 145 407 96 q 222 282 262 194 q 182 490 182 371 l 182 490 q 222 697 182 610 q 334 834 262 785 q 504 882 406 882 q 627 860 573 882 q 719 796 682 838 q 776 694 757 754 l 781 680 l 904 680 l 903 686 q 828 848 884 779 q 689 956 772 918 q 504 995 606 995 q 267 933 368 995 q 112 758 167 871 q 57 490 57 644 l 57 490 q 112 222 57 336 q 268 46 167 109 q 504 -16 368 -16 m 498 -309 q 568 -295 535 -309 q 621 -253 601 -280 q 642 -185 642 -225 l 642 -184 q 608 -97 642 -126 q 520 -64 574 -68 l 563 0 l 563 14 l 488 14 l 427 -78 l 427 -138 l 458 -138 q 518 -150 497 -138 q 538 -186 538 -161 l 538 -188 q 518 -220 538 -211 q 470 -229 497 -229 q 428 -225 448 -229 q 396 -217 408 -222 l 396 -292 q 439 -304 412 -299 q 498 -309 466 -309 z "},"Ḉ":{"ha":953,"x_min":57,"x_max":904,"o":"m 504 -16 q 690 22 606 -16 q 829 129 773 60 q 903 292 884 199 l 904 299 l 781 299 l 779 293 q 719 185 758 229 q 626 119 680 141 q 504 96 572 96 q 334 145 407 96 q 222 282 262 194 q 182 490 182 371 l 182 490 q 222 697 182 610 q 334 834 262 785 q 504 882 406 882 q 627 860 573 882 q 719 796 682 838 q 776 694 757 754 l 781 680 l 904 680 l 903 686 q 828 848 884 779 q 689 956 772 918 q 504 995 606 995 q 267 933 368 995 q 112 758 167 871 q 57 490 57 644 l 57 490 q 112 222 57 336 q 268 46 167 109 q 504 -16 368 -16 m 498 -309 q 568 -295 535 -309 q 621 -253 601 -280 q 642 -185 642 -225 l 642 -184 q 608 -97 642 -126 q 520 -64 574 -68 l 563 0 l 563 14 l 488 14 l 427 -78 l 427 -138 l 458 -138 q 518 -150 497 -138 q 538 -186 538 -161 l 538 -188 q 518 -220 538 -211 q 470 -229 497 -229 q 428 -225 448 -229 q 396 -217 408 -222 l 396 -292 q 439 -304 412 -299 q 498 -309 466 -309 m 538 1057 l 681 1253 l 559 1253 l 449 1057 l 538 1057 z "},"D":{"ha":943,"x_min":95,"x_max":886,"o":"m 95 0 l 424 0 q 673 58 570 0 q 831 226 776 116 q 886 490 886 336 l 886 491 q 830 754 886 645 q 672 921 775 863 q 424 979 569 979 l 95 979 l 95 0 m 217 110 l 217 869 l 416 869 q 604 825 527 869 q 721 696 681 781 q 761 490 761 612 l 761 488 q 721 282 761 367 q 604 154 681 198 q 416 110 527 110 l 217 110 z "},"Ḋ":{"ha":943,"x_min":95,"x_max":886,"o":"m 95 0 l 424 0 q 673 58 570 0 q 831 226 776 116 q 886 490 886 336 l 886 491 q 830 754 886 645 q 672 921 775 863 q 424 979 569 979 l 95 979 l 95 0 m 217 110 l 217 869 l 416 869 q 604 825 527 869 q 721 696 681 781 q 761 490 761 612 l 761 488 q 721 282 761 367 q 604 154 681 198 q 416 110 527 110 l 217 110 m 420 1092 q 470 1113 450 1092 q 490 1162 490 1133 q 470 1212 490 1192 q 420 1232 450 1232 q 371 1212 391 1232 q 350 1162 350 1192 q 371 1113 350 1133 q 420 1092 391 1092 z "},"Ḓ":{"ha":943,"x_min":95,"x_max":886,"o":"m 95 0 l 424 0 q 673 58 570 0 q 831 226 776 116 q 886 490 886 336 l 886 491 q 830 754 886 645 q 672 921 775 863 q 424 979 569 979 l 95 979 l 95 0 m 217 110 l 217 869 l 416 869 q 604 825 527 869 q 721 696 681 781 q 761 490 761 612 l 761 488 q 721 282 761 367 q 604 154 681 198 q 416 110 527 110 l 217 110 m 214 -286 l 316 -286 l 427 -130 l 413 -130 l 525 -286 l 627 -286 l 474 -81 l 367 -81 l 214 -286 z "},"Ḑ":{"ha":943,"x_min":95,"x_max":886,"o":"m 95 0 l 424 0 q 673 58 570 0 q 831 226 776 116 q 886 490 886 336 l 886 491 q 830 754 886 645 q 672 921 775 863 q 424 979 569 979 l 95 979 l 95 0 m 217 110 l 217 869 l 416 869 q 604 825 527 869 q 721 696 681 781 q 761 490 761 612 l 761 488 q 721 282 761 367 q 604 154 681 198 q 416 110 527 110 l 217 110 m 300 -309 l 376 -309 l 475 -81 l 361 -81 l 300 -309 z "},"Ḏ":{"ha":943,"x_min":95,"x_max":886,"o":"m 95 0 l 424 0 q 673 58 570 0 q 831 226 776 116 q 886 490 886 336 l 886 491 q 830 754 886 645 q 672 921 775 863 q 424 979 569 979 l 95 979 l 95 0 m 217 110 l 217 869 l 416 869 q 604 825 527 869 q 721 696 681 781 q 761 490 761 612 l 761 488 q 721 282 761 367 q 604 154 681 198 q 416 110 527 110 l 217 110 m 233 -228 l 608 -228 l 608 -142 l 233 -142 l 233 -228 z "},"Ď":{"ha":943,"x_min":95,"x_max":886,"o":"m 95 0 l 424 0 q 673 58 570 0 q 831 226 776 116 q 886 490 886 336 l 886 491 q 830 754 886 645 q 672 921 775 863 q 424 979 569 979 l 95 979 l 95 0 m 217 110 l 217 869 l 416 869 q 604 825 527 869 q 721 696 681 781 q 761 490 761 612 l 761 488 q 721 282 761 367 q 604 154 681 198 q 416 110 527 110 l 217 110 m 618 1253 l 519 1253 l 413 1105 l 429 1105 l 322 1253 l 222 1253 l 368 1057 l 473 1057 l 618 1253 z "},"Ḍ":{"ha":943,"x_min":95,"x_max":886,"o":"m 95 0 l 424 0 q 673 58 570 0 q 831 226 776 116 q 886 490 886 336 l 886 491 q 830 754 886 645 q 672 921 775 863 q 424 979 569 979 l 95 979 l 95 0 m 217 110 l 217 869 l 416 869 q 604 825 527 869 q 721 696 681 781 q 761 490 761 612 l 761 488 q 721 282 761 367 q 604 154 681 198 q 416 110 527 110 l 217 110 m 420 -267 q 473 -245 452 -267 q 494 -193 494 -224 q 473 -141 494 -162 q 420 -119 452 -119 q 368 -141 390 -119 q 347 -193 347 -162 q 368 -245 347 -224 q 420 -267 390 -267 z "},"Ð":{"ha":974,"x_min":31,"x_max":917,"o":"m 126 0 l 455 0 q 704 58 601 0 q 862 226 807 116 q 917 490 917 336 l 917 491 q 862 754 917 645 q 703 921 806 863 q 455 979 600 979 l 126 979 l 126 0 m 248 110 l 248 869 l 447 869 q 635 825 558 869 q 752 696 712 781 q 792 490 792 612 l 792 488 q 752 282 792 367 q 635 154 712 198 q 447 110 558 110 l 248 110 m 31 439 l 425 439 l 425 541 l 31 541 l 31 439 z "},"Đ":{"ha":974,"x_min":31,"x_max":917,"o":"m 126 0 l 455 0 q 704 58 601 0 q 862 226 807 116 q 917 490 917 336 l 917 491 q 862 754 917 645 q 703 921 806 863 q 455 979 600 979 l 126 979 l 126 0 m 248 110 l 248 869 l 447 869 q 635 825 558 869 q 752 696 712 781 q 792 490 792 612 l 792 488 q 752 282 792 367 q 635 154 712 198 q 447 110 558 110 l 248 110 m 31 439 l 425 439 l 425 541 l 31 541 l 31 439 z "},"Ɗ":{"ha":1122,"x_min":14,"x_max":1065,"o":"m 275 0 l 604 0 q 852 58 749 0 q 1010 226 956 116 q 1065 490 1065 336 l 1065 491 q 1010 754 1065 645 q 852 921 955 863 q 604 979 749 979 l 275 979 l 275 0 m 397 110 l 397 869 l 595 869 q 784 825 707 869 q 901 696 861 781 q 941 490 941 612 l 941 488 q 901 282 941 367 q 784 154 861 198 q 595 110 707 110 l 397 110 m 33 664 l 144 664 q 131 718 135 694 q 127 766 127 743 q 153 843 127 817 q 233 869 179 869 l 288 869 l 288 979 l 224 979 q 70 927 125 979 q 14 782 14 875 q 18 723 14 751 q 33 664 23 694 z "},"E":{"ha":767,"x_min":95,"x_max":701,"o":"m 95 0 l 701 0 l 701 110 l 217 110 l 217 446 l 676 446 l 676 555 l 217 555 l 217 869 l 701 869 l 701 979 l 95 979 l 95 0 z "},"È":{"ha":767,"x_min":95,"x_max":701,"o":"m 95 0 l 701 0 l 701 110 l 217 110 l 217 446 l 676 446 l 676 555 l 217 555 l 217 869 l 701 869 l 701 979 l 95 979 l 95 0 m 368 1057 l 458 1057 l 347 1253 l 226 1253 l 368 1057 z "},"Ȅ":{"ha":767,"x_min":95,"x_max":701,"o":"m 95 0 l 701 0 l 701 110 l 217 110 l 217 446 l 676 446 l 676 555 l 217 555 l 217 869 l 701 869 l 701 979 l 95 979 l 95 0 m 263 1057 l 353 1057 l 229 1253 l 107 1253 l 263 1057 m 473 1057 l 562 1057 l 452 1253 l 330 1253 l 473 1057 z "},"É":{"ha":767,"x_min":95,"x_max":701,"o":"m 95 0 l 701 0 l 701 110 l 217 110 l 217 446 l 676 446 l 676 555 l 217 555 l 217 869 l 701 869 l 701 979 l 95 979 l 95 0 m 432 1057 l 574 1253 l 453 1253 l 342 1057 l 432 1057 z "},"Ê":{"ha":767,"x_min":95,"x_max":701,"o":"m 95 0 l 701 0 l 701 110 l 217 110 l 217 446 l 676 446 l 676 555 l 217 555 l 217 869 l 701 869 l 701 979 l 95 979 l 95 0 m 200 1057 l 300 1057 l 406 1205 l 390 1205 l 496 1057 l 596 1057 l 451 1253 l 345 1253 l 200 1057 z "},"Ể":{"ha":767,"x_min":95,"x_max":701,"o":"m 95 0 l 701 0 l 701 110 l 217 110 l 217 446 l 676 446 l 676 555 l 217 555 l 217 869 l 701 869 l 701 979 l 95 979 l 95 0 z "},"Ề":{"ha":767,"x_min":95,"x_max":701,"o":"m 95 0 l 701 0 l 701 110 l 217 110 l 217 446 l 676 446 l 676 555 l 217 555 l 217 869 l 701 869 l 701 979 l 95 979 l 95 0 z "},"Ễ":{"ha":767,"x_min":95,"x_max":701,"o":"m 95 0 l 701 0 l 701 110 l 217 110 l 217 446 l 676 446 l 676 555 l 217 555 l 217 869 l 701 869 l 701 979 l 95 979 l 95 0 z "},"Ệ":{"ha":767,"x_min":95,"x_max":701,"o":"m 95 0 l 701 0 l 701 110 l 217 110 l 217 446 l 676 446 l 676 555 l 217 555 l 217 869 l 701 869 l 701 979 l 95 979 l 95 0 m 200 1057 l 300 1057 l 406 1205 l 390 1205 l 496 1057 l 596 1057 l 451 1253 l 345 1253 l 200 1057 m 398 -267 q 451 -245 429 -267 q 472 -193 472 -224 q 451 -141 472 -162 q 398 -119 429 -119 q 346 -141 368 -119 q 324 -193 324 -162 q 346 -245 324 -224 q 398 -267 368 -267 z "},"Ế":{"ha":767,"x_min":95,"x_max":701,"o":"m 95 0 l 701 0 l 701 110 l 217 110 l 217 446 l 676 446 l 676 555 l 217 555 l 217 869 l 701 869 l 701 979 l 95 979 l 95 0 z "},"Ë":{"ha":767,"x_min":95,"x_max":701,"o":"m 95 0 l 701 0 l 701 110 l 217 110 l 217 446 l 676 446 l 676 555 l 217 555 l 217 869 l 701 869 l 701 979 l 95 979 l 95 0 m 277 1090 q 324 1109 304 1090 q 343 1157 343 1129 q 324 1204 343 1185 q 277 1224 304 1224 q 229 1204 249 1224 q 210 1157 210 1185 q 229 1109 210 1129 q 277 1090 249 1090 m 519 1090 q 567 1109 548 1090 q 587 1157 587 1129 q 567 1204 587 1185 q 519 1224 548 1224 q 473 1204 492 1224 q 453 1157 453 1185 q 473 1109 453 1129 q 519 1090 492 1090 z "},"Ẹ":{"ha":767,"x_min":95,"x_max":701,"o":"m 95 0 l 701 0 l 701 110 l 217 110 l 217 446 l 676 446 l 676 555 l 217 555 l 217 869 l 701 869 l 701 979 l 95 979 l 95 0 m 398 -267 q 451 -245 429 -267 q 472 -193 472 -224 q 451 -141 472 -162 q 398 -119 429 -119 q 346 -141 368 -119 q 324 -193 324 -162 q 346 -245 324 -224 q 398 -267 368 -267 z "},"Ȇ":{"ha":767,"x_min":95,"x_max":701,"o":"m 95 0 l 701 0 l 701 110 l 217 110 l 217 446 l 676 446 l 676 555 l 217 555 l 217 869 l 701 869 l 701 979 l 95 979 l 95 0 m 398 1248 q 299 1224 341 1248 q 235 1158 258 1200 q 212 1061 212 1116 l 212 1055 l 297 1055 l 297 1059 q 324 1135 297 1103 q 398 1167 351 1167 q 473 1135 446 1167 q 500 1059 500 1103 l 500 1055 l 585 1055 l 585 1061 q 562 1158 585 1116 q 497 1224 539 1200 q 398 1248 456 1248 z "},"Ẻ":{"ha":767,"x_min":95,"x_max":701,"o":"m 95 0 l 701 0 l 701 110 l 217 110 l 217 446 l 676 446 l 676 555 l 217 555 l 217 869 l 701 869 l 701 979 l 95 979 l 95 0 m 347 1057 l 431 1057 q 481 1105 465 1080 q 498 1160 498 1131 q 456 1235 498 1207 q 361 1263 415 1263 q 319 1260 338 1263 q 288 1252 300 1257 l 288 1183 q 305 1185 295 1184 q 330 1186 315 1186 q 387 1174 363 1186 q 410 1140 410 1162 q 393 1102 410 1122 q 347 1059 377 1082 l 347 1057 z "},"Ě":{"ha":767,"x_min":95,"x_max":701,"o":"m 95 0 l 701 0 l 701 110 l 217 110 l 217 446 l 676 446 l 676 555 l 217 555 l 217 869 l 701 869 l 701 979 l 95 979 l 95 0 m 596 1253 l 496 1253 l 391 1105 l 406 1105 l 300 1253 l 200 1253 l 345 1057 l 451 1057 l 596 1253 z "},"Ē":{"ha":767,"x_min":95,"x_max":701,"o":"m 95 0 l 701 0 l 701 110 l 217 110 l 217 446 l 676 446 l 676 555 l 217 555 l 217 869 l 701 869 l 701 979 l 95 979 l 95 0 m 218 1114 l 578 1114 l 578 1200 l 218 1200 l 218 1114 z "},"Ḕ":{"ha":767,"x_min":95,"x_max":701,"o":"m 95 0 l 701 0 l 701 110 l 217 110 l 217 446 l 676 446 l 676 555 l 217 555 l 217 869 l 701 869 l 701 979 l 95 979 l 95 0 z "},"Ḗ":{"ha":767,"x_min":95,"x_max":701,"o":"m 95 0 l 701 0 l 701 110 l 217 110 l 217 446 l 676 446 l 676 555 l 217 555 l 217 869 l 701 869 l 701 979 l 95 979 l 95 0 z "},"Ẽ":{"ha":767,"x_min":95,"x_max":701,"o":"m 95 0 l 701 0 l 701 110 l 217 110 l 217 446 l 676 446 l 676 555 l 217 555 l 217 869 l 701 869 l 701 979 l 95 979 l 95 0 m 490 1058 q 566 1100 538 1058 q 593 1225 593 1141 l 593 1232 l 513 1232 l 513 1226 q 505 1166 513 1185 q 477 1146 496 1146 q 448 1156 463 1146 q 417 1179 433 1166 l 393 1199 q 354 1224 376 1215 q 306 1234 333 1234 q 230 1192 257 1234 q 202 1067 202 1150 l 202 1059 l 283 1059 l 283 1065 q 291 1126 283 1106 q 318 1145 299 1145 q 346 1136 332 1145 q 376 1112 360 1126 l 399 1093 q 440 1068 417 1078 q 490 1058 463 1058 z "},"Ḙ":{"ha":767,"x_min":95,"x_max":701,"o":"m 95 0 l 701 0 l 701 110 l 217 110 l 217 446 l 676 446 l 676 555 l 217 555 l 217 869 l 701 869 l 701 979 l 95 979 l 95 0 m 192 -286 l 294 -286 l 405 -130 l 391 -130 l 503 -286 l 604 -286 l 452 -81 l 345 -81 l 192 -286 z "},"Ĕ":{"ha":767,"x_min":95,"x_max":701,"o":"m 95 0 l 701 0 l 701 110 l 217 110 l 217 446 l 676 446 l 676 555 l 217 555 l 217 869 l 701 869 l 701 979 l 95 979 l 95 0 m 399 1055 q 497 1079 456 1055 q 562 1145 539 1103 q 585 1242 585 1187 l 585 1248 l 500 1248 l 500 1244 q 473 1168 500 1201 q 399 1136 446 1136 q 324 1168 351 1136 q 297 1244 297 1201 l 297 1248 l 212 1248 l 212 1242 q 235 1145 212 1187 q 300 1079 258 1103 q 399 1055 342 1055 z "},"Ḛ":{"ha":767,"x_min":95,"x_max":701,"o":"m 95 0 l 701 0 l 701 110 l 217 110 l 217 446 l 676 446 l 676 555 l 217 555 l 217 869 l 701 869 l 701 979 l 95 979 l 95 0 m 494 -286 q 573 -243 545 -286 q 602 -114 602 -200 l 602 -106 l 519 -106 l 519 -113 q 510 -177 519 -156 q 482 -197 502 -197 q 452 -187 467 -197 q 418 -162 436 -177 l 394 -141 q 353 -115 375 -125 q 302 -104 330 -104 q 223 -148 252 -104 q 195 -277 195 -191 l 195 -285 l 277 -285 l 277 -278 q 286 -214 277 -235 q 314 -193 295 -193 q 343 -204 329 -193 q 375 -229 358 -214 l 399 -250 q 442 -276 418 -266 q 494 -286 465 -286 z "},"Ė":{"ha":767,"x_min":95,"x_max":701,"o":"m 95 0 l 701 0 l 701 110 l 217 110 l 217 446 l 676 446 l 676 555 l 217 555 l 217 869 l 701 869 l 701 979 l 95 979 l 95 0 m 397 1092 q 448 1113 427 1092 q 468 1162 468 1133 q 448 1212 468 1192 q 397 1232 427 1232 q 348 1212 369 1232 q 328 1162 328 1192 q 348 1113 328 1133 q 397 1092 369 1092 z "},"Ȩ":{"ha":767,"x_min":95,"x_max":701,"o":"m 95 0 l 701 0 l 701 110 l 217 110 l 217 446 l 676 446 l 676 555 l 217 555 l 217 869 l 701 869 l 701 979 l 95 979 l 95 0 m 391 -309 q 461 -295 429 -309 q 515 -253 494 -280 q 535 -185 535 -225 l 535 -184 q 501 -97 535 -126 q 414 -64 467 -68 l 456 0 l 456 14 l 382 14 l 321 -78 l 321 -138 l 352 -138 q 411 -150 391 -138 q 432 -186 432 -161 l 432 -188 q 411 -220 432 -211 q 363 -229 391 -229 q 321 -225 341 -229 q 290 -217 301 -222 l 290 -292 q 332 -304 305 -299 q 391 -309 359 -309 z "},"Ḝ":{"ha":767,"x_min":95,"x_max":701,"o":"m 95 0 l 701 0 l 701 110 l 217 110 l 217 446 l 676 446 l 676 555 l 217 555 l 217 869 l 701 869 l 701 979 l 95 979 l 95 0 m 391 -309 q 461 -295 429 -309 q 515 -253 494 -280 q 535 -185 535 -225 l 535 -184 q 501 -97 535 -126 q 414 -64 467 -68 l 456 0 l 456 14 l 382 14 l 321 -78 l 321 -138 l 352 -138 q 411 -150 391 -138 q 432 -186 432 -161 l 432 -188 q 411 -220 432 -211 q 363 -229 391 -229 q 321 -225 341 -229 q 290 -217 301 -222 l 290 -292 q 332 -304 305 -299 q 391 -309 359 -309 m 399 1055 q 497 1079 456 1055 q 562 1145 539 1103 q 585 1242 585 1187 l 585 1248 l 500 1248 l 500 1244 q 473 1168 500 1201 q 399 1136 446 1136 q 324 1168 351 1136 q 297 1244 297 1201 l 297 1248 l 212 1248 l 212 1242 q 235 1145 212 1187 q 300 1079 258 1103 q 399 1055 342 1055 z "},"Ę":{"ha":767,"x_min":95,"x_max":709,"o":"m 95 0 l 701 0 l 701 110 l 217 110 l 217 446 l 676 446 l 676 555 l 217 555 l 217 869 l 701 869 l 701 979 l 95 979 l 95 0 m 643 -320 q 676 -317 656 -320 q 709 -309 696 -315 l 709 -230 q 667 -237 694 -237 q 617 -219 638 -237 q 597 -161 597 -200 l 597 -159 q 624 -74 597 -113 q 701 0 652 -35 l 627 0 l 627 14 l 601 14 q 518 -72 549 -21 q 487 -177 487 -123 l 487 -178 q 508 -257 487 -225 q 565 -304 530 -288 q 643 -320 601 -320 z "},"Ǝ":{"ha":767,"x_min":66,"x_max":672,"o":"m 672 0 l 672 979 l 66 979 l 66 869 l 550 869 l 550 555 l 91 555 l 91 446 l 550 446 l 550 110 l 66 110 l 66 0 l 672 0 z "},"F":{"ha":733,"x_min":95,"x_max":689,"o":"m 95 0 l 217 0 l 217 424 l 650 424 l 650 532 l 217 532 l 217 869 l 689 869 l 689 979 l 95 979 l 95 0 z "},"Ḟ":{"ha":733,"x_min":95,"x_max":689,"o":"m 95 0 l 217 0 l 217 424 l 650 424 l 650 532 l 217 532 l 217 869 l 689 869 l 689 979 l 95 979 l 95 0 m 391 1092 q 441 1113 421 1092 q 462 1162 462 1133 q 441 1212 462 1192 q 391 1232 421 1232 q 342 1212 363 1232 q 321 1162 321 1192 q 342 1113 321 1133 q 391 1092 363 1092 z "},"Ƒ":{"ha":733,"x_min":-52,"x_max":689,"o":"m 217 424 l 650 424 l 650 532 l 217 532 l 217 869 l 689 869 l 689 979 l 95 979 l 95 13 l 217 13 l 217 424 m 217 14 l 95 14 l 95 -39 q 72 -115 95 -90 q 1 -140 49 -140 q -27 -139 -14 -140 q -52 -137 -41 -138 l -52 -233 q -20 -236 -39 -235 q 20 -237 0 -237 q 168 -189 119 -237 q 217 -39 217 -140 l 217 14 z "},"G":{"ha":981,"x_min":57,"x_max":920,"o":"m 505 -16 q 729 34 636 -16 q 871 178 821 84 q 920 405 920 273 l 920 498 l 522 498 l 522 391 l 798 391 l 798 373 q 761 229 798 291 q 658 131 724 166 q 505 96 592 96 q 333 144 406 96 q 221 282 260 193 q 182 494 182 372 l 182 495 q 221 703 182 616 q 332 836 260 789 q 505 882 405 882 q 679 831 608 882 q 783 687 749 780 l 786 680 l 914 680 l 911 692 q 836 847 888 779 q 700 955 783 916 q 505 995 618 995 q 268 933 369 995 q 112 760 168 872 q 57 495 57 648 l 57 494 q 112 224 57 338 q 268 46 168 109 q 505 -16 369 -16 z "},"Ǵ":{"ha":981,"x_min":57,"x_max":920,"o":"m 505 -16 q 729 34 636 -16 q 871 178 821 84 q 920 405 920 273 l 920 498 l 522 498 l 522 391 l 798 391 l 798 373 q 761 229 798 291 q 658 131 724 166 q 505 96 592 96 q 333 144 406 96 q 221 282 260 193 q 182 494 182 372 l 182 495 q 221 703 182 616 q 332 836 260 789 q 505 882 405 882 q 679 831 608 882 q 783 687 749 780 l 786 680 l 914 680 l 911 692 q 836 847 888 779 q 700 955 783 916 q 505 995 618 995 q 268 933 369 995 q 112 760 168 872 q 57 495 57 648 l 57 494 q 112 224 57 338 q 268 46 168 109 q 505 -16 369 -16 m 539 1057 l 682 1253 l 560 1253 l 450 1057 l 539 1057 z "},"Ǧ":{"ha":981,"x_min":57,"x_max":920,"o":"m 505 -16 q 729 34 636 -16 q 871 178 821 84 q 920 405 920 273 l 920 498 l 522 498 l 522 391 l 798 391 l 798 373 q 761 229 798 291 q 658 131 724 166 q 505 96 592 96 q 333 144 406 96 q 221 282 260 193 q 182 494 182 372 l 182 495 q 221 703 182 616 q 332 836 260 789 q 505 882 405 882 q 679 831 608 882 q 783 687 749 780 l 786 680 l 914 680 l 911 692 q 836 847 888 779 q 700 955 783 916 q 505 995 618 995 q 268 933 369 995 q 112 760 168 872 q 57 495 57 648 l 57 494 q 112 224 57 338 q 268 46 168 109 q 505 -16 369 -16 m 703 1253 l 604 1253 l 498 1105 l 513 1105 l 407 1253 l 307 1253 l 452 1057 l 558 1057 l 703 1253 z "},"Ĝ":{"ha":981,"x_min":57,"x_max":920,"o":"m 505 -16 q 729 34 636 -16 q 871 178 821 84 q 920 405 920 273 l 920 498 l 522 498 l 522 391 l 798 391 l 798 373 q 761 229 798 291 q 658 131 724 166 q 505 96 592 96 q 333 144 406 96 q 221 282 260 193 q 182 494 182 372 l 182 495 q 221 703 182 616 q 332 836 260 789 q 505 882 405 882 q 679 831 608 882 q 783 687 749 780 l 786 680 l 914 680 l 911 692 q 836 847 888 779 q 700 955 783 916 q 505 995 618 995 q 268 933 369 995 q 112 760 168 872 q 57 495 57 648 l 57 494 q 112 224 57 338 q 268 46 168 109 q 505 -16 369 -16 m 307 1057 l 407 1057 l 513 1205 l 497 1205 l 604 1057 l 703 1057 l 558 1253 l 452 1253 l 307 1057 z "},"Ğ":{"ha":981,"x_min":57,"x_max":920,"o":"m 505 -16 q 729 34 636 -16 q 871 178 821 84 q 920 405 920 273 l 920 498 l 522 498 l 522 391 l 798 391 l 798 373 q 761 229 798 291 q 658 131 724 166 q 505 96 592 96 q 333 144 406 96 q 221 282 260 193 q 182 494 182 372 l 182 495 q 221 703 182 616 q 332 836 260 789 q 505 882 405 882 q 679 831 608 882 q 783 687 749 780 l 786 680 l 914 680 l 911 692 q 836 847 888 779 q 700 955 783 916 q 505 995 618 995 q 268 933 369 995 q 112 760 168 872 q 57 495 57 648 l 57 494 q 112 224 57 338 q 268 46 168 109 q 505 -16 369 -16 m 506 1055 q 605 1079 563 1055 q 669 1145 646 1103 q 692 1242 692 1187 l 692 1248 l 607 1248 l 607 1244 q 580 1168 607 1201 q 506 1136 553 1136 q 431 1168 458 1136 q 404 1244 404 1201 l 404 1248 l 319 1248 l 319 1242 q 342 1145 319 1187 q 407 1079 365 1103 q 506 1055 449 1055 z "},"Ḡ":{"ha":981,"x_min":57,"x_max":920,"o":"m 505 -16 q 729 34 636 -16 q 871 178 821 84 q 920 405 920 273 l 920 498 l 522 498 l 522 391 l 798 391 l 798 373 q 761 229 798 291 q 658 131 724 166 q 505 96 592 96 q 333 144 406 96 q 221 282 260 193 q 182 494 182 372 l 182 495 q 221 703 182 616 q 332 836 260 789 q 505 882 405 882 q 679 831 608 882 q 783 687 749 780 l 786 680 l 914 680 l 911 692 q 836 847 888 779 q 700 955 783 916 q 505 995 618 995 q 268 933 369 995 q 112 760 168 872 q 57 495 57 648 l 57 494 q 112 224 57 338 q 268 46 168 109 q 505 -16 369 -16 m 325 1114 l 685 1114 l 685 1200 l 325 1200 l 325 1114 z "},"Ġ":{"ha":981,"x_min":57,"x_max":920,"o":"m 505 -16 q 729 34 636 -16 q 871 178 821 84 q 920 405 920 273 l 920 498 l 522 498 l 522 391 l 798 391 l 798 373 q 761 229 798 291 q 658 131 724 166 q 505 96 592 96 q 333 144 406 96 q 221 282 260 193 q 182 494 182 372 l 182 495 q 221 703 182 616 q 332 836 260 789 q 505 882 405 882 q 679 831 608 882 q 783 687 749 780 l 786 680 l 914 680 l 911 692 q 836 847 888 779 q 700 955 783 916 q 505 995 618 995 q 268 933 369 995 q 112 760 168 872 q 57 495 57 648 l 57 494 q 112 224 57 338 q 268 46 168 109 q 505 -16 369 -16 m 505 1092 q 555 1113 534 1092 q 575 1162 575 1133 q 555 1212 575 1192 q 505 1232 534 1232 q 455 1212 476 1232 q 435 1162 435 1192 q 455 1113 435 1133 q 505 1092 476 1092 z "},"Ģ":{"ha":981,"x_min":57,"x_max":920,"o":"m 505 -16 q 729 34 636 -16 q 871 178 821 84 q 920 405 920 273 l 920 498 l 522 498 l 522 391 l 798 391 l 798 373 q 761 229 798 291 q 658 131 724 166 q 505 96 592 96 q 333 144 406 96 q 221 282 260 193 q 182 494 182 372 l 182 495 q 221 703 182 616 q 332 836 260 789 q 505 882 405 882 q 679 831 608 882 q 783 687 749 780 l 786 680 l 914 680 l 911 692 q 836 847 888 779 q 700 955 783 916 q 505 995 618 995 q 268 933 369 995 q 112 760 168 872 q 57 495 57 648 l 57 494 q 112 224 57 338 q 268 46 168 109 q 505 -16 369 -16 m 385 -309 l 461 -309 l 560 -81 l 446 -81 l 385 -309 z "},"H":{"ha":971,"x_min":95,"x_max":876,"o":"m 95 0 l 217 0 l 217 446 l 754 446 l 754 0 l 876 0 l 876 979 l 754 979 l 754 555 l 217 555 l 217 979 l 95 979 l 95 0 z "},"Ḧ":{"ha":971,"x_min":95,"x_max":876,"o":"m 95 0 l 217 0 l 217 446 l 754 446 l 754 0 l 876 0 l 876 979 l 754 979 l 754 555 l 217 555 l 217 979 l 95 979 l 95 0 m 364 1090 q 411 1109 392 1090 q 431 1157 431 1129 q 411 1204 431 1185 q 364 1224 392 1224 q 317 1204 336 1224 q 297 1157 297 1185 q 317 1109 297 1129 q 364 1090 336 1090 m 607 1090 q 655 1109 635 1090 q 674 1157 674 1129 q 655 1204 674 1185 q 607 1224 635 1224 q 560 1204 580 1224 q 541 1157 541 1185 q 560 1109 541 1129 q 607 1090 580 1090 z "},"Ȟ":{"ha":971,"x_min":95,"x_max":876,"o":"m 95 0 l 217 0 l 217 446 l 754 446 l 754 0 l 876 0 l 876 979 l 754 979 l 754 555 l 217 555 l 217 979 l 95 979 l 95 0 m 684 1253 l 584 1253 l 478 1105 l 494 1105 l 387 1253 l 288 1253 l 433 1057 l 538 1057 l 684 1253 z "},"Ĥ":{"ha":971,"x_min":95,"x_max":876,"o":"m 95 0 l 217 0 l 217 446 l 754 446 l 754 0 l 876 0 l 876 979 l 754 979 l 754 555 l 217 555 l 217 979 l 95 979 l 95 0 m 288 1057 l 387 1057 l 493 1205 l 477 1205 l 584 1057 l 684 1057 l 538 1253 l 433 1253 l 288 1057 z "},"Ḥ":{"ha":971,"x_min":95,"x_max":876,"o":"m 95 0 l 217 0 l 217 446 l 754 446 l 754 0 l 876 0 l 876 979 l 754 979 l 754 555 l 217 555 l 217 979 l 95 979 l 95 0 m 486 -267 q 538 -245 517 -267 q 559 -193 559 -224 q 538 -141 559 -162 q 486 -119 517 -119 q 433 -141 455 -119 q 412 -193 412 -162 q 433 -245 412 -224 q 486 -267 455 -267 z "},"Ḣ":{"ha":971,"x_min":95,"x_max":876,"o":"m 95 0 l 217 0 l 217 446 l 754 446 l 754 0 l 876 0 l 876 979 l 754 979 l 754 555 l 217 555 l 217 979 l 95 979 l 95 0 m 485 1092 q 535 1113 515 1092 q 555 1162 555 1133 q 535 1212 555 1192 q 485 1232 515 1232 q 436 1212 456 1232 q 415 1162 415 1192 q 436 1113 415 1133 q 485 1092 456 1092 z "},"Ḫ":{"ha":971,"x_min":95,"x_max":876,"o":"m 95 0 l 217 0 l 217 446 l 754 446 l 754 0 l 876 0 l 876 979 l 754 979 l 754 555 l 217 555 l 217 979 l 95 979 l 95 0 m 486 -285 q 588 -259 545 -285 q 655 -189 631 -234 q 679 -87 679 -144 l 679 -80 l 592 -80 l 592 -83 q 564 -167 592 -131 q 486 -203 536 -203 q 407 -167 435 -203 q 379 -83 379 -131 l 379 -80 l 292 -80 l 292 -87 q 316 -189 292 -144 q 383 -259 340 -234 q 486 -285 427 -285 z "},"Ḩ":{"ha":971,"x_min":50,"x_max":876,"o":"m 95 0 l 217 0 l 217 446 l 754 446 l 754 0 l 876 0 l 876 979 l 754 979 l 754 555 l 217 555 l 217 979 l 95 979 l 95 0 m 152 -309 q 222 -295 189 -309 q 275 -253 255 -280 q 296 -185 296 -225 l 296 -184 q 262 -97 296 -126 q 174 -64 228 -68 l 217 0 l 217 14 l 142 14 l 81 -78 l 81 -138 l 113 -138 q 172 -150 151 -138 q 193 -186 193 -161 l 193 -188 q 172 -220 193 -211 q 124 -229 151 -229 q 82 -225 102 -229 q 50 -217 62 -222 l 50 -292 q 93 -304 66 -299 q 152 -309 120 -309 z "},"Ħ":{"ha":1034,"x_min":32,"x_max":1003,"o":"m 127 0 l 249 0 l 249 446 l 786 446 l 786 0 l 908 0 l 908 979 l 786 979 l 786 555 l 249 555 l 249 979 l 127 979 l 127 0 m 32 722 l 1003 722 l 1003 824 l 32 824 l 32 722 z "},"I":{"ha":312,"x_min":95,"x_max":217,"o":"m 95 0 l 217 0 l 217 979 l 95 979 l 95 0 z "},"İ":{"ha":312,"x_min":85,"x_max":226,"o":"m 95 0 l 217 0 l 217 979 l 95 979 l 95 0 m 155 1092 q 205 1113 185 1092 q 226 1162 226 1133 q 205 1212 226 1192 q 155 1232 185 1232 q 106 1212 127 1232 q 85 1162 85 1192 q 106 1113 85 1133 q 155 1092 127 1092 z "},"Ì":{"ha":312,"x_min":-16,"x_max":217,"o":"m 95 0 l 217 0 l 217 979 l 95 979 l 95 0 m 126 1057 l 216 1057 l 105 1253 l -16 1253 l 126 1057 z "},"Ȉ":{"ha":312,"x_min":-135,"x_max":320,"o":"m 95 0 l 217 0 l 217 979 l 95 979 l 95 0 m 21 1057 l 111 1057 l -14 1253 l -135 1253 l 21 1057 m 231 1057 l 320 1057 l 210 1253 l 88 1253 l 231 1057 z "},"Í":{"ha":312,"x_min":95,"x_max":332,"o":"m 95 0 l 217 0 l 217 979 l 95 979 l 95 0 m 190 1057 l 332 1253 l 211 1253 l 100 1057 l 190 1057 z "},"Î":{"ha":312,"x_min":-42,"x_max":354,"o":"m 95 0 l 217 0 l 217 979 l 95 979 l 95 0 m -42 1057 l 58 1057 l 163 1205 l 148 1205 l 254 1057 l 354 1057 l 209 1253 l 103 1253 l -42 1057 z "},"Ǐ":{"ha":312,"x_min":-42,"x_max":354,"o":"m 95 0 l 217 0 l 217 979 l 95 979 l 95 0 m 354 1253 l 254 1253 l 149 1105 l 164 1105 l 58 1253 l -42 1253 l 103 1057 l 209 1057 l 354 1253 z "},"Ï":{"ha":312,"x_min":-33,"x_max":345,"o":"m 95 0 l 217 0 l 217 979 l 95 979 l 95 0 m 35 1090 q 82 1109 62 1090 q 101 1157 101 1129 q 82 1204 101 1185 q 35 1224 62 1224 q -13 1204 7 1224 q -33 1157 -33 1185 q -13 1109 -33 1129 q 35 1090 7 1090 m 277 1090 q 325 1109 306 1090 q 345 1157 345 1129 q 325 1204 345 1185 q 277 1224 306 1224 q 231 1204 250 1224 q 211 1157 211 1185 q 231 1109 211 1129 q 277 1090 250 1090 z "},"Ḯ":{"ha":312,"x_min":-20,"x_max":332,"o":"m 95 0 l 217 0 l 217 979 l 95 979 l 95 0 z "},"Ĭ":{"ha":312,"x_min":-30,"x_max":342,"o":"m 95 0 l 217 0 l 217 979 l 95 979 l 95 0 m 157 1055 q 255 1079 214 1055 q 320 1145 297 1103 q 342 1242 342 1187 l 342 1248 l 258 1248 l 258 1244 q 231 1168 258 1201 q 157 1136 204 1136 q 82 1168 109 1136 q 55 1244 55 1201 l 55 1248 l -30 1248 l -30 1242 q -7 1145 -30 1187 q 58 1079 16 1103 q 157 1055 100 1055 z "},"Ị":{"ha":312,"x_min":82,"x_max":230,"o":"m 95 0 l 217 0 l 217 979 l 95 979 l 95 0 m 156 -267 q 209 -245 187 -267 q 230 -193 230 -224 q 209 -141 230 -162 q 156 -119 187 -119 q 104 -141 125 -119 q 82 -193 82 -162 q 104 -245 82 -224 q 156 -267 125 -267 z "},"Ȋ":{"ha":312,"x_min":-30,"x_max":342,"o":"m 95 0 l 217 0 l 217 979 l 95 979 l 95 0 m 156 1248 q 57 1224 99 1248 q -7 1158 16 1200 q -30 1061 -30 1116 l -30 1055 l 55 1055 l 55 1059 q 82 1135 55 1103 q 156 1167 109 1167 q 231 1135 204 1167 q 258 1059 258 1103 l 258 1055 l 342 1055 l 342 1061 q 320 1158 342 1116 q 255 1224 297 1200 q 156 1248 214 1248 z "},"Ī":{"ha":312,"x_min":-24,"x_max":336,"o":"m 95 0 l 217 0 l 217 979 l 95 979 l 95 0 m -24 1114 l 336 1114 l 336 1200 l -24 1200 l -24 1114 z "},"Ḭ":{"ha":312,"x_min":-47,"x_max":359,"o":"m 95 0 l 217 0 l 217 979 l 95 979 l 95 0 m 252 -286 q 331 -243 302 -286 q 359 -114 359 -200 l 359 -106 l 277 -106 l 277 -113 q 268 -177 277 -156 q 240 -197 260 -197 q 210 -187 225 -197 q 176 -162 194 -177 l 152 -141 q 111 -115 133 -125 q 60 -104 88 -104 q -19 -148 9 -104 q -47 -277 -47 -191 l -47 -285 l 35 -285 l 35 -278 q 44 -214 35 -235 q 72 -193 53 -193 q 101 -204 87 -193 q 133 -229 116 -214 l 157 -250 q 200 -276 176 -266 q 252 -286 223 -286 z "},"Ỉ":{"ha":312,"x_min":46,"x_max":256,"o":"m 95 0 l 217 0 l 217 979 l 95 979 l 95 0 m 104 1057 l 189 1057 q 239 1105 223 1080 q 256 1160 256 1131 q 214 1235 256 1207 q 119 1263 173 1263 q 77 1260 96 1263 q 46 1252 58 1257 l 46 1183 q 63 1185 53 1184 q 87 1186 73 1186 q 144 1174 121 1186 q 168 1140 168 1162 q 151 1102 168 1122 q 104 1059 135 1082 l 104 1057 z "},"Ĩ":{"ha":312,"x_min":-40,"x_max":351,"o":"m 95 0 l 217 0 l 217 979 l 95 979 l 95 0 m 248 1058 q 324 1100 296 1058 q 351 1225 351 1141 l 351 1232 l 271 1232 l 271 1226 q 262 1166 271 1185 q 235 1146 254 1146 q 206 1156 221 1146 q 175 1179 191 1166 l 151 1199 q 112 1224 134 1215 q 64 1234 91 1234 q -13 1192 15 1234 q -40 1067 -40 1150 l -40 1059 l 41 1059 l 41 1065 q 49 1126 41 1106 q 76 1145 57 1145 q 104 1136 90 1145 q 134 1112 118 1126 l 157 1093 q 198 1068 175 1078 q 248 1058 220 1058 z "},"Į":{"ha":312,"x_min":3,"x_max":225,"o":"m 95 0 l 217 0 l 217 979 l 95 979 l 95 0 m 159 -320 q 192 -317 172 -320 q 225 -309 212 -315 l 225 -230 q 183 -237 210 -237 q 133 -219 154 -237 q 113 -161 113 -200 l 113 -159 q 140 -74 113 -113 q 217 0 168 -35 l 142 0 l 142 14 l 117 14 q 34 -72 64 -21 q 3 -177 3 -123 l 3 -178 q 24 -257 3 -225 q 81 -304 45 -288 q 159 -320 117 -320 z "},"J":{"ha":688,"x_min":28,"x_max":593,"o":"m 304 -16 q 516 62 440 -16 q 593 279 593 140 l 593 979 l 471 979 l 471 280 q 428 143 471 191 q 304 96 385 96 q 223 115 256 96 q 173 164 191 134 q 151 232 155 195 l 151 239 l 28 239 l 29 229 q 67 104 35 159 q 160 16 100 48 q 304 -16 220 -16 z "},"Ĵ":{"ha":688,"x_min":28,"x_max":730,"o":"m 304 -16 q 516 62 440 -16 q 593 279 593 140 l 593 979 l 471 979 l 471 280 q 428 143 471 191 q 304 96 385 96 q 223 115 256 96 q 173 164 191 134 q 151 232 155 195 l 151 239 l 28 239 l 29 229 q 67 104 35 159 q 160 16 100 48 q 304 -16 220 -16 m 334 1057 l 433 1057 l 539 1205 l 524 1205 l 630 1057 l 730 1057 l 585 1253 l 479 1253 l 334 1057 z "},"Ĳ":{"ha":1000,"x_min":95,"x_max":905,"o":"m 95 0 l 217 0 l 217 979 l 95 979 l 95 0 m 616 -16 q 828 62 752 -16 q 905 279 905 140 l 905 979 l 783 979 l 783 280 q 740 143 783 191 q 616 96 697 96 q 535 115 568 96 q 485 164 503 134 q 463 232 467 195 l 463 239 l 340 239 l 341 229 q 379 104 347 159 q 472 16 412 48 q 616 -16 532 -16 z "},"K":{"ha":834,"x_min":95,"x_max":825,"o":"m 207 331 l 394 537 l 400 537 l 789 979 l 636 979 l 221 498 l 207 498 l 207 331 m 95 0 l 217 0 l 217 979 l 95 979 l 95 0 m 669 0 l 825 0 l 401 553 l 315 467 l 669 0 z "},"K":{"ha":834,"x_min":95,"x_max":825,"o":"m 207 331 l 394 537 l 400 537 l 789 979 l 636 979 l 221 498 l 207 498 l 207 331 m 95 0 l 217 0 l 217 979 l 95 979 l 95 0 m 669 0 l 825 0 l 401 553 l 315 467 l 669 0 z "},"Ḱ":{"ha":834,"x_min":95,"x_max":825,"o":"m 207 331 l 394 537 l 400 537 l 789 979 l 636 979 l 221 498 l 207 498 l 207 331 m 95 0 l 217 0 l 217 979 l 95 979 l 95 0 m 669 0 l 825 0 l 401 553 l 315 467 l 669 0 m 452 1057 l 594 1253 l 473 1253 l 362 1057 l 452 1057 z "},"Ǩ":{"ha":834,"x_min":95,"x_max":825,"o":"m 207 331 l 394 537 l 400 537 l 789 979 l 636 979 l 221 498 l 207 498 l 207 331 m 95 0 l 217 0 l 217 979 l 95 979 l 95 0 m 669 0 l 825 0 l 401 553 l 315 467 l 669 0 m 616 1253 l 516 1253 l 410 1105 l 426 1105 l 319 1253 l 220 1253 l 365 1057 l 471 1057 l 616 1253 z "},"Ḳ":{"ha":834,"x_min":95,"x_max":825,"o":"m 207 331 l 394 537 l 400 537 l 789 979 l 636 979 l 221 498 l 207 498 l 207 331 m 95 0 l 217 0 l 217 979 l 95 979 l 95 0 m 669 0 l 825 0 l 401 553 l 315 467 l 669 0 m 418 -267 q 470 -245 449 -267 q 492 -193 492 -224 q 470 -141 492 -162 q 418 -119 449 -119 q 366 -141 387 -119 q 344 -193 344 -162 q 366 -245 344 -224 q 418 -267 387 -267 z "},"Ḵ":{"ha":834,"x_min":95,"x_max":825,"o":"m 207 331 l 394 537 l 400 537 l 789 979 l 636 979 l 221 498 l 207 498 l 207 331 m 95 0 l 217 0 l 217 979 l 95 979 l 95 0 m 669 0 l 825 0 l 401 553 l 315 467 l 669 0 m 231 -228 l 605 -228 l 605 -142 l 231 -142 l 231 -228 z "},"Ķ":{"ha":834,"x_min":95,"x_max":825,"o":"m 207 331 l 394 537 l 400 537 l 789 979 l 636 979 l 221 498 l 207 498 l 207 331 m 95 0 l 217 0 l 217 979 l 95 979 l 95 0 m 669 0 l 825 0 l 401 553 l 315 467 l 669 0 m 298 -309 l 374 -309 l 473 -81 l 359 -81 l 298 -309 z "},"Ƙ":{"ha":854,"x_min":95,"x_max":846,"o":"m 207 331 l 394 537 l 400 537 l 677 836 q 720 869 700 859 q 768 878 741 878 q 836 866 802 878 l 836 976 q 797 988 818 985 q 756 991 775 991 q 699 982 726 991 q 648 957 672 974 q 597 912 623 939 l 221 498 l 207 498 l 207 331 m 95 0 l 217 0 l 217 979 l 95 979 l 95 0 m 690 0 l 846 0 l 401 553 l 316 467 l 690 0 z "},"L":{"ha":728,"x_min":95,"x_max":689,"o":"m 95 0 l 689 0 l 689 110 l 217 110 l 217 979 l 95 979 l 95 0 z "},"Ĺ":{"ha":728,"x_min":95,"x_max":689,"o":"m 95 0 l 689 0 l 689 110 l 217 110 l 217 979 l 95 979 l 95 0 m 190 1057 l 332 1253 l 211 1253 l 100 1057 l 190 1057 z "},"Ḽ":{"ha":728,"x_min":95,"x_max":689,"o":"m 95 0 l 689 0 l 689 110 l 217 110 l 217 979 l 95 979 l 95 0 m 186 -286 l 288 -286 l 399 -130 l 385 -130 l 496 -286 l 598 -286 l 446 -81 l 338 -81 l 186 -286 z "},"Ŀ":{"ha":728,"x_min":95,"x_max":689,"o":"m 95 0 l 689 0 l 689 110 l 217 110 l 217 979 l 95 979 l 95 0 m 597 501 q 575 555 597 533 q 521 578 553 578 l 519 578 q 465 555 488 578 q 443 501 443 533 l 443 500 q 465 446 443 468 q 519 423 488 423 l 521 423 q 575 446 553 423 q 597 500 597 468 l 597 501 z "},"Ḷ":{"ha":728,"x_min":95,"x_max":689,"o":"m 95 0 l 689 0 l 689 110 l 217 110 l 217 979 l 95 979 l 95 0 m 392 -267 q 445 -245 423 -267 q 466 -193 466 -224 q 445 -141 466 -162 q 392 -119 423 -119 q 340 -141 361 -119 q 318 -193 318 -162 q 340 -245 318 -224 q 392 -267 361 -267 z "},"Ḹ":{"ha":728,"x_min":-24,"x_max":689,"o":"m 95 0 l 689 0 l 689 110 l 217 110 l 217 979 l 95 979 l 95 0 m 392 -267 q 445 -245 423 -267 q 466 -193 466 -224 q 445 -141 466 -162 q 392 -119 423 -119 q 340 -141 361 -119 q 318 -193 318 -162 q 340 -245 318 -224 q 392 -267 361 -267 m -24 1114 l 336 1114 l 336 1200 l -24 1200 l -24 1114 z "},"Ḻ":{"ha":728,"x_min":95,"x_max":689,"o":"m 95 0 l 689 0 l 689 110 l 217 110 l 217 979 l 95 979 l 95 0 m 205 -228 l 579 -228 l 579 -142 l 205 -142 l 205 -228 z "},"Ļ":{"ha":728,"x_min":95,"x_max":689,"o":"m 95 0 l 689 0 l 689 110 l 217 110 l 217 979 l 95 979 l 95 0 m 272 -309 l 348 -309 l 447 -81 l 333 -81 l 272 -309 z "},"Ľ":{"ha":728,"x_min":95,"x_max":689,"o":"m 395 705 l 469 705 l 557 979 l 445 979 l 395 705 m 95 0 l 689 0 l 689 110 l 217 110 l 217 979 l 95 979 l 95 0 z "},"Ł":{"ha":743,"x_min":31,"x_max":704,"o":"m 110 0 l 704 0 l 704 110 l 232 110 l 232 979 l 110 979 l 110 0 m 507 581 l 507 690 l 31 452 l 31 343 l 507 581 z "},"M":{"ha":1154,"x_min":95,"x_max":1059,"o":"m 95 0 l 209 0 l 209 756 l 264 756 l 132 951 l 526 0 l 629 0 l 1022 951 l 890 756 l 945 756 l 945 0 l 1059 0 l 1059 979 l 918 979 l 579 154 l 575 154 l 236 979 l 95 979 l 95 0 z "},"Ḿ":{"ha":1154,"x_min":95,"x_max":1059,"o":"m 95 0 l 209 0 l 209 756 l 264 756 l 132 951 l 526 0 l 629 0 l 1022 951 l 890 756 l 945 756 l 945 0 l 1059 0 l 1059 979 l 918 979 l 579 154 l 575 154 l 236 979 l 95 979 l 95 0 m 611 1057 l 753 1253 l 632 1253 l 522 1057 l 611 1057 z "},"Ṁ":{"ha":1154,"x_min":95,"x_max":1059,"o":"m 95 0 l 209 0 l 209 756 l 264 756 l 132 951 l 526 0 l 629 0 l 1022 951 l 890 756 l 945 756 l 945 0 l 1059 0 l 1059 979 l 918 979 l 579 154 l 575 154 l 236 979 l 95 979 l 95 0 m 576 1092 q 627 1113 606 1092 q 647 1162 647 1133 q 627 1212 647 1192 q 576 1232 606 1232 q 527 1212 548 1232 q 507 1162 507 1192 q 527 1113 507 1133 q 576 1092 548 1092 z "},"Ṃ":{"ha":1154,"x_min":95,"x_max":1059,"o":"m 95 0 l 209 0 l 209 756 l 264 756 l 132 951 l 526 0 l 629 0 l 1022 951 l 890 756 l 945 756 l 945 0 l 1059 0 l 1059 979 l 918 979 l 579 154 l 575 154 l 236 979 l 95 979 l 95 0 m 577 -267 q 630 -245 608 -267 q 651 -193 651 -224 q 630 -141 651 -162 q 577 -119 608 -119 q 525 -141 547 -119 q 503 -193 503 -162 q 525 -245 503 -224 q 577 -267 547 -267 z "},"N":{"ha":971,"x_min":95,"x_max":876,"o":"m 95 0 l 216 0 l 216 772 l 270 772 l 115 922 l 758 0 l 876 0 l 876 979 l 755 979 l 755 206 l 701 206 l 856 57 l 214 979 l 95 979 l 95 0 z "},"Ǹ":{"ha":971,"x_min":95,"x_max":876,"o":"m 95 0 l 216 0 l 216 772 l 270 772 l 115 922 l 758 0 l 876 0 l 876 979 l 755 979 l 755 206 l 701 206 l 856 57 l 214 979 l 95 979 l 95 0 m 456 1057 l 545 1057 l 435 1253 l 313 1253 l 456 1057 z "},"Ń":{"ha":971,"x_min":95,"x_max":876,"o":"m 95 0 l 216 0 l 216 772 l 270 772 l 115 922 l 758 0 l 876 0 l 876 979 l 755 979 l 755 206 l 701 206 l 856 57 l 214 979 l 95 979 l 95 0 m 519 1057 l 662 1253 l 541 1253 l 430 1057 l 519 1057 z "},"Ñ":{"ha":971,"x_min":95,"x_max":876,"o":"m 95 0 l 216 0 l 216 772 l 270 772 l 115 922 l 758 0 l 876 0 l 876 979 l 755 979 l 755 206 l 701 206 l 856 57 l 214 979 l 95 979 l 95 0 m 577 1058 q 653 1100 626 1058 q 681 1225 681 1141 l 681 1232 l 600 1232 l 600 1226 q 592 1166 600 1185 q 565 1146 584 1146 q 536 1156 551 1146 q 505 1179 521 1166 l 481 1199 q 442 1224 463 1215 q 393 1234 420 1234 q 317 1192 345 1234 q 290 1067 290 1150 l 290 1059 l 370 1059 l 370 1065 q 378 1126 370 1106 q 406 1145 387 1145 q 433 1136 419 1145 q 463 1112 448 1126 l 487 1093 q 527 1068 505 1078 q 577 1058 550 1058 z "},"Ṇ":{"ha":971,"x_min":95,"x_max":876,"o":"m 95 0 l 216 0 l 216 772 l 270 772 l 115 922 l 758 0 l 876 0 l 876 979 l 755 979 l 755 206 l 701 206 l 856 57 l 214 979 l 95 979 l 95 0 m 486 -267 q 538 -245 517 -267 q 559 -193 559 -224 q 538 -141 559 -162 q 486 -119 517 -119 q 433 -141 455 -119 q 412 -193 412 -162 q 433 -245 412 -224 q 486 -267 455 -267 z "},"Ṅ":{"ha":971,"x_min":95,"x_max":876,"o":"m 95 0 l 216 0 l 216 772 l 270 772 l 115 922 l 758 0 l 876 0 l 876 979 l 755 979 l 755 206 l 701 206 l 856 57 l 214 979 l 95 979 l 95 0 m 485 1092 q 535 1113 515 1092 q 555 1162 555 1133 q 535 1212 555 1192 q 485 1232 515 1232 q 436 1212 456 1232 q 415 1162 415 1192 q 436 1113 415 1133 q 485 1092 456 1092 z "},"Ň":{"ha":971,"x_min":95,"x_max":876,"o":"m 95 0 l 216 0 l 216 772 l 270 772 l 115 922 l 758 0 l 876 0 l 876 979 l 755 979 l 755 206 l 701 206 l 856 57 l 214 979 l 95 979 l 95 0 m 684 1253 l 584 1253 l 478 1105 l 494 1105 l 387 1253 l 288 1253 l 433 1057 l 538 1057 l 684 1253 z "},"Ṋ":{"ha":971,"x_min":95,"x_max":876,"o":"m 95 0 l 216 0 l 216 772 l 270 772 l 115 922 l 758 0 l 876 0 l 876 979 l 755 979 l 755 206 l 701 206 l 856 57 l 214 979 l 95 979 l 95 0 m 279 -286 l 381 -286 l 492 -130 l 478 -130 l 590 -286 l 692 -286 l 539 -81 l 432 -81 l 279 -286 z "},"Ṉ":{"ha":971,"x_min":95,"x_max":876,"o":"m 95 0 l 216 0 l 216 772 l 270 772 l 115 922 l 758 0 l 876 0 l 876 979 l 755 979 l 755 206 l 701 206 l 856 57 l 214 979 l 95 979 l 95 0 m 298 -228 l 673 -228 l 673 -142 l 298 -142 l 298 -228 z "},"Ņ":{"ha":971,"x_min":95,"x_max":876,"o":"m 95 0 l 216 0 l 216 772 l 270 772 l 115 922 l 758 0 l 876 0 l 876 979 l 755 979 l 755 206 l 701 206 l 856 57 l 214 979 l 95 979 l 95 0 m 366 -309 l 441 -309 l 541 -81 l 427 -81 l 366 -309 z "},"Ŋ":{"ha":971,"x_min":95,"x_max":876,"o":"m 216 0 l 216 772 l 270 772 l 115 922 l 798 -56 l 754 57 l 754 -39 q 731 -115 754 -90 q 661 -140 708 -140 q 632 -139 646 -140 q 607 -137 618 -138 l 607 -233 q 640 -236 620 -235 q 679 -237 659 -237 q 827 -189 779 -237 q 876 -39 876 -140 l 876 979 l 755 979 l 755 206 l 701 206 l 856 57 l 214 979 l 95 979 l 95 0 l 216 0 z "},"O":{"ha":1016,"x_min":57,"x_max":959,"o":"m 509 -16 q 748 45 648 -16 q 904 220 849 107 q 959 489 959 334 l 959 490 q 904 759 959 646 q 748 933 849 871 q 509 995 647 995 q 269 933 370 995 q 112 759 168 871 q 57 490 57 646 l 57 489 q 112 220 57 334 q 268 45 167 107 q 509 -16 370 -16 m 509 96 q 335 144 408 96 q 222 281 262 193 q 182 489 182 369 l 182 490 q 222 699 182 611 q 335 834 262 787 q 509 882 409 882 q 682 834 608 882 q 794 699 755 787 q 834 490 834 610 l 834 489 q 795 281 834 370 q 683 145 755 193 q 509 96 610 96 z "},"Ö":{"ha":1016,"x_min":57,"x_max":959,"o":"m 509 -16 q 748 45 648 -16 q 904 220 849 107 q 959 489 959 334 l 959 490 q 904 759 959 646 q 748 933 849 871 q 509 995 647 995 q 269 933 370 995 q 112 759 168 871 q 57 490 57 646 l 57 489 q 112 220 57 334 q 268 45 167 107 q 509 -16 370 -16 m 509 96 q 335 144 408 96 q 222 281 262 193 q 182 489 182 369 l 182 490 q 222 699 182 611 q 335 834 262 787 q 509 882 409 882 q 682 834 608 882 q 794 699 755 787 q 834 490 834 610 l 834 489 q 795 281 834 370 q 683 145 755 193 q 509 96 610 96 m 387 1090 q 434 1109 414 1090 q 453 1157 453 1129 q 434 1204 453 1185 q 387 1224 414 1224 q 339 1204 359 1224 q 319 1157 319 1185 q 339 1109 319 1129 q 387 1090 359 1090 m 629 1090 q 677 1109 658 1090 q 696 1157 696 1129 q 677 1204 696 1185 q 629 1224 658 1224 q 583 1204 602 1224 q 563 1157 563 1185 q 583 1109 563 1129 q 629 1090 602 1090 z "},"Õ":{"ha":1016,"x_min":57,"x_max":959,"o":"m 509 -16 q 748 45 648 -16 q 904 220 849 107 q 959 489 959 334 l 959 490 q 904 759 959 646 q 748 933 849 871 q 509 995 647 995 q 269 933 370 995 q 112 759 168 871 q 57 490 57 646 l 57 489 q 112 220 57 334 q 268 45 167 107 q 509 -16 370 -16 m 509 96 q 335 144 408 96 q 222 281 262 193 q 182 489 182 369 l 182 490 q 222 699 182 611 q 335 834 262 787 q 509 882 409 882 q 682 834 608 882 q 794 699 755 787 q 834 490 834 610 l 834 489 q 795 281 834 370 q 683 145 755 193 q 509 96 610 96 m 600 1058 q 676 1100 648 1058 q 703 1225 703 1141 l 703 1232 l 623 1232 l 623 1226 q 614 1166 623 1185 q 587 1146 606 1146 q 558 1156 573 1146 q 527 1179 543 1166 l 503 1199 q 464 1224 486 1215 q 416 1234 443 1234 q 339 1192 367 1234 q 312 1067 312 1150 l 312 1059 l 393 1059 l 393 1065 q 401 1126 393 1106 q 428 1145 409 1145 q 456 1136 441 1145 q 486 1112 470 1126 l 509 1093 q 550 1068 527 1078 q 600 1058 572 1058 z "},"Ó":{"ha":1016,"x_min":57,"x_max":959,"o":"m 509 -16 q 748 45 648 -16 q 904 220 849 107 q 959 489 959 334 l 959 490 q 904 759 959 646 q 748 933 849 871 q 509 995 647 995 q 269 933 370 995 q 112 759 168 871 q 57 490 57 646 l 57 489 q 112 220 57 334 q 268 45 167 107 q 509 -16 370 -16 m 509 96 q 335 144 408 96 q 222 281 262 193 q 182 489 182 369 l 182 490 q 222 699 182 611 q 335 834 262 787 q 509 882 409 882 q 682 834 608 882 q 794 699 755 787 q 834 490 834 610 l 834 489 q 795 281 834 370 q 683 145 755 193 q 509 96 610 96 m 542 1057 l 684 1253 l 563 1253 l 452 1057 l 542 1057 z "},"Ô":{"ha":1016,"x_min":57,"x_max":959,"o":"m 509 -16 q 748 45 648 -16 q 904 220 849 107 q 959 489 959 334 l 959 490 q 904 759 959 646 q 748 933 849 871 q 509 995 647 995 q 269 933 370 995 q 112 759 168 871 q 57 490 57 646 l 57 489 q 112 220 57 334 q 268 45 167 107 q 509 -16 370 -16 m 509 96 q 335 144 408 96 q 222 281 262 193 q 182 489 182 369 l 182 490 q 222 699 182 611 q 335 834 262 787 q 509 882 409 882 q 682 834 608 882 q 794 699 755 787 q 834 490 834 610 l 834 489 q 795 281 834 370 q 683 145 755 193 q 509 96 610 96 m 310 1057 l 410 1057 l 515 1205 l 500 1205 l 606 1057 l 706 1057 l 561 1253 l 455 1253 l 310 1057 z "},"Ò":{"ha":1016,"x_min":57,"x_max":959,"o":"m 509 -16 q 748 45 648 -16 q 904 220 849 107 q 959 489 959 334 l 959 490 q 904 759 959 646 q 748 933 849 871 q 509 995 647 995 q 269 933 370 995 q 112 759 168 871 q 57 490 57 646 l 57 489 q 112 220 57 334 q 268 45 167 107 q 509 -16 370 -16 m 509 96 q 335 144 408 96 q 222 281 262 193 q 182 489 182 369 l 182 490 q 222 699 182 611 q 335 834 262 787 q 509 882 409 882 q 682 834 608 882 q 794 699 755 787 q 834 490 834 610 l 834 489 q 795 281 834 370 q 683 145 755 193 q 509 96 610 96 m 478 1057 l 568 1057 l 457 1253 l 336 1253 l 478 1057 z "},"Ổ":{"ha":1016,"x_min":57,"x_max":959,"o":"m 509 -16 q 748 45 648 -16 q 904 220 849 107 q 959 489 959 334 l 959 490 q 904 759 959 646 q 748 933 849 871 q 509 995 647 995 q 269 933 370 995 q 112 759 168 871 q 57 490 57 646 l 57 489 q 112 220 57 334 q 268 45 167 107 q 509 -16 370 -16 m 509 96 q 335 144 408 96 q 222 281 262 193 q 182 489 182 369 l 182 490 q 222 699 182 611 q 335 834 262 787 q 509 882 409 882 q 682 834 608 882 q 794 699 755 787 q 834 490 834 610 l 834 489 q 795 281 834 370 q 683 145 755 193 q 509 96 610 96 z "},"Ồ":{"ha":1016,"x_min":57,"x_max":959,"o":"m 509 -16 q 748 45 648 -16 q 904 220 849 107 q 959 489 959 334 l 959 490 q 904 759 959 646 q 748 933 849 871 q 509 995 647 995 q 269 933 370 995 q 112 759 168 871 q 57 490 57 646 l 57 489 q 112 220 57 334 q 268 45 167 107 q 509 -16 370 -16 m 509 96 q 335 144 408 96 q 222 281 262 193 q 182 489 182 369 l 182 490 q 222 699 182 611 q 335 834 262 787 q 509 882 409 882 q 682 834 608 882 q 794 699 755 787 q 834 490 834 610 l 834 489 q 795 281 834 370 q 683 145 755 193 q 509 96 610 96 z "},"Ọ":{"ha":1016,"x_min":57,"x_max":959,"o":"m 509 -16 q 748 45 648 -16 q 904 220 849 107 q 959 489 959 334 l 959 490 q 904 759 959 646 q 748 933 849 871 q 509 995 647 995 q 269 933 370 995 q 112 759 168 871 q 57 490 57 646 l 57 489 q 112 220 57 334 q 268 45 167 107 q 509 -16 370 -16 m 509 96 q 335 144 408 96 q 222 281 262 193 q 182 489 182 369 l 182 490 q 222 699 182 611 q 335 834 262 787 q 509 882 409 882 q 682 834 608 882 q 794 699 755 787 q 834 490 834 610 l 834 489 q 795 281 834 370 q 683 145 755 193 q 509 96 610 96 m 508 -267 q 561 -245 539 -267 q 582 -193 582 -224 q 561 -141 582 -162 q 508 -119 539 -119 q 456 -141 477 -119 q 434 -193 434 -162 q 456 -245 434 -224 q 508 -267 477 -267 z "},"Ȍ":{"ha":1016,"x_min":57,"x_max":959,"o":"m 509 -16 q 748 45 648 -16 q 904 220 849 107 q 959 489 959 334 l 959 490 q 904 759 959 646 q 748 933 849 871 q 509 995 647 995 q 269 933 370 995 q 112 759 168 871 q 57 490 57 646 l 57 489 q 112 220 57 334 q 268 45 167 107 q 509 -16 370 -16 m 509 96 q 335 144 408 96 q 222 281 262 193 q 182 489 182 369 l 182 490 q 222 699 182 611 q 335 834 262 787 q 509 882 409 882 q 682 834 608 882 q 794 699 755 787 q 834 490 834 610 l 834 489 q 795 281 834 370 q 683 145 755 193 q 509 96 610 96 m 373 1057 l 463 1057 l 338 1253 l 217 1253 l 373 1057 m 583 1057 l 672 1057 l 562 1253 l 440 1253 l 583 1057 z "},"Ṍ":{"ha":1016,"x_min":57,"x_max":959,"o":"m 509 -16 q 748 45 648 -16 q 904 220 849 107 q 959 489 959 334 l 959 490 q 904 759 959 646 q 748 933 849 871 q 509 995 647 995 q 269 933 370 995 q 112 759 168 871 q 57 490 57 646 l 57 489 q 112 220 57 334 q 268 45 167 107 q 509 -16 370 -16 m 509 96 q 335 144 408 96 q 222 281 262 193 q 182 489 182 369 l 182 490 q 222 699 182 611 q 335 834 262 787 q 509 882 409 882 q 682 834 608 882 q 794 699 755 787 q 834 490 834 610 l 834 489 q 795 281 834 370 q 683 145 755 193 q 509 96 610 96 z "},"Ṓ":{"ha":1016,"x_min":57,"x_max":959,"o":"m 509 -16 q 748 45 648 -16 q 904 220 849 107 q 959 489 959 334 l 959 490 q 904 759 959 646 q 748 933 849 871 q 509 995 647 995 q 269 933 370 995 q 112 759 168 871 q 57 490 57 646 l 57 489 q 112 220 57 334 q 268 45 167 107 q 509 -16 370 -16 m 509 96 q 335 144 408 96 q 222 281 262 193 q 182 489 182 369 l 182 490 q 222 699 182 611 q 335 834 262 787 q 509 882 409 882 q 682 834 608 882 q 794 699 755 787 q 834 490 834 610 l 834 489 q 795 281 834 370 q 683 145 755 193 q 509 96 610 96 z "},"Ỗ":{"ha":1016,"x_min":57,"x_max":959,"o":"m 509 -16 q 748 45 648 -16 q 904 220 849 107 q 959 489 959 334 l 959 490 q 904 759 959 646 q 748 933 849 871 q 509 995 647 995 q 269 933 370 995 q 112 759 168 871 q 57 490 57 646 l 57 489 q 112 220 57 334 q 268 45 167 107 q 509 -16 370 -16 m 509 96 q 335 144 408 96 q 222 281 262 193 q 182 489 182 369 l 182 490 q 222 699 182 611 q 335 834 262 787 q 509 882 409 882 q 682 834 608 882 q 794 699 755 787 q 834 490 834 610 l 834 489 q 795 281 834 370 q 683 145 755 193 q 509 96 610 96 z "},"Ȱ":{"ha":1016,"x_min":57,"x_max":959,"o":"m 509 -16 q 748 45 648 -16 q 904 220 849 107 q 959 489 959 334 l 959 490 q 904 759 959 646 q 748 933 849 871 q 509 995 647 995 q 269 933 370 995 q 112 759 168 871 q 57 490 57 646 l 57 489 q 112 220 57 334 q 268 45 167 107 q 509 -16 370 -16 m 509 96 q 335 144 408 96 q 222 281 262 193 q 182 489 182 369 l 182 490 q 222 699 182 611 q 335 834 262 787 q 509 882 409 882 q 682 834 608 882 q 794 699 755 787 q 834 490 834 610 l 834 489 q 795 281 834 370 q 683 145 755 193 q 509 96 610 96 z "},"Ṑ":{"ha":1016,"x_min":57,"x_max":959,"o":"m 509 -16 q 748 45 648 -16 q 904 220 849 107 q 959 489 959 334 l 959 490 q 904 759 959 646 q 748 933 849 871 q 509 995 647 995 q 269 933 370 995 q 112 759 168 871 q 57 490 57 646 l 57 489 q 112 220 57 334 q 268 45 167 107 q 509 -16 370 -16 m 509 96 q 335 144 408 96 q 222 281 262 193 q 182 489 182 369 l 182 490 q 222 699 182 611 q 335 834 262 787 q 509 882 409 882 q 682 834 608 882 q 794 699 755 787 q 834 490 834 610 l 834 489 q 795 281 834 370 q 683 145 755 193 q 509 96 610 96 z "},"Ǒ":{"ha":1016,"x_min":57,"x_max":959,"o":"m 509 -16 q 748 45 648 -16 q 904 220 849 107 q 959 489 959 334 l 959 490 q 904 759 959 646 q 748 933 849 871 q 509 995 647 995 q 269 933 370 995 q 112 759 168 871 q 57 490 57 646 l 57 489 q 112 220 57 334 q 268 45 167 107 q 509 -16 370 -16 m 509 96 q 335 144 408 96 q 222 281 262 193 q 182 489 182 369 l 182 490 q 222 699 182 611 q 335 834 262 787 q 509 882 409 882 q 682 834 608 882 q 794 699 755 787 q 834 490 834 610 l 834 489 q 795 281 834 370 q 683 145 755 193 q 509 96 610 96 m 706 1253 l 606 1253 l 500 1105 l 516 1105 l 410 1253 l 310 1253 l 455 1057 l 561 1057 l 706 1253 z "},"Ő":{"ha":1016,"x_min":57,"x_max":959,"o":"m 509 -16 q 748 45 648 -16 q 904 220 849 107 q 959 489 959 334 l 959 490 q 904 759 959 646 q 748 933 849 871 q 509 995 647 995 q 269 933 370 995 q 112 759 168 871 q 57 490 57 646 l 57 489 q 112 220 57 334 q 268 45 167 107 q 509 -16 370 -16 m 509 96 q 335 144 408 96 q 222 281 262 193 q 182 489 182 369 l 182 490 q 222 699 182 611 q 335 834 262 787 q 509 882 409 882 q 682 834 608 882 q 794 699 755 787 q 834 490 834 610 l 834 489 q 795 281 834 370 q 683 145 755 193 q 509 96 610 96 m 436 1057 l 565 1253 l 444 1253 l 347 1057 l 436 1057 m 646 1057 l 788 1253 l 667 1253 l 556 1057 l 646 1057 z "},"Ŏ":{"ha":1016,"x_min":57,"x_max":959,"o":"m 509 -16 q 748 45 648 -16 q 904 220 849 107 q 959 489 959 334 l 959 490 q 904 759 959 646 q 748 933 849 871 q 509 995 647 995 q 269 933 370 995 q 112 759 168 871 q 57 490 57 646 l 57 489 q 112 220 57 334 q 268 45 167 107 q 509 -16 370 -16 m 509 96 q 335 144 408 96 q 222 281 262 193 q 182 489 182 369 l 182 490 q 222 699 182 611 q 335 834 262 787 q 509 882 409 882 q 682 834 608 882 q 794 699 755 787 q 834 490 834 610 l 834 489 q 795 281 834 370 q 683 145 755 193 q 509 96 610 96 m 509 1055 q 607 1079 566 1055 q 672 1145 649 1103 q 694 1242 694 1187 l 694 1248 l 610 1248 l 610 1244 q 583 1168 610 1201 q 509 1136 556 1136 q 434 1168 461 1136 q 407 1244 407 1201 l 407 1248 l 322 1248 l 322 1242 q 345 1145 322 1187 q 410 1079 368 1103 q 509 1055 452 1055 z "},"Ȏ":{"ha":1016,"x_min":57,"x_max":959,"o":"m 509 -16 q 748 45 648 -16 q 904 220 849 107 q 959 489 959 334 l 959 490 q 904 759 959 646 q 748 933 849 871 q 509 995 647 995 q 269 933 370 995 q 112 759 168 871 q 57 490 57 646 l 57 489 q 112 220 57 334 q 268 45 167 107 q 509 -16 370 -16 m 509 96 q 335 144 408 96 q 222 281 262 193 q 182 489 182 369 l 182 490 q 222 699 182 611 q 335 834 262 787 q 509 882 409 882 q 682 834 608 882 q 794 699 755 787 q 834 490 834 610 l 834 489 q 795 281 834 370 q 683 145 755 193 q 509 96 610 96 m 508 1248 q 409 1224 451 1248 q 345 1158 368 1200 q 322 1061 322 1116 l 322 1055 l 407 1055 l 407 1059 q 434 1135 407 1103 q 508 1167 460 1167 q 583 1135 556 1167 q 610 1059 610 1103 l 610 1055 l 694 1055 l 694 1061 q 672 1158 694 1116 q 607 1224 649 1200 q 508 1248 566 1248 z "},"Ỏ":{"ha":1016,"x_min":57,"x_max":959,"o":"m 509 -16 q 748 45 648 -16 q 904 220 849 107 q 959 489 959 334 l 959 490 q 904 759 959 646 q 748 933 849 871 q 509 995 647 995 q 269 933 370 995 q 112 759 168 871 q 57 490 57 646 l 57 489 q 112 220 57 334 q 268 45 167 107 q 509 -16 370 -16 m 509 96 q 335 144 408 96 q 222 281 262 193 q 182 489 182 369 l 182 490 q 222 699 182 611 q 335 834 262 787 q 509 882 409 882 q 682 834 608 882 q 794 699 755 787 q 834 490 834 610 l 834 489 q 795 281 834 370 q 683 145 755 193 q 509 96 610 96 m 456 1057 l 541 1057 q 591 1105 575 1080 q 608 1160 608 1131 q 566 1235 608 1207 q 471 1263 525 1263 q 429 1260 448 1263 q 398 1252 410 1257 l 398 1183 q 415 1185 405 1184 q 439 1186 425 1186 q 496 1174 473 1186 q 519 1140 519 1162 q 503 1102 519 1122 q 456 1059 487 1082 l 456 1057 z "},"Ȫ":{"ha":1016,"x_min":57,"x_max":959,"o":"m 509 -16 q 748 45 648 -16 q 904 220 849 107 q 959 489 959 334 l 959 490 q 904 759 959 646 q 748 933 849 871 q 509 995 647 995 q 269 933 370 995 q 112 759 168 871 q 57 490 57 646 l 57 489 q 112 220 57 334 q 268 45 167 107 q 509 -16 370 -16 m 509 96 q 335 144 408 96 q 222 281 262 193 q 182 489 182 369 l 182 490 q 222 699 182 611 q 335 834 262 787 q 509 882 409 882 q 682 834 608 882 q 794 699 755 787 q 834 490 834 610 l 834 489 q 795 281 834 370 q 683 145 755 193 q 509 96 610 96 z "},"Ȭ":{"ha":1016,"x_min":57,"x_max":959,"o":"m 509 -16 q 748 45 648 -16 q 904 220 849 107 q 959 489 959 334 l 959 490 q 904 759 959 646 q 748 933 849 871 q 509 995 647 995 q 269 933 370 995 q 112 759 168 871 q 57 490 57 646 l 57 489 q 112 220 57 334 q 268 45 167 107 q 509 -16 370 -16 m 509 96 q 335 144 408 96 q 222 281 262 193 q 182 489 182 369 l 182 490 q 222 699 182 611 q 335 834 262 787 q 509 882 409 882 q 682 834 608 882 q 794 699 755 787 q 834 490 834 610 l 834 489 q 795 281 834 370 q 683 145 755 193 q 509 96 610 96 z "},"Ȯ":{"ha":1016,"x_min":57,"x_max":959,"o":"m 509 -16 q 748 45 648 -16 q 904 220 849 107 q 959 489 959 334 l 959 490 q 904 759 959 646 q 748 933 849 871 q 509 995 647 995 q 269 933 370 995 q 112 759 168 871 q 57 490 57 646 l 57 489 q 112 220 57 334 q 268 45 167 107 q 509 -16 370 -16 m 509 96 q 335 144 408 96 q 222 281 262 193 q 182 489 182 369 l 182 490 q 222 699 182 611 q 335 834 262 787 q 509 882 409 882 q 682 834 608 882 q 794 699 755 787 q 834 490 834 610 l 834 489 q 795 281 834 370 q 683 145 755 193 q 509 96 610 96 m 507 1092 q 557 1113 537 1092 q 578 1162 578 1133 q 557 1212 578 1192 q 507 1232 537 1232 q 458 1212 479 1232 q 437 1162 437 1192 q 458 1113 437 1133 q 507 1092 479 1092 z "},"Ộ":{"ha":1016,"x_min":57,"x_max":959,"o":"m 509 -16 q 748 45 648 -16 q 904 220 849 107 q 959 489 959 334 l 959 490 q 904 759 959 646 q 748 933 849 871 q 509 995 647 995 q 269 933 370 995 q 112 759 168 871 q 57 490 57 646 l 57 489 q 112 220 57 334 q 268 45 167 107 q 509 -16 370 -16 m 509 96 q 335 144 408 96 q 222 281 262 193 q 182 489 182 369 l 182 490 q 222 699 182 611 q 335 834 262 787 q 509 882 409 882 q 682 834 608 882 q 794 699 755 787 q 834 490 834 610 l 834 489 q 795 281 834 370 q 683 145 755 193 q 509 96 610 96 m 310 1057 l 410 1057 l 515 1205 l 500 1205 l 606 1057 l 706 1057 l 561 1253 l 455 1253 l 310 1057 m 508 -267 q 561 -245 539 -267 q 582 -193 582 -224 q 561 -141 582 -162 q 508 -119 539 -119 q 456 -141 477 -119 q 434 -193 434 -162 q 456 -245 434 -224 q 508 -267 477 -267 z "},"Ố":{"ha":1016,"x_min":57,"x_max":959,"o":"m 509 -16 q 748 45 648 -16 q 904 220 849 107 q 959 489 959 334 l 959 490 q 904 759 959 646 q 748 933 849 871 q 509 995 647 995 q 269 933 370 995 q 112 759 168 871 q 57 490 57 646 l 57 489 q 112 220 57 334 q 268 45 167 107 q 509 -16 370 -16 m 509 96 q 335 144 408 96 q 222 281 262 193 q 182 489 182 369 l 182 490 q 222 699 182 611 q 335 834 262 787 q 509 882 409 882 q 682 834 608 882 q 794 699 755 787 q 834 490 834 610 l 834 489 q 795 281 834 370 q 683 145 755 193 q 509 96 610 96 z "},"Ṏ":{"ha":1016,"x_min":57,"x_max":959,"o":"m 509 -16 q 748 45 648 -16 q 904 220 849 107 q 959 489 959 334 l 959 490 q 904 759 959 646 q 748 933 849 871 q 509 995 647 995 q 269 933 370 995 q 112 759 168 871 q 57 490 57 646 l 57 489 q 112 220 57 334 q 268 45 167 107 q 509 -16 370 -16 m 509 96 q 335 144 408 96 q 222 281 262 193 q 182 489 182 369 l 182 490 q 222 699 182 611 q 335 834 262 787 q 509 882 409 882 q 682 834 608 882 q 794 699 755 787 q 834 490 834 610 l 834 489 q 795 281 834 370 q 683 145 755 193 q 509 96 610 96 z "},"Ō":{"ha":1016,"x_min":57,"x_max":959,"o":"m 509 -16 q 748 45 648 -16 q 904 220 849 107 q 959 489 959 334 l 959 490 q 904 759 959 646 q 748 933 849 871 q 509 995 647 995 q 269 933 370 995 q 112 759 168 871 q 57 490 57 646 l 57 489 q 112 220 57 334 q 268 45 167 107 q 509 -16 370 -16 m 509 96 q 335 144 408 96 q 222 281 262 193 q 182 489 182 369 l 182 490 q 222 699 182 611 q 335 834 262 787 q 509 882 409 882 q 682 834 608 882 q 794 699 755 787 q 834 490 834 610 l 834 489 q 795 281 834 370 q 683 145 755 193 q 509 96 610 96 m 328 1114 l 688 1114 l 688 1200 l 328 1200 l 328 1114 z "},"Ǫ":{"ha":1016,"x_min":57,"x_max":959,"o":"m 509 -16 q 748 45 648 -16 q 904 220 849 107 q 959 489 959 334 l 959 490 q 904 759 959 646 q 748 933 849 871 q 509 995 647 995 q 269 933 370 995 q 112 759 168 871 q 57 490 57 646 l 57 489 q 112 220 57 334 q 268 45 167 107 q 509 -16 370 -16 m 509 96 q 335 144 408 96 q 222 281 262 193 q 182 489 182 369 l 182 490 q 222 699 182 611 q 335 834 262 787 q 509 882 409 882 q 682 834 608 882 q 794 699 755 787 q 834 490 834 610 l 834 489 q 795 281 834 370 q 683 145 755 193 q 509 96 610 96 m 564 -320 q 598 -317 578 -320 q 631 -309 618 -315 l 631 -230 q 589 -237 615 -237 q 539 -217 559 -237 q 518 -153 518 -196 l 518 -151 q 545 -62 518 -103 q 623 14 572 -22 l 548 14 l 548 14 l 522 14 q 439 -72 470 -21 q 408 -177 408 -123 l 408 -178 q 430 -257 408 -225 q 487 -304 451 -288 q 564 -320 522 -320 z "},"Ǭ":{"ha":1016,"x_min":57,"x_max":959,"o":"m 509 -16 q 748 45 648 -16 q 904 220 849 107 q 959 489 959 334 l 959 490 q 904 759 959 646 q 748 933 849 871 q 509 995 647 995 q 269 933 370 995 q 112 759 168 871 q 57 490 57 646 l 57 489 q 112 220 57 334 q 268 45 167 107 q 509 -16 370 -16 m 509 96 q 335 144 408 96 q 222 281 262 193 q 182 489 182 369 l 182 490 q 222 699 182 611 q 335 834 262 787 q 509 882 409 882 q 682 834 608 882 q 794 699 755 787 q 834 490 834 610 l 834 489 q 795 281 834 370 q 683 145 755 193 q 509 96 610 96 m 564 -320 q 598 -317 578 -320 q 631 -309 618 -315 l 631 -230 q 589 -237 615 -237 q 539 -217 559 -237 q 518 -153 518 -196 l 518 -151 q 545 -62 518 -103 q 623 14 572 -22 l 548 14 l 548 14 l 522 14 q 439 -72 470 -21 q 408 -177 408 -123 l 408 -178 q 430 -257 408 -225 q 487 -304 451 -288 q 564 -320 522 -320 m 328 1114 l 688 1114 l 688 1200 l 328 1200 l 328 1114 z "},"Ơ":{"ha":1016,"x_min":57,"x_max":959,"o":"m 509 -16 q 748 45 648 -16 q 904 220 849 107 q 959 489 959 334 l 959 490 q 904 759 959 646 q 748 933 849 871 q 509 995 647 995 q 269 933 370 995 q 112 759 168 871 q 57 490 57 646 l 57 489 q 112 220 57 334 q 268 45 167 107 q 509 -16 370 -16 m 509 96 q 335 144 408 96 q 222 281 262 193 q 182 489 182 369 l 182 490 q 222 699 182 611 q 335 834 262 787 q 509 882 409 882 q 682 834 608 882 q 794 699 755 787 q 834 490 834 610 l 834 489 q 795 281 834 370 q 683 145 755 193 q 509 96 610 96 m 576 935 q 733 954 671 939 q 831 997 795 969 q 881 1068 866 1025 q 898 1171 896 1111 l 793 1171 q 777 1090 791 1123 q 730 1037 762 1057 q 644 1007 699 1017 q 508 995 590 997 l 508 930 l 576 935 z "},"Ợ":{"ha":1016,"x_min":57,"x_max":959,"o":"m 509 -16 q 748 45 648 -16 q 904 220 849 107 q 959 489 959 334 l 959 490 q 904 759 959 646 q 748 933 849 871 q 509 995 647 995 q 269 933 370 995 q 112 759 168 871 q 57 490 57 646 l 57 489 q 112 220 57 334 q 268 45 167 107 q 509 -16 370 -16 m 509 96 q 335 144 408 96 q 222 281 262 193 q 182 489 182 369 l 182 490 q 222 699 182 611 q 335 834 262 787 q 509 882 409 882 q 682 834 608 882 q 794 699 755 787 q 834 490 834 610 l 834 489 q 795 281 834 370 q 683 145 755 193 q 509 96 610 96 m 576 935 q 733 954 671 939 q 831 997 795 969 q 881 1068 866 1025 q 898 1171 896 1111 l 793 1171 q 777 1090 791 1123 q 730 1037 762 1057 q 644 1007 699 1017 q 508 995 590 997 l 508 930 l 576 935 m 508 -267 q 561 -245 539 -267 q 582 -193 582 -224 q 561 -141 582 -162 q 508 -119 539 -119 q 456 -141 477 -119 q 434 -193 434 -162 q 456 -245 434 -224 q 508 -267 477 -267 z "},"Ở":{"ha":1016,"x_min":57,"x_max":959,"o":"m 509 -16 q 748 45 648 -16 q 904 220 849 107 q 959 489 959 334 l 959 490 q 904 759 959 646 q 748 933 849 871 q 509 995 647 995 q 269 933 370 995 q 112 759 168 871 q 57 490 57 646 l 57 489 q 112 220 57 334 q 268 45 167 107 q 509 -16 370 -16 m 509 96 q 335 144 408 96 q 222 281 262 193 q 182 489 182 369 l 182 490 q 222 699 182 611 q 335 834 262 787 q 509 882 409 882 q 682 834 608 882 q 794 699 755 787 q 834 490 834 610 l 834 489 q 795 281 834 370 q 683 145 755 193 q 509 96 610 96 m 576 935 q 733 954 671 939 q 831 997 795 969 q 881 1068 866 1025 q 898 1171 896 1111 l 793 1171 q 777 1090 791 1123 q 730 1037 762 1057 q 644 1007 699 1017 q 508 995 590 997 l 508 930 l 576 935 m 422 1057 l 507 1057 q 557 1105 541 1080 q 574 1160 574 1131 q 532 1235 574 1207 q 437 1263 491 1263 q 395 1260 414 1263 q 364 1252 376 1257 l 364 1183 q 381 1185 371 1184 q 406 1186 391 1186 q 463 1174 439 1186 q 486 1140 486 1162 q 469 1102 486 1122 q 422 1059 453 1082 l 422 1057 z "},"Ỡ":{"ha":1016,"x_min":57,"x_max":959,"o":"m 509 -16 q 748 45 648 -16 q 904 220 849 107 q 959 489 959 334 l 959 490 q 904 759 959 646 q 748 933 849 871 q 509 995 647 995 q 269 933 370 995 q 112 759 168 871 q 57 490 57 646 l 57 489 q 112 220 57 334 q 268 45 167 107 q 509 -16 370 -16 m 509 96 q 335 144 408 96 q 222 281 262 193 q 182 489 182 369 l 182 490 q 222 699 182 611 q 335 834 262 787 q 509 882 409 882 q 682 834 608 882 q 794 699 755 787 q 834 490 834 610 l 834 489 q 795 281 834 370 q 683 145 755 193 q 509 96 610 96 m 580 935 q 758 951 688 937 q 867 994 828 965 q 924 1066 907 1022 q 943 1171 941 1109 l 838 1171 q 819 1088 836 1122 q 764 1034 802 1055 q 665 1004 727 1013 q 508 995 602 995 l 508 933 l 580 935 m 557 1058 q 627 1100 602 1058 q 652 1225 652 1141 l 652 1232 l 578 1232 l 578 1226 q 570 1166 578 1185 q 546 1146 563 1146 q 520 1156 533 1146 q 492 1179 507 1166 l 470 1199 q 434 1224 454 1215 q 391 1234 415 1234 q 321 1192 347 1234 q 296 1067 296 1150 l 296 1059 l 370 1059 l 370 1065 q 378 1126 370 1106 q 402 1145 385 1145 q 428 1136 415 1145 q 454 1112 440 1126 l 476 1093 q 512 1068 492 1078 q 557 1058 532 1058 z "},"Ờ":{"ha":1016,"x_min":57,"x_max":959,"o":"m 509 -16 q 748 45 648 -16 q 904 220 849 107 q 959 489 959 334 l 959 490 q 904 759 959 646 q 748 933 849 871 q 509 995 647 995 q 269 933 370 995 q 112 759 168 871 q 57 490 57 646 l 57 489 q 112 220 57 334 q 268 45 167 107 q 509 -16 370 -16 m 509 96 q 335 144 408 96 q 222 281 262 193 q 182 489 182 369 l 182 490 q 222 699 182 611 q 335 834 262 787 q 509 882 409 882 q 682 834 608 882 q 794 699 755 787 q 834 490 834 610 l 834 489 q 795 281 834 370 q 683 145 755 193 q 509 96 610 96 m 576 935 q 733 954 671 939 q 831 997 795 969 q 881 1068 866 1025 q 898 1171 896 1111 l 793 1171 q 777 1090 791 1123 q 730 1037 762 1057 q 644 1007 699 1017 q 508 995 590 997 l 508 930 l 576 935 m 478 1057 l 568 1057 l 457 1253 l 336 1253 l 478 1057 z "},"Ớ":{"ha":1016,"x_min":57,"x_max":959,"o":"m 509 -16 q 748 45 648 -16 q 904 220 849 107 q 959 489 959 334 l 959 490 q 904 759 959 646 q 748 933 849 871 q 509 995 647 995 q 269 933 370 995 q 112 759 168 871 q 57 490 57 646 l 57 489 q 112 220 57 334 q 268 45 167 107 q 509 -16 370 -16 m 509 96 q 335 144 408 96 q 222 281 262 193 q 182 489 182 369 l 182 490 q 222 699 182 611 q 335 834 262 787 q 509 882 409 882 q 682 834 608 882 q 794 699 755 787 q 834 490 834 610 l 834 489 q 795 281 834 370 q 683 145 755 193 q 509 96 610 96 m 576 935 q 733 954 671 939 q 831 997 795 969 q 881 1068 866 1025 q 898 1171 896 1111 l 793 1171 q 777 1090 791 1123 q 730 1037 762 1057 q 644 1007 699 1017 q 508 995 590 997 l 508 930 l 576 935 m 508 1057 l 650 1253 l 529 1253 l 418 1057 l 508 1057 z "},"Ø":{"ha":1013,"x_min":53,"x_max":959,"o":"m 507 -16 q 745 45 645 -16 q 900 220 846 107 q 955 489 955 334 l 955 490 q 900 759 955 646 q 745 933 846 871 q 507 995 644 995 q 268 933 369 995 q 112 759 167 871 q 57 490 57 646 l 57 489 q 112 220 57 334 q 268 45 167 107 q 507 -16 368 -16 m 507 94 q 330 142 405 94 q 215 279 256 191 q 174 489 174 368 l 174 490 q 215 700 174 612 q 330 836 256 788 q 507 884 405 884 q 683 836 608 884 q 797 700 757 788 q 838 490 838 611 l 838 489 q 798 280 838 369 q 683 143 758 192 q 507 94 609 94 m 888 1013 l 53 25 l 123 -35 l 959 954 l 888 1013 z "},"Ǿ":{"ha":1013,"x_min":53,"x_max":959,"o":"m 507 -16 q 745 45 645 -16 q 900 220 846 107 q 955 489 955 334 l 955 490 q 900 759 955 646 q 745 933 846 871 q 507 995 644 995 q 268 933 369 995 q 112 759 167 871 q 57 490 57 646 l 57 489 q 112 220 57 334 q 268 45 167 107 q 507 -16 368 -16 m 507 94 q 330 142 405 94 q 215 279 256 191 q 174 489 174 368 l 174 490 q 215 700 174 612 q 330 836 256 788 q 507 884 405 884 q 683 836 608 884 q 797 700 757 788 q 838 490 838 611 l 838 489 q 798 280 838 369 q 683 143 758 192 q 507 94 609 94 m 888 1013 l 53 25 l 123 -35 l 959 954 l 888 1013 m 540 1057 l 682 1253 l 561 1253 l 450 1057 l 540 1057 z "},"Ɵ":{"ha":1016,"x_min":57,"x_max":959,"o":"m 509 -16 q 748 45 648 -16 q 904 220 849 107 q 959 489 959 334 l 959 490 q 904 759 959 646 q 748 933 849 871 q 509 995 647 995 q 269 933 370 995 q 112 759 168 871 q 57 490 57 646 l 57 489 q 112 220 57 334 q 268 45 167 107 q 509 -16 370 -16 m 509 96 q 335 144 408 96 q 222 281 262 193 q 182 489 182 369 l 182 490 q 222 699 182 611 q 335 834 262 787 q 509 882 409 882 q 682 834 608 882 q 794 699 755 787 q 834 490 834 610 l 834 489 q 795 281 834 370 q 683 145 755 193 q 509 96 610 96 m 118 448 l 898 448 l 898 550 l 118 550 l 118 448 z "},"P":{"ha":802,"x_min":95,"x_max":758,"o":"m 156 349 l 444 349 q 606 389 536 349 q 717 500 677 429 q 758 665 758 572 l 758 666 q 717 829 758 759 q 606 939 677 900 q 444 979 536 979 l 156 979 l 156 870 l 412 870 q 575 816 517 870 q 633 665 633 762 l 633 663 q 575 512 633 567 q 412 458 517 458 l 156 458 l 156 349 m 95 0 l 217 0 l 217 979 l 95 979 l 95 0 z "},"Ṗ":{"ha":802,"x_min":95,"x_max":758,"o":"m 156 349 l 444 349 q 606 389 536 349 q 717 500 677 429 q 758 665 758 572 l 758 666 q 717 829 758 759 q 606 939 677 900 q 444 979 536 979 l 156 979 l 156 870 l 412 870 q 575 816 517 870 q 633 665 633 762 l 633 663 q 575 512 633 567 q 412 458 517 458 l 156 458 l 156 349 m 95 0 l 217 0 l 217 979 l 95 979 l 95 0 m 342 1092 q 392 1113 372 1092 q 412 1162 412 1133 q 392 1212 412 1192 q 342 1232 372 1232 q 293 1212 313 1232 q 272 1162 272 1192 q 293 1113 272 1133 q 342 1092 313 1092 z "},"Ṕ":{"ha":802,"x_min":95,"x_max":758,"o":"m 156 349 l 444 349 q 606 389 536 349 q 717 500 677 429 q 758 665 758 572 l 758 666 q 717 829 758 759 q 606 939 677 900 q 444 979 536 979 l 156 979 l 156 870 l 412 870 q 575 816 517 870 q 633 665 633 762 l 633 663 q 575 512 633 567 q 412 458 517 458 l 156 458 l 156 349 m 95 0 l 217 0 l 217 979 l 95 979 l 95 0 m 376 1057 l 519 1253 l 397 1253 l 287 1057 l 376 1057 z "},"Q":{"ha":1016,"x_min":57,"x_max":959,"o":"m 509 -16 q 748 45 648 -16 q 904 220 849 107 q 959 489 959 334 l 959 490 q 904 759 959 646 q 748 933 849 871 q 509 995 647 995 q 269 933 370 995 q 112 759 168 871 q 57 490 57 646 l 57 489 q 112 220 57 334 q 268 45 167 107 q 509 -16 370 -16 m 509 96 q 335 144 408 96 q 222 281 262 193 q 182 489 182 369 l 182 490 q 222 699 182 611 q 336 834 262 787 q 509 882 409 882 q 681 834 608 882 q 794 699 754 787 q 833 490 833 610 l 833 489 q 794 281 833 370 q 682 145 755 193 q 509 96 610 96 m 774 -111 l 911 -111 l 627 280 l 490 280 l 774 -111 z "},"R":{"ha":832,"x_min":95,"x_max":804,"o":"m 95 0 l 217 0 l 217 387 l 444 387 q 447 387 446 387 q 451 387 449 387 l 661 0 l 804 0 l 577 406 q 721 510 669 435 q 774 686 774 584 l 774 687 q 735 841 774 775 q 626 942 696 906 q 462 979 556 979 l 95 979 l 95 0 m 217 495 l 217 870 l 446 870 q 594 821 540 870 q 648 684 648 772 l 648 683 q 596 544 648 593 q 451 495 545 495 l 217 495 z "},"Ř":{"ha":832,"x_min":95,"x_max":804,"o":"m 95 0 l 217 0 l 217 387 l 444 387 q 447 387 446 387 q 451 387 449 387 l 661 0 l 804 0 l 577 406 q 721 510 669 435 q 774 686 774 584 l 774 687 q 735 841 774 775 q 626 942 696 906 q 462 979 556 979 l 95 979 l 95 0 m 217 495 l 217 870 l 446 870 q 594 821 540 870 q 648 684 648 772 l 648 683 q 596 544 648 593 q 451 495 545 495 l 217 495 m 604 1253 l 504 1253 l 398 1105 l 414 1105 l 307 1253 l 208 1253 l 353 1057 l 458 1057 l 604 1253 z "},"Ṟ":{"ha":832,"x_min":95,"x_max":804,"o":"m 95 0 l 217 0 l 217 387 l 444 387 q 447 387 446 387 q 451 387 449 387 l 661 0 l 804 0 l 577 406 q 721 510 669 435 q 774 686 774 584 l 774 687 q 735 841 774 775 q 626 942 696 906 q 462 979 556 979 l 95 979 l 95 0 m 217 495 l 217 870 l 446 870 q 594 821 540 870 q 648 684 648 772 l 648 683 q 596 544 648 593 q 451 495 545 495 l 217 495 m 237 -228 l 612 -228 l 612 -142 l 237 -142 l 237 -228 z "},"Ṝ":{"ha":832,"x_min":95,"x_max":804,"o":"m 95 0 l 217 0 l 217 387 l 444 387 q 447 387 446 387 q 451 387 449 387 l 661 0 l 804 0 l 577 406 q 721 510 669 435 q 774 686 774 584 l 774 687 q 735 841 774 775 q 626 942 696 906 q 462 979 556 979 l 95 979 l 95 0 m 217 495 l 217 870 l 446 870 q 594 821 540 870 q 648 684 648 772 l 648 683 q 596 544 648 593 q 451 495 545 495 l 217 495 m 425 -267 q 477 -245 456 -267 q 498 -193 498 -224 q 477 -141 498 -162 q 425 -119 456 -119 q 372 -141 394 -119 q 351 -193 351 -162 q 372 -245 351 -224 q 425 -267 394 -267 m 225 1114 l 585 1114 l 585 1200 l 225 1200 l 225 1114 z "},"Ȑ":{"ha":832,"x_min":95,"x_max":804,"o":"m 95 0 l 217 0 l 217 387 l 444 387 q 447 387 446 387 q 451 387 449 387 l 661 0 l 804 0 l 577 406 q 721 510 669 435 q 774 686 774 584 l 774 687 q 735 841 774 775 q 626 942 696 906 q 462 979 556 979 l 95 979 l 95 0 m 217 495 l 217 870 l 446 870 q 594 821 540 870 q 648 684 648 772 l 648 683 q 596 544 648 593 q 451 495 545 495 l 217 495 m 271 1057 l 360 1057 l 236 1253 l 115 1253 l 271 1057 m 480 1057 l 570 1057 l 459 1253 l 338 1253 l 480 1057 z "},"Ȓ":{"ha":832,"x_min":95,"x_max":804,"o":"m 95 0 l 217 0 l 217 387 l 444 387 q 447 387 446 387 q 451 387 449 387 l 661 0 l 804 0 l 577 406 q 721 510 669 435 q 774 686 774 584 l 774 687 q 735 841 774 775 q 626 942 696 906 q 462 979 556 979 l 95 979 l 95 0 m 217 495 l 217 870 l 446 870 q 594 821 540 870 q 648 684 648 772 l 648 683 q 596 544 648 593 q 451 495 545 495 l 217 495 m 406 1248 q 307 1224 349 1248 q 242 1158 265 1200 q 220 1061 220 1116 l 220 1055 l 304 1055 l 304 1059 q 331 1135 304 1103 q 406 1167 358 1167 q 480 1135 454 1167 q 507 1059 507 1103 l 507 1055 l 592 1055 l 592 1061 q 569 1158 592 1116 q 505 1224 547 1200 q 406 1248 463 1248 z "},"Ŕ":{"ha":832,"x_min":95,"x_max":804,"o":"m 95 0 l 217 0 l 217 387 l 444 387 q 447 387 446 387 q 451 387 449 387 l 661 0 l 804 0 l 577 406 q 721 510 669 435 q 774 686 774 584 l 774 687 q 735 841 774 775 q 626 942 696 906 q 462 979 556 979 l 95 979 l 95 0 m 217 495 l 217 870 l 446 870 q 594 821 540 870 q 648 684 648 772 l 648 683 q 596 544 648 593 q 451 495 545 495 l 217 495 m 439 1057 l 582 1253 l 460 1253 l 350 1057 l 439 1057 z "},"Ṛ":{"ha":832,"x_min":95,"x_max":804,"o":"m 95 0 l 217 0 l 217 387 l 444 387 q 447 387 446 387 q 451 387 449 387 l 661 0 l 804 0 l 577 406 q 721 510 669 435 q 774 686 774 584 l 774 687 q 735 841 774 775 q 626 942 696 906 q 462 979 556 979 l 95 979 l 95 0 m 217 495 l 217 870 l 446 870 q 594 821 540 870 q 648 684 648 772 l 648 683 q 596 544 648 593 q 451 495 545 495 l 217 495 m 425 -267 q 477 -245 456 -267 q 498 -193 498 -224 q 477 -141 498 -162 q 425 -119 456 -119 q 372 -141 394 -119 q 351 -193 351 -162 q 372 -245 351 -224 q 425 -267 394 -267 z "},"Ṙ":{"ha":832,"x_min":95,"x_max":804,"o":"m 95 0 l 217 0 l 217 387 l 444 387 q 447 387 446 387 q 451 387 449 387 l 661 0 l 804 0 l 577 406 q 721 510 669 435 q 774 686 774 584 l 774 687 q 735 841 774 775 q 626 942 696 906 q 462 979 556 979 l 95 979 l 95 0 m 217 495 l 217 870 l 446 870 q 594 821 540 870 q 648 684 648 772 l 648 683 q 596 544 648 593 q 451 495 545 495 l 217 495 m 405 1092 q 455 1113 435 1092 q 475 1162 475 1133 q 455 1212 475 1192 q 405 1232 435 1232 q 356 1212 376 1232 q 335 1162 335 1192 q 356 1113 335 1133 q 405 1092 376 1092 z "},"Ŗ":{"ha":832,"x_min":95,"x_max":804,"o":"m 95 0 l 217 0 l 217 387 l 444 387 q 447 387 446 387 q 451 387 449 387 l 661 0 l 804 0 l 577 406 q 721 510 669 435 q 774 686 774 584 l 774 687 q 735 841 774 775 q 626 942 696 906 q 462 979 556 979 l 95 979 l 95 0 m 217 495 l 217 870 l 446 870 q 594 821 540 870 q 648 684 648 772 l 648 683 q 596 544 648 593 q 451 495 545 495 l 217 495 m 304 -309 l 380 -309 l 479 -81 l 366 -81 l 304 -309 z "},"S":{"ha":824,"x_min":47,"x_max":777,"o":"m 415 -16 q 608 18 527 -16 q 733 117 689 53 q 777 267 777 180 l 777 268 q 709 445 777 380 q 492 543 642 509 l 383 566 q 242 626 288 587 q 197 724 197 665 l 197 725 q 223 808 197 772 q 299 863 250 843 q 413 882 348 882 q 523 863 475 882 q 599 809 570 844 q 635 724 628 774 l 637 714 l 759 714 l 758 724 q 708 865 753 804 q 587 961 663 926 q 416 995 512 995 q 238 960 316 995 q 117 864 161 925 q 72 722 73 802 l 72 721 q 141 548 72 614 q 353 450 210 481 l 461 426 q 607 365 562 404 q 652 262 652 326 l 652 261 q 624 174 652 211 q 544 116 595 136 q 422 96 492 96 q 297 116 351 96 q 211 171 243 135 q 171 255 178 206 l 170 264 l 47 264 l 48 255 q 101 111 54 172 q 229 17 149 50 q 415 -16 309 -16 z "},"Š":{"ha":824,"x_min":47,"x_max":777,"o":"m 415 -16 q 608 18 527 -16 q 733 117 689 53 q 777 267 777 180 l 777 268 q 709 445 777 380 q 492 543 642 509 l 383 566 q 242 626 288 587 q 197 724 197 665 l 197 725 q 223 808 197 772 q 299 863 250 843 q 413 882 348 882 q 523 863 475 882 q 599 809 570 844 q 635 724 628 774 l 637 714 l 759 714 l 758 724 q 708 865 753 804 q 587 961 663 926 q 416 995 512 995 q 238 960 316 995 q 117 864 161 925 q 72 722 73 802 l 72 721 q 141 548 72 614 q 353 450 210 481 l 461 426 q 607 365 562 404 q 652 262 652 326 l 652 261 q 624 174 652 211 q 544 116 595 136 q 422 96 492 96 q 297 116 351 96 q 211 171 243 135 q 171 255 178 206 l 170 264 l 47 264 l 48 255 q 101 111 54 172 q 229 17 149 50 q 415 -16 309 -16 m 616 1253 l 516 1253 l 410 1105 l 426 1105 l 319 1253 l 220 1253 l 365 1057 l 471 1057 l 616 1253 z "},"Ş":{"ha":824,"x_min":47,"x_max":777,"o":"m 415 -16 q 608 18 527 -16 q 733 117 689 53 q 777 267 777 180 l 777 268 q 709 445 777 380 q 492 543 642 509 l 383 566 q 242 626 288 587 q 197 724 197 665 l 197 725 q 223 808 197 772 q 299 863 250 843 q 413 882 348 882 q 523 863 475 882 q 599 809 570 844 q 635 724 628 774 l 637 714 l 759 714 l 758 724 q 708 865 753 804 q 587 961 663 926 q 416 995 512 995 q 238 960 316 995 q 117 864 161 925 q 72 722 73 802 l 72 721 q 141 548 72 614 q 353 450 210 481 l 461 426 q 607 365 562 404 q 652 262 652 326 l 652 261 q 624 174 652 211 q 544 116 595 136 q 422 96 492 96 q 297 116 351 96 q 211 171 243 135 q 171 255 178 206 l 170 264 l 47 264 l 48 255 q 101 111 54 172 q 229 17 149 50 q 415 -16 309 -16 m 411 -309 q 481 -295 448 -309 q 534 -253 514 -280 q 555 -185 555 -225 l 555 -184 q 521 -97 555 -126 q 433 -64 487 -68 l 476 0 l 476 14 l 401 14 l 340 -78 l 340 -138 l 372 -138 q 431 -150 410 -138 q 452 -186 452 -161 l 452 -188 q 431 -220 452 -211 q 383 -229 410 -229 q 341 -225 361 -229 q 309 -217 321 -222 l 309 -292 q 352 -304 325 -299 q 411 -309 379 -309 z "},"Ṡ":{"ha":824,"x_min":47,"x_max":777,"o":"m 415 -16 q 608 18 527 -16 q 733 117 689 53 q 777 267 777 180 l 777 268 q 709 445 777 380 q 492 543 642 509 l 383 566 q 242 626 288 587 q 197 724 197 665 l 197 725 q 223 808 197 772 q 299 863 250 843 q 413 882 348 882 q 523 863 475 882 q 599 809 570 844 q 635 724 628 774 l 637 714 l 759 714 l 758 724 q 708 865 753 804 q 587 961 663 926 q 416 995 512 995 q 238 960 316 995 q 117 864 161 925 q 72 722 73 802 l 72 721 q 141 548 72 614 q 353 450 210 481 l 461 426 q 607 365 562 404 q 652 262 652 326 l 652 261 q 624 174 652 211 q 544 116 595 136 q 422 96 492 96 q 297 116 351 96 q 211 171 243 135 q 171 255 178 206 l 170 264 l 47 264 l 48 255 q 101 111 54 172 q 229 17 149 50 q 415 -16 309 -16 m 417 1092 q 467 1113 447 1092 q 488 1162 488 1133 q 467 1212 488 1192 q 417 1232 447 1232 q 368 1212 389 1232 q 347 1162 347 1192 q 368 1113 347 1133 q 417 1092 389 1092 z "},"Ṣ":{"ha":824,"x_min":47,"x_max":777,"o":"m 415 -16 q 608 18 527 -16 q 733 117 689 53 q 777 267 777 180 l 777 268 q 709 445 777 380 q 492 543 642 509 l 383 566 q 242 626 288 587 q 197 724 197 665 l 197 725 q 223 808 197 772 q 299 863 250 843 q 413 882 348 882 q 523 863 475 882 q 599 809 570 844 q 635 724 628 774 l 637 714 l 759 714 l 758 724 q 708 865 753 804 q 587 961 663 926 q 416 995 512 995 q 238 960 316 995 q 117 864 161 925 q 72 722 73 802 l 72 721 q 141 548 72 614 q 353 450 210 481 l 461 426 q 607 365 562 404 q 652 262 652 326 l 652 261 q 624 174 652 211 q 544 116 595 136 q 422 96 492 96 q 297 116 351 96 q 211 171 243 135 q 171 255 178 206 l 170 264 l 47 264 l 48 255 q 101 111 54 172 q 229 17 149 50 q 415 -16 309 -16 m 418 -267 q 470 -245 449 -267 q 492 -193 492 -224 q 470 -141 492 -162 q 418 -119 449 -119 q 366 -141 387 -119 q 344 -193 344 -162 q 366 -245 344 -224 q 418 -267 387 -267 z "},"Ș":{"ha":824,"x_min":47,"x_max":777,"o":"m 415 -16 q 608 18 527 -16 q 733 117 689 53 q 777 267 777 180 l 777 268 q 709 445 777 380 q 492 543 642 509 l 383 566 q 242 626 288 587 q 197 724 197 665 l 197 725 q 223 808 197 772 q 299 863 250 843 q 413 882 348 882 q 523 863 475 882 q 599 809 570 844 q 635 724 628 774 l 637 714 l 759 714 l 758 724 q 708 865 753 804 q 587 961 663 926 q 416 995 512 995 q 238 960 316 995 q 117 864 161 925 q 72 722 73 802 l 72 721 q 141 548 72 614 q 353 450 210 481 l 461 426 q 607 365 562 404 q 652 262 652 326 l 652 261 q 624 174 652 211 q 544 116 595 136 q 422 96 492 96 q 297 116 351 96 q 211 171 243 135 q 171 255 178 206 l 170 264 l 47 264 l 48 255 q 101 111 54 172 q 229 17 149 50 q 415 -16 309 -16 m 298 -309 l 374 -309 l 473 -81 l 359 -81 l 298 -309 z "},"Ṩ":{"ha":824,"x_min":47,"x_max":777,"o":"m 415 -16 q 608 18 527 -16 q 733 117 689 53 q 777 267 777 180 l 777 268 q 709 445 777 380 q 492 543 642 509 l 383 566 q 242 626 288 587 q 197 724 197 665 l 197 725 q 223 808 197 772 q 299 863 250 843 q 413 882 348 882 q 523 863 475 882 q 599 809 570 844 q 635 724 628 774 l 637 714 l 759 714 l 758 724 q 708 865 753 804 q 587 961 663 926 q 416 995 512 995 q 238 960 316 995 q 117 864 161 925 q 72 722 73 802 l 72 721 q 141 548 72 614 q 353 450 210 481 l 461 426 q 607 365 562 404 q 652 262 652 326 l 652 261 q 624 174 652 211 q 544 116 595 136 q 422 96 492 96 q 297 116 351 96 q 211 171 243 135 q 171 255 178 206 l 170 264 l 47 264 l 48 255 q 101 111 54 172 q 229 17 149 50 q 415 -16 309 -16 m 418 -267 q 470 -245 449 -267 q 492 -193 492 -224 q 470 -141 492 -162 q 418 -119 449 -119 q 366 -141 387 -119 q 344 -193 344 -162 q 366 -245 344 -224 q 418 -267 387 -267 m 417 1092 q 467 1113 447 1092 q 488 1162 488 1133 q 467 1212 488 1192 q 417 1232 447 1232 q 368 1212 389 1232 q 347 1162 347 1192 q 368 1113 347 1133 q 417 1092 389 1092 z "},"Ṧ":{"ha":824,"x_min":47,"x_max":777,"o":"m 415 -16 q 608 18 527 -16 q 733 117 689 53 q 777 267 777 180 l 777 268 q 709 445 777 380 q 492 543 642 509 l 383 566 q 242 626 288 587 q 197 724 197 665 l 197 725 q 223 808 197 772 q 299 863 250 843 q 413 882 348 882 q 523 863 475 882 q 599 809 570 844 q 635 724 628 774 l 637 714 l 759 714 l 758 724 q 708 865 753 804 q 587 961 663 926 q 416 995 512 995 q 238 960 316 995 q 117 864 161 925 q 72 722 73 802 l 72 721 q 141 548 72 614 q 353 450 210 481 l 461 426 q 607 365 562 404 q 652 262 652 326 l 652 261 q 624 174 652 211 q 544 116 595 136 q 422 96 492 96 q 297 116 351 96 q 211 171 243 135 q 171 255 178 206 l 170 264 l 47 264 l 48 255 q 101 111 54 172 q 229 17 149 50 q 415 -16 309 -16 z "},"Ŝ":{"ha":824,"x_min":47,"x_max":777,"o":"m 415 -16 q 608 18 527 -16 q 733 117 689 53 q 777 267 777 180 l 777 268 q 709 445 777 380 q 492 543 642 509 l 383 566 q 242 626 288 587 q 197 724 197 665 l 197 725 q 223 808 197 772 q 299 863 250 843 q 413 882 348 882 q 523 863 475 882 q 599 809 570 844 q 635 724 628 774 l 637 714 l 759 714 l 758 724 q 708 865 753 804 q 587 961 663 926 q 416 995 512 995 q 238 960 316 995 q 117 864 161 925 q 72 722 73 802 l 72 721 q 141 548 72 614 q 353 450 210 481 l 461 426 q 607 365 562 404 q 652 262 652 326 l 652 261 q 624 174 652 211 q 544 116 595 136 q 422 96 492 96 q 297 116 351 96 q 211 171 243 135 q 171 255 178 206 l 170 264 l 47 264 l 48 255 q 101 111 54 172 q 229 17 149 50 q 415 -16 309 -16 m 220 1057 l 319 1057 l 425 1205 l 410 1205 l 516 1057 l 616 1057 l 471 1253 l 365 1253 l 220 1057 z "},"Ṥ":{"ha":824,"x_min":47,"x_max":777,"o":"m 415 -16 q 608 18 527 -16 q 733 117 689 53 q 777 267 777 180 l 777 268 q 709 445 777 380 q 492 543 642 509 l 383 566 q 242 626 288 587 q 197 724 197 665 l 197 725 q 223 808 197 772 q 299 863 250 843 q 413 882 348 882 q 523 863 475 882 q 599 809 570 844 q 635 724 628 774 l 637 714 l 759 714 l 758 724 q 708 865 753 804 q 587 961 663 926 q 416 995 512 995 q 238 960 316 995 q 117 864 161 925 q 72 722 73 802 l 72 721 q 141 548 72 614 q 353 450 210 481 l 461 426 q 607 365 562 404 q 652 262 652 326 l 652 261 q 624 174 652 211 q 544 116 595 136 q 422 96 492 96 q 297 116 351 96 q 211 171 243 135 q 171 255 178 206 l 170 264 l 47 264 l 48 255 q 101 111 54 172 q 229 17 149 50 q 415 -16 309 -16 z "},"Ś":{"ha":824,"x_min":47,"x_max":777,"o":"m 415 -16 q 608 18 527 -16 q 733 117 689 53 q 777 267 777 180 l 777 268 q 709 445 777 380 q 492 543 642 509 l 383 566 q 242 626 288 587 q 197 724 197 665 l 197 725 q 223 808 197 772 q 299 863 250 843 q 413 882 348 882 q 523 863 475 882 q 599 809 570 844 q 635 724 628 774 l 637 714 l 759 714 l 758 724 q 708 865 753 804 q 587 961 663 926 q 416 995 512 995 q 238 960 316 995 q 117 864 161 925 q 72 722 73 802 l 72 721 q 141 548 72 614 q 353 450 210 481 l 461 426 q 607 365 562 404 q 652 262 652 326 l 652 261 q 624 174 652 211 q 544 116 595 136 q 422 96 492 96 q 297 116 351 96 q 211 171 243 135 q 171 255 178 206 l 170 264 l 47 264 l 48 255 q 101 111 54 172 q 229 17 149 50 q 415 -16 309 -16 m 452 1057 l 594 1253 l 473 1253 l 362 1057 l 452 1057 z "},"ẞ":{"ha":961,"x_min":96,"x_max":914,"o":"m 614 -16 q 774 18 707 -16 q 878 116 841 52 q 914 266 914 179 l 914 267 q 845 445 914 378 q 630 543 776 511 l 556 558 l 563 489 l 854 808 l 854 899 q 730 951 792 930 q 608 984 667 972 q 494 995 548 995 q 280 952 370 995 q 143 828 191 909 q 96 633 96 747 l 96 0 l 218 0 l 218 621 q 250 764 218 705 q 342 852 281 822 q 491 882 404 882 q 641 860 566 882 q 797 793 715 838 l 749 861 l 481 564 l 481 467 l 564 452 q 734 385 679 431 q 789 265 789 340 l 789 264 q 741 142 789 187 q 610 96 692 96 q 503 110 555 96 q 393 150 450 123 l 393 28 q 614 -16 500 -16 z "},"T":{"ha":807,"x_min":34,"x_max":773,"o":"m 342 0 l 465 0 l 465 869 l 773 869 l 773 979 l 34 979 l 34 869 l 342 869 l 342 0 z "},"Ṱ":{"ha":807,"x_min":34,"x_max":773,"o":"m 342 0 l 465 0 l 465 869 l 773 869 l 773 979 l 34 979 l 34 869 l 342 869 l 342 0 m 197 -286 l 299 -286 l 410 -130 l 396 -130 l 508 -286 l 610 -286 l 457 -81 l 350 -81 l 197 -286 z "},"Ṭ":{"ha":807,"x_min":34,"x_max":773,"o":"m 342 0 l 465 0 l 465 869 l 773 869 l 773 979 l 34 979 l 34 869 l 342 869 l 342 0 m 404 -267 q 456 -245 435 -267 q 477 -193 477 -224 q 456 -141 477 -162 q 404 -119 435 -119 q 351 -141 373 -119 q 330 -193 330 -162 q 351 -245 330 -224 q 404 -267 373 -267 z "},"Ț":{"ha":807,"x_min":34,"x_max":773,"o":"m 342 0 l 465 0 l 465 869 l 773 869 l 773 979 l 34 979 l 34 869 l 342 869 l 342 0 m 283 -309 l 359 -309 l 458 -81 l 345 -81 l 283 -309 z "},"Ṫ":{"ha":807,"x_min":34,"x_max":773,"o":"m 342 0 l 465 0 l 465 869 l 773 869 l 773 979 l 34 979 l 34 869 l 342 869 l 342 0 m 403 1092 q 453 1113 433 1092 q 473 1162 473 1133 q 453 1212 473 1192 q 403 1232 433 1232 q 354 1212 374 1232 q 333 1162 333 1192 q 354 1113 333 1133 q 403 1092 374 1092 z "},"Ţ":{"ha":807,"x_min":34,"x_max":773,"o":"m 342 0 l 465 0 l 465 869 l 773 869 l 773 979 l 34 979 l 34 869 l 342 869 l 342 0 m 399 -309 q 470 -295 437 -309 q 523 -253 503 -280 q 543 -185 543 -225 l 543 -184 q 509 -97 543 -126 q 422 -64 475 -68 l 465 0 l 465 14 l 390 14 l 329 -78 l 329 -138 l 360 -138 q 419 -150 399 -138 q 440 -186 440 -161 l 440 -188 q 419 -220 440 -211 q 372 -229 399 -229 q 329 -225 349 -229 q 298 -217 309 -222 l 298 -292 q 340 -304 313 -299 q 399 -309 368 -309 z "},"Ṯ":{"ha":807,"x_min":34,"x_max":773,"o":"m 342 0 l 465 0 l 465 869 l 773 869 l 773 979 l 34 979 l 34 869 l 342 869 l 342 0 m 216 -228 l 591 -228 l 591 -142 l 216 -142 l 216 -228 z "},"Ť":{"ha":807,"x_min":34,"x_max":773,"o":"m 342 0 l 465 0 l 465 869 l 773 869 l 773 979 l 34 979 l 34 869 l 342 869 l 342 0 m 602 1253 l 502 1253 l 396 1105 l 412 1105 l 305 1253 l 205 1253 l 351 1057 l 456 1057 l 602 1253 z "},"Ŧ":{"ha":807,"x_min":34,"x_max":773,"o":"m 342 0 l 465 0 l 465 869 l 773 869 l 773 979 l 34 979 l 34 869 l 342 869 l 342 0 m 126 437 l 681 437 l 681 539 l 126 539 l 126 437 z "},"U":{"ha":967,"x_min":95,"x_max":872,"o":"m 484 -16 q 692 29 606 -16 q 826 156 779 75 q 872 343 872 237 l 872 979 l 750 979 l 750 351 q 681 168 750 239 q 484 96 612 96 q 287 168 357 96 q 217 351 217 239 l 217 979 l 95 979 l 95 343 q 142 156 95 237 q 276 29 189 75 q 484 -16 363 -16 z "},"Ù":{"ha":967,"x_min":95,"x_max":872,"o":"m 484 -16 q 692 29 606 -16 q 826 156 779 75 q 872 343 872 237 l 872 979 l 750 979 l 750 351 q 681 168 750 239 q 484 96 612 96 q 287 168 357 96 q 217 351 217 239 l 217 979 l 95 979 l 95 343 q 142 156 95 237 q 276 29 189 75 q 484 -16 363 -16 m 454 1057 l 543 1057 l 433 1253 l 311 1253 l 454 1057 z "},"Ȕ":{"ha":967,"x_min":95,"x_max":872,"o":"m 484 -16 q 692 29 606 -16 q 826 156 779 75 q 872 343 872 237 l 872 979 l 750 979 l 750 351 q 681 168 750 239 q 484 96 612 96 q 287 168 357 96 q 217 351 217 239 l 217 979 l 95 979 l 95 343 q 142 156 95 237 q 276 29 189 75 q 484 -16 363 -16 m 349 1057 l 438 1057 l 314 1253 l 193 1253 l 349 1057 m 558 1057 l 648 1057 l 537 1253 l 416 1253 l 558 1057 z "},"Ú":{"ha":967,"x_min":95,"x_max":872,"o":"m 484 -16 q 692 29 606 -16 q 826 156 779 75 q 872 343 872 237 l 872 979 l 750 979 l 750 351 q 681 168 750 239 q 484 96 612 96 q 287 168 357 96 q 217 351 217 239 l 217 979 l 95 979 l 95 343 q 142 156 95 237 q 276 29 189 75 q 484 -16 363 -16 m 517 1057 l 660 1253 l 538 1253 l 428 1057 l 517 1057 z "},"Ű":{"ha":967,"x_min":95,"x_max":872,"o":"m 484 -16 q 692 29 606 -16 q 826 156 779 75 q 872 343 872 237 l 872 979 l 750 979 l 750 351 q 681 168 750 239 q 484 96 612 96 q 287 168 357 96 q 217 351 217 239 l 217 979 l 95 979 l 95 343 q 142 156 95 237 q 276 29 189 75 q 484 -16 363 -16 m 412 1057 l 541 1253 l 419 1253 l 322 1057 l 412 1057 m 621 1057 l 764 1253 l 642 1253 l 532 1057 l 621 1057 z "},"Û":{"ha":967,"x_min":95,"x_max":872,"o":"m 484 -16 q 692 29 606 -16 q 826 156 779 75 q 872 343 872 237 l 872 979 l 750 979 l 750 351 q 681 168 750 239 q 484 96 612 96 q 287 168 357 96 q 217 351 217 239 l 217 979 l 95 979 l 95 343 q 142 156 95 237 q 276 29 189 75 q 484 -16 363 -16 m 286 1057 l 385 1057 l 491 1205 l 475 1205 l 582 1057 l 682 1057 l 536 1253 l 431 1253 l 286 1057 z "},"Ǔ":{"ha":967,"x_min":95,"x_max":872,"o":"m 484 -16 q 692 29 606 -16 q 826 156 779 75 q 872 343 872 237 l 872 979 l 750 979 l 750 351 q 681 168 750 239 q 484 96 612 96 q 287 168 357 96 q 217 351 217 239 l 217 979 l 95 979 l 95 343 q 142 156 95 237 q 276 29 189 75 q 484 -16 363 -16 m 682 1253 l 582 1253 l 476 1105 l 492 1105 l 385 1253 l 286 1253 l 431 1057 l 536 1057 l 682 1253 z "},"Ṷ":{"ha":967,"x_min":95,"x_max":872,"o":"m 484 -16 q 692 29 606 -16 q 826 156 779 75 q 872 343 872 237 l 872 979 l 750 979 l 750 351 q 681 168 750 239 q 484 96 612 96 q 287 168 357 96 q 217 351 217 239 l 217 979 l 95 979 l 95 343 q 142 156 95 237 q 276 29 189 75 q 484 -16 363 -16 m 277 -286 l 379 -286 l 490 -130 l 476 -130 l 588 -286 l 690 -286 l 537 -81 l 430 -81 l 277 -286 z "},"Ü":{"ha":967,"x_min":95,"x_max":872,"o":"m 484 -16 q 692 29 606 -16 q 826 156 779 75 q 872 343 872 237 l 872 979 l 750 979 l 750 351 q 681 168 750 239 q 484 96 612 96 q 287 168 357 96 q 217 351 217 239 l 217 979 l 95 979 l 95 343 q 142 156 95 237 q 276 29 189 75 q 484 -16 363 -16 m 362 1090 q 409 1109 390 1090 q 429 1157 429 1129 q 409 1204 429 1185 q 362 1224 390 1224 q 315 1204 334 1224 q 295 1157 295 1185 q 315 1109 295 1129 q 362 1090 334 1090 m 605 1090 q 653 1109 633 1090 q 672 1157 672 1129 q 653 1204 672 1185 q 605 1224 633 1224 q 558 1204 578 1224 q 538 1157 538 1185 q 558 1109 538 1129 q 605 1090 578 1090 z "},"Ǜ":{"ha":967,"x_min":95,"x_max":872,"o":"m 484 -16 q 692 29 606 -16 q 826 156 779 75 q 872 343 872 237 l 872 979 l 750 979 l 750 351 q 681 168 750 239 q 484 96 612 96 q 287 168 357 96 q 217 351 217 239 l 217 979 l 95 979 l 95 343 q 142 156 95 237 q 276 29 189 75 q 484 -16 363 -16 z "},"Ǘ":{"ha":967,"x_min":95,"x_max":872,"o":"m 484 -16 q 692 29 606 -16 q 826 156 779 75 q 872 343 872 237 l 872 979 l 750 979 l 750 351 q 681 168 750 239 q 484 96 612 96 q 287 168 357 96 q 217 351 217 239 l 217 979 l 95 979 l 95 343 q 142 156 95 237 q 276 29 189 75 q 484 -16 363 -16 z "},"Ǖ":{"ha":967,"x_min":95,"x_max":872,"o":"m 484 -16 q 692 29 606 -16 q 826 156 779 75 q 872 343 872 237 l 872 979 l 750 979 l 750 351 q 681 168 750 239 q 484 96 612 96 q 287 168 357 96 q 217 351 217 239 l 217 979 l 95 979 l 95 343 q 142 156 95 237 q 276 29 189 75 q 484 -16 363 -16 z "},"Ǚ":{"ha":967,"x_min":95,"x_max":872,"o":"m 484 -16 q 692 29 606 -16 q 826 156 779 75 q 872 343 872 237 l 872 979 l 750 979 l 750 351 q 681 168 750 239 q 484 96 612 96 q 287 168 357 96 q 217 351 217 239 l 217 979 l 95 979 l 95 343 q 142 156 95 237 q 276 29 189 75 q 484 -16 363 -16 z "},"Ṳ":{"ha":967,"x_min":95,"x_max":872,"o":"m 484 -16 q 692 29 606 -16 q 826 156 779 75 q 872 343 872 237 l 872 979 l 750 979 l 750 351 q 681 168 750 239 q 484 96 612 96 q 287 168 357 96 q 217 351 217 239 l 217 979 l 95 979 l 95 343 q 142 156 95 237 q 276 29 189 75 q 484 -16 363 -16 m 361 -95 q 313 -115 332 -95 q 293 -163 293 -135 q 313 -212 293 -192 q 361 -231 332 -231 q 409 -212 389 -231 q 429 -163 429 -192 q 409 -115 429 -135 q 361 -95 389 -95 m 606 -95 q 557 -115 577 -95 q 538 -163 538 -135 q 557 -212 538 -192 q 606 -231 577 -231 q 654 -212 634 -231 q 674 -163 674 -192 q 654 -115 674 -135 q 606 -95 634 -95 z "},"Ṵ":{"ha":967,"x_min":95,"x_max":872,"o":"m 484 -16 q 692 29 606 -16 q 826 156 779 75 q 872 343 872 237 l 872 979 l 750 979 l 750 351 q 681 168 750 239 q 484 96 612 96 q 287 168 357 96 q 217 351 217 239 l 217 979 l 95 979 l 95 343 q 142 156 95 237 q 276 29 189 75 q 484 -16 363 -16 m 580 -286 q 659 -243 630 -286 q 687 -114 687 -200 l 687 -106 l 604 -106 l 604 -113 q 596 -177 604 -156 q 568 -197 587 -197 q 537 -187 553 -197 q 504 -162 522 -177 l 479 -141 q 438 -115 460 -125 q 387 -104 416 -104 q 309 -148 337 -104 q 280 -277 280 -191 l 280 -285 l 363 -285 l 363 -278 q 372 -214 363 -235 q 399 -193 380 -193 q 429 -204 414 -193 q 460 -229 444 -214 l 485 -250 q 527 -276 504 -266 q 580 -286 551 -286 z "},"Ủ":{"ha":967,"x_min":95,"x_max":872,"o":"m 484 -16 q 692 29 606 -16 q 826 156 779 75 q 872 343 872 237 l 872 979 l 750 979 l 750 351 q 681 168 750 239 q 484 96 612 96 q 287 168 357 96 q 217 351 217 239 l 217 979 l 95 979 l 95 343 q 142 156 95 237 q 276 29 189 75 q 484 -16 363 -16 m 432 1057 l 516 1057 q 567 1105 551 1080 q 583 1160 583 1131 q 542 1235 583 1207 q 447 1263 500 1263 q 405 1260 424 1263 q 374 1252 385 1257 l 374 1183 q 390 1185 380 1184 q 415 1186 400 1186 q 472 1174 449 1186 q 495 1140 495 1162 q 479 1102 495 1122 q 432 1059 463 1082 l 432 1057 z "},"Ŭ":{"ha":967,"x_min":95,"x_max":872,"o":"m 484 -16 q 692 29 606 -16 q 826 156 779 75 q 872 343 872 237 l 872 979 l 750 979 l 750 351 q 681 168 750 239 q 484 96 612 96 q 287 168 357 96 q 217 351 217 239 l 217 979 l 95 979 l 95 343 q 142 156 95 237 q 276 29 189 75 q 484 -16 363 -16 m 484 1055 q 583 1079 541 1055 q 647 1145 625 1103 q 670 1242 670 1187 l 670 1248 l 585 1248 l 585 1244 q 558 1168 585 1201 q 484 1136 532 1136 q 410 1168 437 1136 q 382 1244 382 1201 l 382 1248 l 298 1248 l 298 1242 q 320 1145 298 1187 q 385 1079 343 1103 q 484 1055 427 1055 z "},"Ȗ":{"ha":967,"x_min":95,"x_max":872,"o":"m 484 -16 q 692 29 606 -16 q 826 156 779 75 q 872 343 872 237 l 872 979 l 750 979 l 750 351 q 681 168 750 239 q 484 96 612 96 q 287 168 357 96 q 217 351 217 239 l 217 979 l 95 979 l 95 343 q 142 156 95 237 q 276 29 189 75 q 484 -16 363 -16 m 484 1248 q 385 1224 427 1248 q 320 1158 343 1200 q 298 1061 298 1116 l 298 1055 l 382 1055 l 382 1059 q 409 1135 382 1103 q 484 1167 436 1167 q 558 1135 532 1167 q 585 1059 585 1103 l 585 1055 l 670 1055 l 670 1061 q 647 1158 670 1116 q 583 1224 625 1200 q 484 1248 541 1248 z "},"Ṹ":{"ha":967,"x_min":95,"x_max":872,"o":"m 484 -16 q 692 29 606 -16 q 826 156 779 75 q 872 343 872 237 l 872 979 l 750 979 l 750 351 q 681 168 750 239 q 484 96 612 96 q 287 168 357 96 q 217 351 217 239 l 217 979 l 95 979 l 95 343 q 142 156 95 237 q 276 29 189 75 q 484 -16 363 -16 z "},"Ụ":{"ha":967,"x_min":95,"x_max":872,"o":"m 484 -16 q 692 29 606 -16 q 826 156 779 75 q 872 343 872 237 l 872 979 l 750 979 l 750 351 q 681 168 750 239 q 484 96 612 96 q 287 168 357 96 q 217 351 217 239 l 217 979 l 95 979 l 95 343 q 142 156 95 237 q 276 29 189 75 q 484 -16 363 -16 m 484 -267 q 536 -245 515 -267 q 557 -193 557 -224 q 536 -141 557 -162 q 484 -119 515 -119 q 431 -141 453 -119 q 410 -193 410 -162 q 431 -245 410 -224 q 484 -267 453 -267 z "},"Ũ":{"ha":967,"x_min":95,"x_max":872,"o":"m 484 -16 q 692 29 606 -16 q 826 156 779 75 q 872 343 872 237 l 872 979 l 750 979 l 750 351 q 681 168 750 239 q 484 96 612 96 q 287 168 357 96 q 217 351 217 239 l 217 979 l 95 979 l 95 343 q 142 156 95 237 q 276 29 189 75 q 484 -16 363 -16 m 575 1058 q 651 1100 624 1058 q 679 1225 679 1141 l 679 1232 l 598 1232 l 598 1226 q 590 1166 598 1185 q 563 1146 582 1146 q 534 1156 549 1146 q 503 1179 519 1166 l 479 1199 q 440 1224 461 1215 q 391 1234 418 1234 q 315 1192 342 1234 q 288 1067 288 1150 l 288 1059 l 368 1059 l 368 1065 q 376 1126 368 1106 q 404 1145 385 1145 q 431 1136 417 1145 q 461 1112 446 1126 l 485 1093 q 525 1068 503 1078 q 575 1058 548 1058 z "},"Ū":{"ha":967,"x_min":95,"x_max":872,"o":"m 484 -16 q 692 29 606 -16 q 826 156 779 75 q 872 343 872 237 l 872 979 l 750 979 l 750 351 q 681 168 750 239 q 484 96 612 96 q 287 168 357 96 q 217 351 217 239 l 217 979 l 95 979 l 95 343 q 142 156 95 237 q 276 29 189 75 q 484 -16 363 -16 m 303 1114 l 663 1114 l 663 1200 l 303 1200 l 303 1114 z "},"Ṻ":{"ha":967,"x_min":95,"x_max":872,"o":"m 484 -16 q 692 29 606 -16 q 826 156 779 75 q 872 343 872 237 l 872 979 l 750 979 l 750 351 q 681 168 750 239 q 484 96 612 96 q 287 168 357 96 q 217 351 217 239 l 217 979 l 95 979 l 95 343 q 142 156 95 237 q 276 29 189 75 q 484 -16 363 -16 z "},"Ů":{"ha":967,"x_min":95,"x_max":872,"o":"m 484 -16 q 692 29 606 -16 q 826 156 779 75 q 872 343 872 237 l 872 979 l 750 979 l 750 351 q 681 168 750 239 q 484 96 612 96 q 287 168 357 96 q 217 351 217 239 l 217 979 l 95 979 l 95 343 q 142 156 95 237 q 276 29 189 75 q 484 -16 363 -16 m 486 1034 q 573 1069 537 1034 q 610 1155 610 1105 l 610 1156 q 593 1217 610 1190 q 548 1260 576 1244 q 486 1276 520 1276 q 424 1260 452 1276 q 379 1217 395 1244 q 362 1156 362 1190 l 362 1155 q 398 1069 362 1105 q 486 1034 435 1034 m 486 1100 q 447 1116 463 1100 q 431 1155 431 1132 l 431 1156 q 447 1195 431 1179 q 486 1211 463 1211 q 525 1195 509 1211 q 541 1156 541 1179 l 541 1155 q 525 1116 541 1132 q 486 1100 509 1100 z "},"Ų":{"ha":967,"x_min":95,"x_max":872,"o":"m 484 -16 q 692 29 606 -16 q 826 156 779 75 q 872 343 872 237 l 872 979 l 750 979 l 750 351 q 681 168 750 239 q 484 96 612 96 q 287 168 357 96 q 217 351 217 239 l 217 979 l 95 979 l 95 343 q 142 156 95 237 q 276 29 189 75 q 484 -16 363 -16 m 538 -320 q 571 -317 551 -320 q 604 -309 591 -315 l 604 -230 q 562 -237 589 -237 q 512 -217 533 -237 q 492 -153 492 -196 l 492 -151 q 519 -62 492 -103 q 596 14 546 -22 l 522 14 l 522 14 l 496 14 q 413 -72 444 -21 q 382 -177 382 -123 l 382 -178 q 403 -257 382 -225 q 460 -304 425 -288 q 538 -320 496 -320 z "},"Ư":{"ha":967,"x_min":95,"x_max":1006,"o":"m 484 -16 q 692 29 606 -16 q 826 156 779 75 q 872 343 872 237 l 872 979 l 750 979 l 750 351 q 681 168 750 239 q 484 96 612 96 q 287 168 357 96 q 217 351 217 239 l 217 979 l 95 979 l 95 343 q 142 156 95 237 q 276 29 189 75 q 484 -16 363 -16 m 902 1171 q 890 1067 902 1105 q 846 1008 879 1028 q 750 979 814 988 l 750 905 l 806 917 q 930 961 886 934 q 990 1039 973 989 q 1006 1171 1006 1088 l 902 1171 z "},"Ừ":{"ha":967,"x_min":95,"x_max":1006,"o":"m 484 -16 q 692 29 606 -16 q 826 156 779 75 q 872 343 872 237 l 872 979 l 750 979 l 750 351 q 681 168 750 239 q 484 96 612 96 q 287 168 357 96 q 217 351 217 239 l 217 979 l 95 979 l 95 343 q 142 156 95 237 q 276 29 189 75 q 484 -16 363 -16 m 902 1171 q 890 1067 902 1105 q 846 1008 879 1028 q 750 979 814 988 l 750 905 l 806 917 q 930 961 886 934 q 990 1039 973 989 q 1006 1171 1006 1088 l 902 1171 m 454 1057 l 543 1057 l 433 1253 l 311 1253 l 454 1057 z "},"Ứ":{"ha":967,"x_min":95,"x_max":1006,"o":"m 484 -16 q 692 29 606 -16 q 826 156 779 75 q 872 343 872 237 l 872 979 l 750 979 l 750 351 q 681 168 750 239 q 484 96 612 96 q 287 168 357 96 q 217 351 217 239 l 217 979 l 95 979 l 95 343 q 142 156 95 237 q 276 29 189 75 q 484 -16 363 -16 m 902 1171 q 890 1067 902 1105 q 846 1008 879 1028 q 750 979 814 988 l 750 905 l 806 917 q 930 961 886 934 q 990 1039 973 989 q 1006 1171 1006 1088 l 902 1171 m 517 1057 l 660 1253 l 538 1253 l 428 1057 l 517 1057 z "},"Ự":{"ha":967,"x_min":95,"x_max":1006,"o":"m 484 -16 q 692 29 606 -16 q 826 156 779 75 q 872 343 872 237 l 872 979 l 750 979 l 750 351 q 681 168 750 239 q 484 96 612 96 q 287 168 357 96 q 217 351 217 239 l 217 979 l 95 979 l 95 343 q 142 156 95 237 q 276 29 189 75 q 484 -16 363 -16 m 902 1171 q 890 1067 902 1105 q 846 1008 879 1028 q 750 979 814 988 l 750 905 l 806 917 q 930 961 886 934 q 990 1039 973 989 q 1006 1171 1006 1088 l 902 1171 m 484 -267 q 536 -245 515 -267 q 557 -193 557 -224 q 536 -141 557 -162 q 484 -119 515 -119 q 431 -141 453 -119 q 410 -193 410 -162 q 431 -245 410 -224 q 484 -267 453 -267 z "},"Ử":{"ha":967,"x_min":95,"x_max":1006,"o":"m 484 -16 q 692 29 606 -16 q 826 156 779 75 q 872 343 872 237 l 872 979 l 750 979 l 750 351 q 681 168 750 239 q 484 96 612 96 q 287 168 357 96 q 217 351 217 239 l 217 979 l 95 979 l 95 343 q 142 156 95 237 q 276 29 189 75 q 484 -16 363 -16 m 902 1171 q 890 1067 902 1105 q 846 1008 879 1028 q 750 979 814 988 l 750 905 l 806 917 q 930 961 886 934 q 990 1039 973 989 q 1006 1171 1006 1088 l 902 1171 m 432 1057 l 516 1057 q 567 1105 551 1080 q 583 1160 583 1131 q 542 1235 583 1207 q 447 1263 500 1263 q 405 1260 424 1263 q 374 1252 385 1257 l 374 1183 q 390 1185 380 1184 q 415 1186 400 1186 q 472 1174 449 1186 q 495 1140 495 1162 q 479 1102 495 1122 q 432 1059 463 1082 l 432 1057 z "},"Ữ":{"ha":967,"x_min":95,"x_max":1006,"o":"m 484 -16 q 692 29 606 -16 q 826 156 779 75 q 872 343 872 237 l 872 979 l 750 979 l 750 351 q 681 168 750 239 q 484 96 612 96 q 287 168 357 96 q 217 351 217 239 l 217 979 l 95 979 l 95 343 q 142 156 95 237 q 276 29 189 75 q 484 -16 363 -16 m 902 1171 q 890 1067 902 1105 q 846 1008 879 1028 q 750 979 814 988 l 750 905 l 806 917 q 930 961 886 934 q 990 1039 973 989 q 1006 1171 1006 1088 l 902 1171 m 580 1058 q 650 1100 625 1058 q 675 1225 675 1141 l 675 1232 l 600 1232 l 600 1226 q 593 1166 600 1185 q 568 1146 585 1146 q 542 1156 555 1146 q 514 1179 529 1166 l 492 1199 q 457 1224 476 1215 q 413 1234 437 1234 q 343 1192 369 1234 q 318 1067 318 1150 l 318 1059 l 393 1059 l 393 1065 q 400 1126 393 1106 q 425 1145 408 1145 q 450 1136 437 1145 q 477 1112 463 1126 l 498 1093 q 534 1068 514 1078 q 580 1058 555 1058 z "},"V":{"ha":876,"x_min":17,"x_max":859,"o":"m 378 0 l 498 0 l 859 979 l 731 979 l 439 146 l 437 146 l 145 979 l 17 979 l 378 0 z "},"Ṽ":{"ha":876,"x_min":17,"x_max":859,"o":"m 378 0 l 498 0 l 859 979 l 731 979 l 439 146 l 437 146 l 145 979 l 17 979 l 378 0 m 530 1058 q 606 1100 578 1058 q 633 1225 633 1141 l 633 1232 l 553 1232 l 553 1226 q 545 1166 553 1185 q 517 1146 536 1146 q 488 1156 503 1146 q 457 1179 473 1166 l 433 1199 q 394 1224 416 1215 q 346 1234 373 1234 q 270 1192 297 1234 q 242 1067 242 1150 l 242 1059 l 323 1059 l 323 1065 q 331 1126 323 1106 q 358 1145 339 1145 q 386 1136 372 1145 q 416 1112 400 1126 l 439 1093 q 480 1068 457 1078 q 530 1058 503 1058 z "},"Ṿ":{"ha":876,"x_min":17,"x_max":859,"o":"m 378 0 l 498 0 l 859 979 l 731 979 l 439 146 l 437 146 l 145 979 l 17 979 l 378 0 m 438 -267 q 491 -245 469 -267 q 512 -193 512 -224 q 491 -141 512 -162 q 438 -119 469 -119 q 386 -141 408 -119 q 364 -193 364 -162 q 386 -245 364 -224 q 438 -267 408 -267 z "},"W":{"ha":1283,"x_min":31,"x_max":1253,"o":"m 297 0 l 412 0 l 640 784 l 643 784 l 871 0 l 986 0 l 1253 979 l 1125 979 l 928 175 l 925 175 l 703 979 l 580 979 l 358 175 l 355 175 l 158 979 l 31 979 l 297 0 z "},"Ẁ":{"ha":1283,"x_min":31,"x_max":1253,"o":"m 297 0 l 412 0 l 640 784 l 643 784 l 871 0 l 986 0 l 1253 979 l 1125 979 l 928 175 l 925 175 l 703 979 l 580 979 l 358 175 l 355 175 l 158 979 l 31 979 l 297 0 m 612 1057 l 701 1057 l 591 1253 l 469 1253 l 612 1057 z "},"Ẃ":{"ha":1283,"x_min":31,"x_max":1253,"o":"m 297 0 l 412 0 l 640 784 l 643 784 l 871 0 l 986 0 l 1253 979 l 1125 979 l 928 175 l 925 175 l 703 979 l 580 979 l 358 175 l 355 175 l 158 979 l 31 979 l 297 0 m 675 1057 l 818 1253 l 696 1253 l 586 1057 l 675 1057 z "},"Ẇ":{"ha":1283,"x_min":31,"x_max":1253,"o":"m 297 0 l 412 0 l 640 784 l 643 784 l 871 0 l 986 0 l 1253 979 l 1125 979 l 928 175 l 925 175 l 703 979 l 580 979 l 358 175 l 355 175 l 158 979 l 31 979 l 297 0 m 641 1092 q 691 1113 671 1092 q 711 1162 711 1133 q 691 1212 711 1192 q 641 1232 671 1232 q 592 1212 612 1232 q 571 1162 571 1192 q 592 1113 571 1133 q 641 1092 612 1092 z "},"Ẉ":{"ha":1283,"x_min":31,"x_max":1253,"o":"m 297 0 l 412 0 l 640 784 l 643 784 l 871 0 l 986 0 l 1253 979 l 1125 979 l 928 175 l 925 175 l 703 979 l 580 979 l 358 175 l 355 175 l 158 979 l 31 979 l 297 0 m 642 -267 q 694 -245 673 -267 q 715 -193 715 -224 q 694 -141 715 -162 q 642 -119 673 -119 q 589 -141 611 -119 q 568 -193 568 -162 q 589 -245 568 -224 q 642 -267 611 -267 z "},"Ẅ":{"ha":1283,"x_min":31,"x_max":1253,"o":"m 297 0 l 412 0 l 640 784 l 643 784 l 871 0 l 986 0 l 1253 979 l 1125 979 l 928 175 l 925 175 l 703 979 l 580 979 l 358 175 l 355 175 l 158 979 l 31 979 l 297 0 m 520 1090 q 567 1109 548 1090 q 587 1157 587 1129 q 567 1204 587 1185 q 520 1224 548 1224 q 473 1204 492 1224 q 453 1157 453 1185 q 473 1109 453 1129 q 520 1090 492 1090 m 763 1090 q 811 1109 791 1090 q 830 1157 830 1129 q 811 1204 830 1185 q 763 1224 791 1224 q 716 1204 736 1224 q 696 1157 696 1185 q 716 1109 696 1129 q 763 1090 736 1090 z "},"Ŵ":{"ha":1283,"x_min":31,"x_max":1253,"o":"m 297 0 l 412 0 l 640 784 l 643 784 l 871 0 l 986 0 l 1253 979 l 1125 979 l 928 175 l 925 175 l 703 979 l 580 979 l 358 175 l 355 175 l 158 979 l 31 979 l 297 0 m 444 1057 l 543 1057 l 649 1205 l 633 1205 l 740 1057 l 840 1057 l 694 1253 l 589 1253 l 444 1057 z "},"X":{"ha":882,"x_min":31,"x_max":851,"o":"m 31 0 l 169 0 l 462 433 l 381 391 l 437 391 l 697 0 l 844 0 l 484 528 l 513 434 l 513 488 l 851 979 l 712 979 l 418 541 l 499 585 l 444 585 l 182 979 l 35 979 l 364 494 l 364 440 l 393 534 l 31 0 z "},"Ẋ":{"ha":882,"x_min":31,"x_max":851,"o":"m 31 0 l 169 0 l 462 433 l 381 391 l 437 391 l 697 0 l 844 0 l 484 528 l 513 434 l 513 488 l 851 979 l 712 979 l 418 541 l 499 585 l 444 585 l 182 979 l 35 979 l 364 494 l 364 440 l 393 534 l 31 0 m 446 1092 q 496 1113 475 1092 q 516 1162 516 1133 q 496 1212 516 1192 q 446 1232 475 1232 q 396 1212 417 1232 q 376 1162 376 1192 q 396 1113 376 1133 q 446 1092 417 1092 z "},"Ẍ":{"ha":882,"x_min":31,"x_max":851,"o":"m 31 0 l 169 0 l 462 433 l 381 391 l 437 391 l 697 0 l 844 0 l 484 528 l 513 434 l 513 488 l 851 979 l 712 979 l 418 541 l 499 585 l 444 585 l 182 979 l 35 979 l 364 494 l 364 440 l 393 534 l 31 0 m 325 1090 q 372 1109 353 1090 q 391 1157 391 1129 q 372 1204 391 1185 q 325 1224 353 1224 q 277 1204 297 1224 q 258 1157 258 1185 q 277 1109 258 1129 q 325 1090 297 1090 m 568 1090 q 615 1109 596 1090 q 635 1157 635 1129 q 615 1204 635 1185 q 568 1224 596 1224 q 521 1204 541 1224 q 501 1157 501 1185 q 521 1109 501 1129 q 568 1090 541 1090 z "},"Y":{"ha":850,"x_min":17,"x_max":833,"o":"m 364 0 l 486 0 l 486 421 l 833 979 l 694 979 l 427 539 l 423 539 l 156 979 l 17 979 l 364 421 l 364 0 z "},"Ỳ":{"ha":850,"x_min":17,"x_max":833,"o":"m 364 0 l 486 0 l 486 421 l 833 979 l 694 979 l 427 539 l 423 539 l 156 979 l 17 979 l 364 421 l 364 0 m 395 1057 l 485 1057 l 374 1253 l 253 1253 l 395 1057 z "},"Ý":{"ha":850,"x_min":17,"x_max":833,"o":"m 364 0 l 486 0 l 486 421 l 833 979 l 694 979 l 427 539 l 423 539 l 156 979 l 17 979 l 364 421 l 364 0 m 459 1057 l 602 1253 l 480 1253 l 370 1057 l 459 1057 z "},"Ẏ":{"ha":850,"x_min":17,"x_max":833,"o":"m 364 0 l 486 0 l 486 421 l 833 979 l 694 979 l 427 539 l 423 539 l 156 979 l 17 979 l 364 421 l 364 0 m 425 1092 q 475 1113 454 1092 q 495 1162 495 1133 q 475 1212 495 1192 q 425 1232 454 1232 q 375 1212 396 1232 q 355 1162 355 1192 q 375 1113 355 1133 q 425 1092 396 1092 z "},"Ỵ":{"ha":850,"x_min":17,"x_max":833,"o":"m 364 0 l 486 0 l 486 421 l 833 979 l 694 979 l 427 539 l 423 539 l 156 979 l 17 979 l 364 421 l 364 0 m 425 -267 q 478 -245 456 -267 q 499 -193 499 -224 q 478 -141 499 -162 q 425 -119 456 -119 q 373 -141 395 -119 q 351 -193 351 -162 q 373 -245 351 -224 q 425 -267 395 -267 z "},"Ÿ":{"ha":850,"x_min":17,"x_max":833,"o":"m 364 0 l 486 0 l 486 421 l 833 979 l 694 979 l 427 539 l 423 539 l 156 979 l 17 979 l 364 421 l 364 0 m 304 1090 q 351 1109 332 1090 q 370 1157 370 1129 q 351 1204 370 1185 q 304 1224 332 1224 q 256 1204 276 1224 q 237 1157 237 1185 q 256 1109 237 1129 q 304 1090 276 1090 m 547 1090 q 594 1109 575 1090 q 614 1157 614 1129 q 594 1204 614 1185 q 547 1224 575 1224 q 500 1204 519 1224 q 480 1157 480 1185 q 500 1109 480 1129 q 547 1090 519 1090 z "},"Ỹ":{"ha":850,"x_min":17,"x_max":833,"o":"m 364 0 l 486 0 l 486 421 l 833 979 l 694 979 l 427 539 l 423 539 l 156 979 l 17 979 l 364 421 l 364 0 m 517 1058 q 593 1100 566 1058 q 621 1225 621 1141 l 621 1232 l 540 1232 l 540 1226 q 532 1166 540 1185 q 505 1146 524 1146 q 475 1156 490 1146 q 444 1179 460 1166 l 420 1199 q 381 1224 403 1215 q 333 1234 360 1234 q 257 1192 284 1234 q 229 1067 229 1150 l 229 1059 l 310 1059 l 310 1065 q 318 1126 310 1106 q 345 1145 326 1145 q 373 1136 359 1145 q 403 1112 387 1126 l 427 1093 q 467 1068 444 1078 q 517 1058 490 1058 z "},"Ŷ":{"ha":850,"x_min":17,"x_max":833,"o":"m 364 0 l 486 0 l 486 421 l 833 979 l 694 979 l 427 539 l 423 539 l 156 979 l 17 979 l 364 421 l 364 0 m 227 1057 l 327 1057 l 433 1205 l 417 1205 l 524 1057 l 623 1057 l 478 1253 l 372 1253 l 227 1057 z "},"Ȳ":{"ha":850,"x_min":17,"x_max":833,"o":"m 364 0 l 486 0 l 486 421 l 833 979 l 694 979 l 427 539 l 423 539 l 156 979 l 17 979 l 364 421 l 364 0 m 245 1114 l 605 1114 l 605 1200 l 245 1200 l 245 1114 z "},"Ỷ":{"ha":850,"x_min":17,"x_max":833,"o":"m 364 0 l 486 0 l 486 421 l 833 979 l 694 979 l 427 539 l 423 539 l 156 979 l 17 979 l 364 421 l 364 0 m 374 1057 l 458 1057 q 509 1105 492 1080 q 525 1160 525 1131 q 484 1235 525 1207 q 389 1263 442 1263 q 346 1260 366 1263 q 315 1252 327 1257 l 315 1183 q 332 1185 322 1184 q 357 1186 342 1186 q 414 1174 391 1186 q 437 1140 437 1162 q 420 1102 437 1122 q 374 1059 404 1082 l 374 1057 z "},"Z":{"ha":857,"x_min":66,"x_max":790,"o":"m 66 0 l 790 0 l 790 110 l 222 110 l 222 113 l 779 892 l 779 979 l 85 979 l 85 869 l 626 869 l 626 866 l 66 87 l 66 0 z "},"Ź":{"ha":857,"x_min":66,"x_max":790,"o":"m 66 0 l 790 0 l 790 110 l 222 110 l 222 113 l 779 892 l 779 979 l 85 979 l 85 869 l 626 869 l 626 866 l 66 87 l 66 0 m 463 1057 l 605 1253 l 484 1253 l 373 1057 l 463 1057 z "},"Ž":{"ha":857,"x_min":66,"x_max":790,"o":"m 66 0 l 790 0 l 790 110 l 222 110 l 222 113 l 779 892 l 779 979 l 85 979 l 85 869 l 626 869 l 626 866 l 66 87 l 66 0 m 627 1253 l 527 1253 l 421 1105 l 437 1105 l 330 1253 l 231 1253 l 376 1057 l 481 1057 l 627 1253 z "},"Ẑ":{"ha":857,"x_min":66,"x_max":790,"o":"m 66 0 l 790 0 l 790 110 l 222 110 l 222 113 l 779 892 l 779 979 l 85 979 l 85 869 l 626 869 l 626 866 l 66 87 l 66 0 m 231 1057 l 330 1057 l 436 1205 l 420 1205 l 527 1057 l 627 1057 l 481 1253 l 376 1253 l 231 1057 z "},"Ẕ":{"ha":857,"x_min":66,"x_max":790,"o":"m 66 0 l 790 0 l 790 110 l 222 110 l 222 113 l 779 892 l 779 979 l 85 979 l 85 869 l 626 869 l 626 866 l 66 87 l 66 0 m 241 -228 l 616 -228 l 616 -142 l 241 -142 l 241 -228 z "},"Ẓ":{"ha":857,"x_min":66,"x_max":790,"o":"m 66 0 l 790 0 l 790 110 l 222 110 l 222 113 l 779 892 l 779 979 l 85 979 l 85 869 l 626 869 l 626 866 l 66 87 l 66 0 m 429 -267 q 481 -245 460 -267 q 503 -193 503 -224 q 481 -141 503 -162 q 429 -119 460 -119 q 376 -141 398 -119 q 355 -193 355 -162 q 376 -245 355 -224 q 429 -267 398 -267 z "},"Ż":{"ha":857,"x_min":66,"x_max":790,"o":"m 66 0 l 790 0 l 790 110 l 222 110 l 222 113 l 779 892 l 779 979 l 85 979 l 85 869 l 626 869 l 626 866 l 66 87 l 66 0 m 428 1092 q 478 1113 458 1092 q 498 1162 498 1133 q 478 1212 498 1192 q 428 1232 458 1232 q 379 1212 399 1232 q 358 1162 358 1192 q 379 1113 358 1133 q 428 1092 399 1092 z "},"Æ":{"ha":1311,"x_min":3,"x_max":1245,"o":"m 3 0 l 129 0 l 563 876 l 716 876 l 716 979 l 488 979 l 3 0 m 216 311 l 716 311 l 716 415 l 265 415 l 216 311 m 652 0 l 1245 0 l 1245 110 l 774 110 l 774 439 l 1220 439 l 1220 548 l 774 548 l 774 869 l 1245 869 l 1245 979 l 652 979 l 652 0 z "},"Ǣ":{"ha":1311,"x_min":3,"x_max":1245,"o":"m 3 0 l 129 0 l 563 876 l 716 876 l 716 979 l 488 979 l 3 0 m 216 311 l 716 311 l 716 415 l 265 415 l 216 311 m 652 0 l 1245 0 l 1245 110 l 774 110 l 774 439 l 1220 439 l 1220 548 l 774 548 l 774 869 l 1245 869 l 1245 979 l 652 979 l 652 0 m 677 1114 l 1037 1114 l 1037 1200 l 677 1200 l 677 1114 z "},"Ǽ":{"ha":1311,"x_min":3,"x_max":1245,"o":"m 3 0 l 129 0 l 563 876 l 716 876 l 716 979 l 488 979 l 3 0 m 216 311 l 716 311 l 716 415 l 265 415 l 216 311 m 652 0 l 1245 0 l 1245 110 l 774 110 l 774 439 l 1220 439 l 1220 548 l 774 548 l 774 869 l 1245 869 l 1245 979 l 652 979 l 652 0 m 891 1057 l 1034 1253 l 912 1253 l 802 1057 l 891 1057 z "},"Œ":{"ha":1503,"x_min":57,"x_max":1437,"o":"m 513 -16 q 647 4 585 -16 q 760 62 710 24 q 844 155 810 100 l 844 155 l 844 0 l 1437 0 l 1437 110 l 966 110 l 966 446 l 1411 446 l 1411 555 l 966 555 l 966 869 l 1437 869 l 1437 979 l 844 979 l 844 827 l 844 827 q 761 918 810 881 q 648 975 711 956 q 513 995 586 995 q 271 933 373 995 q 113 758 168 871 q 57 490 57 645 l 57 488 q 113 220 57 333 q 271 45 168 107 q 513 -16 373 -16 m 513 96 q 337 144 412 96 q 222 280 262 193 q 182 488 182 368 l 182 490 q 222 699 182 610 q 337 834 262 787 q 513 882 412 882 q 688 834 614 882 q 802 698 762 786 q 842 490 842 610 l 842 488 q 802 280 842 368 q 688 144 762 193 q 513 96 614 96 z "},"Þ":{"ha":836,"x_min":109,"x_max":770,"o":"m 179 234 l 482 234 q 623 267 557 234 q 729 364 688 300 q 770 516 770 427 l 770 517 q 729 670 770 607 q 624 765 689 732 q 484 798 558 798 l 179 798 l 179 690 l 449 690 q 589 647 534 690 q 645 517 645 604 l 645 516 q 589 386 645 429 q 449 342 534 342 l 179 342 l 179 234 m 109 0 l 231 0 l 231 979 l 109 979 l 109 0 z "},"Ǳ":{"ha":1799,"x_min":95,"x_max":1733,"o":"m 95 0 l 424 0 q 673 58 570 0 q 831 226 776 116 q 886 490 886 336 l 886 491 q 830 754 886 645 q 672 921 775 863 q 424 979 569 979 l 95 979 l 95 0 m 217 110 l 217 869 l 416 869 q 604 825 527 869 q 721 696 681 781 q 761 490 761 612 l 761 488 q 721 282 761 367 q 604 154 681 198 q 416 110 527 110 l 217 110 m 1009 0 l 1733 0 l 1733 110 l 1164 110 l 1164 113 l 1721 892 l 1721 979 l 1028 979 l 1028 869 l 1569 869 l 1569 866 l 1009 87 l 1009 0 z "},"Ǆ":{"ha":1799,"x_min":95,"x_max":1733,"o":"m 95 0 l 424 0 q 673 58 570 0 q 831 226 776 116 q 886 490 886 336 l 886 491 q 830 754 886 645 q 672 921 775 863 q 424 979 569 979 l 95 979 l 95 0 m 217 110 l 217 869 l 416 869 q 604 825 527 869 q 721 696 681 781 q 761 490 761 612 l 761 488 q 721 282 761 367 q 604 154 681 198 q 416 110 527 110 l 217 110 m 1009 0 l 1733 0 l 1733 110 l 1164 110 l 1164 113 l 1721 892 l 1721 979 l 1028 979 l 1028 869 l 1569 869 l 1569 866 l 1009 87 l 1009 0 m 1569 1253 l 1470 1253 l 1364 1105 l 1379 1105 l 1273 1253 l 1173 1253 l 1318 1057 l 1424 1057 l 1569 1253 z "},"Ǉ":{"ha":1416,"x_min":95,"x_max":1321,"o":"m 95 0 l 689 0 l 689 110 l 217 110 l 217 979 l 95 979 l 95 0 m 1033 -16 q 1245 62 1168 -16 q 1321 279 1321 140 l 1321 979 l 1199 979 l 1199 280 q 1156 143 1199 191 q 1032 96 1114 96 q 951 115 984 96 q 901 164 919 134 q 880 232 884 195 l 879 239 l 757 239 l 758 229 q 796 104 763 159 q 888 16 829 48 q 1033 -16 948 -16 z "},"Ǌ":{"ha":1659,"x_min":95,"x_max":1564,"o":"m 95 0 l 216 0 l 216 772 l 270 772 l 115 922 l 758 0 l 876 0 l 876 979 l 755 979 l 755 206 l 701 206 l 856 57 l 214 979 l 95 979 l 95 0 m 1276 -16 q 1488 62 1411 -16 q 1564 279 1564 140 l 1564 979 l 1442 979 l 1442 280 q 1399 143 1442 191 q 1275 96 1356 96 q 1194 115 1227 96 q 1144 164 1162 134 q 1122 232 1126 195 l 1122 239 l 1000 239 l 1000 229 q 1039 104 1006 159 q 1131 16 1072 48 q 1276 -16 1191 -16 z "},"Α":{"ha":882,"x_min":17,"x_max":865,"o":"m 17 0 l 145 0 l 440 832 l 471 832 l 471 979 l 381 979 l 17 0 m 184 280 l 699 280 l 659 384 l 224 384 l 184 280 m 737 0 l 865 0 l 502 979 l 443 979 l 443 832 l 737 0 z "},"Β":{"ha":840,"x_min":95,"x_max":796,"o":"m 156 0 l 465 0 q 643 33 569 0 q 756 127 717 66 q 796 275 796 189 l 796 276 q 769 392 796 341 q 691 476 742 444 q 570 517 640 509 l 570 519 q 661 558 621 527 q 724 636 701 590 q 747 733 747 682 l 747 734 q 711 863 747 808 q 613 948 676 918 q 466 979 550 979 l 156 979 l 156 871 l 438 871 q 575 832 527 871 q 623 722 623 794 l 623 720 q 566 599 623 641 q 400 557 509 557 l 156 557 l 156 452 l 435 452 q 565 433 513 452 q 644 376 618 414 q 671 281 671 338 l 671 279 q 613 152 671 195 q 446 108 556 108 l 156 108 l 156 0 m 95 0 l 217 0 l 217 979 l 95 979 l 95 0 z "},"Γ":{"ha":720,"x_min":95,"x_max":675,"o":"m 217 0 l 217 869 l 675 869 l 675 979 l 95 979 l 95 0 l 217 0 z "},"Δ":{"ha":880,"x_min":37,"x_max":843,"o":"m 37 0 l 843 0 l 843 86 l 500 979 l 380 979 l 37 86 l 37 0 m 174 110 l 174 115 l 438 837 l 442 837 l 707 115 l 707 110 l 174 110 z "},"∆":{"ha":880,"x_min":37,"x_max":843,"o":"m 37 0 l 843 0 l 843 86 l 500 979 l 380 979 l 37 86 l 37 0 m 174 110 l 174 115 l 438 837 l 442 837 l 707 115 l 707 110 l 174 110 z "},"Ε":{"ha":767,"x_min":95,"x_max":701,"o":"m 95 0 l 701 0 l 701 110 l 217 110 l 217 446 l 676 446 l 676 555 l 217 555 l 217 869 l 701 869 l 701 979 l 95 979 l 95 0 z "},"Ζ":{"ha":857,"x_min":66,"x_max":790,"o":"m 66 0 l 790 0 l 790 110 l 222 110 l 222 113 l 779 892 l 779 979 l 85 979 l 85 869 l 626 869 l 626 866 l 66 87 l 66 0 z "},"Η":{"ha":971,"x_min":95,"x_max":876,"o":"m 95 0 l 217 0 l 217 446 l 754 446 l 754 0 l 876 0 l 876 979 l 754 979 l 754 555 l 217 555 l 217 979 l 95 979 l 95 0 z "},"Θ":{"ha":1025,"x_min":57,"x_max":968,"o":"m 513 -16 q 755 45 654 -16 q 912 220 857 107 q 968 489 968 334 l 968 490 q 912 759 968 646 q 755 933 857 871 q 513 995 653 995 q 271 933 374 995 q 113 759 168 871 q 57 490 57 646 l 57 489 q 113 220 57 334 q 271 45 168 107 q 513 -16 373 -16 m 513 96 q 335 144 410 96 q 218 281 259 193 q 177 489 177 369 l 177 490 q 218 699 177 611 q 335 834 259 787 q 513 882 410 882 q 691 834 616 882 q 807 699 766 787 q 848 490 848 610 l 848 489 q 808 281 848 370 q 692 145 768 193 q 513 96 617 96 m 317 437 l 707 437 l 707 543 l 317 543 l 317 437 z "},"Ι":{"ha":312,"x_min":95,"x_max":217,"o":"m 95 0 l 217 0 l 217 979 l 95 979 l 95 0 z "},"Κ":{"ha":834,"x_min":95,"x_max":825,"o":"m 207 331 l 394 537 l 400 537 l 789 979 l 636 979 l 221 498 l 207 498 l 207 331 m 95 0 l 217 0 l 217 979 l 95 979 l 95 0 m 669 0 l 825 0 l 401 553 l 315 467 l 669 0 z "},"Λ":{"ha":849,"x_min":17,"x_max":832,"o":"m 17 0 l 145 0 l 422 823 l 427 823 l 704 0 l 832 0 l 485 979 l 364 979 l 17 0 z "},"Μ":{"ha":1154,"x_min":95,"x_max":1059,"o":"m 95 0 l 209 0 l 209 756 l 264 756 l 132 951 l 526 0 l 629 0 l 1022 951 l 890 756 l 945 756 l 945 0 l 1059 0 l 1059 979 l 918 979 l 579 154 l 575 154 l 236 979 l 95 979 l 95 0 z "},"Ν":{"ha":971,"x_min":95,"x_max":876,"o":"m 95 0 l 216 0 l 216 772 l 270 772 l 115 922 l 758 0 l 876 0 l 876 979 l 755 979 l 755 206 l 701 206 l 856 57 l 214 979 l 95 979 l 95 0 z "},"Ξ":{"ha":850,"x_min":66,"x_max":784,"o":"m 66 869 l 784 869 l 784 979 l 66 979 l 66 869 m 66 0 l 784 0 l 784 110 l 66 110 l 66 0 m 125 446 l 725 446 l 725 555 l 125 555 l 125 446 z "},"Ο":{"ha":1016,"x_min":57,"x_max":959,"o":"m 509 -16 q 748 45 648 -16 q 904 220 849 107 q 959 489 959 334 l 959 490 q 904 759 959 646 q 748 933 849 871 q 509 995 647 995 q 269 933 370 995 q 112 759 168 871 q 57 490 57 646 l 57 489 q 112 220 57 334 q 268 45 167 107 q 509 -16 370 -16 m 509 96 q 335 144 408 96 q 222 281 262 193 q 182 489 182 369 l 182 490 q 222 699 182 611 q 335 834 262 787 q 509 882 409 882 q 682 834 608 882 q 794 699 755 787 q 834 490 834 610 l 834 489 q 795 281 834 370 q 683 145 755 193 q 509 96 610 96 z "},"Π":{"ha":958,"x_min":95,"x_max":863,"o":"m 863 0 l 863 979 l 95 979 l 95 0 l 217 0 l 217 869 l 741 869 l 741 0 l 863 0 z "},"Ρ":{"ha":802,"x_min":95,"x_max":758,"o":"m 156 349 l 444 349 q 606 389 536 349 q 717 500 677 429 q 758 665 758 572 l 758 666 q 717 829 758 759 q 606 939 677 900 q 444 979 536 979 l 156 979 l 156 870 l 412 870 q 575 816 517 870 q 633 665 633 762 l 633 663 q 575 512 633 567 q 412 458 517 458 l 156 458 l 156 349 m 95 0 l 217 0 l 217 979 l 95 979 l 95 0 z "},"Ʃ":{"ha":836,"x_min":66,"x_max":770,"o":"m 66 0 l 770 0 l 770 110 l 214 110 l 214 115 l 481 498 l 481 503 l 229 864 l 229 869 l 751 869 l 751 979 l 78 979 l 78 882 l 351 492 l 66 87 l 66 0 z "},"Σ":{"ha":836,"x_min":66,"x_max":770,"o":"m 66 0 l 770 0 l 770 110 l 214 110 l 214 115 l 481 498 l 481 503 l 229 864 l 229 869 l 751 869 l 751 979 l 78 979 l 78 882 l 351 492 l 66 87 l 66 0 z "},"Τ":{"ha":807,"x_min":34,"x_max":773,"o":"m 342 0 l 465 0 l 465 869 l 773 869 l 773 979 l 34 979 l 34 869 l 342 869 l 342 0 z "},"Υ":{"ha":850,"x_min":17,"x_max":833,"o":"m 364 0 l 486 0 l 486 421 l 833 979 l 694 979 l 427 539 l 423 539 l 156 979 l 17 979 l 364 421 l 364 0 z "},"Φ":{"ha":1104,"x_min":50,"x_max":1054,"o":"m 491 -39 l 613 -39 l 613 58 q 847 118 748 64 q 1000 267 946 173 q 1054 486 1054 361 l 1054 487 q 1000 707 1054 612 q 847 856 946 801 q 613 916 748 910 l 613 1015 l 491 1015 l 491 916 q 257 856 356 910 q 104 707 158 801 q 50 487 50 612 l 50 486 q 104 267 50 361 q 257 118 158 173 q 491 58 356 64 l 491 -39 m 491 167 q 322 210 393 171 q 213 320 251 250 q 175 486 175 391 l 175 487 q 259 716 175 631 q 491 807 343 802 l 491 167 m 613 167 l 613 807 q 845 716 761 802 q 929 487 929 631 l 929 486 q 891 320 929 391 q 783 210 853 250 q 613 167 712 171 z "},"Χ":{"ha":882,"x_min":31,"x_max":851,"o":"m 31 0 l 169 0 l 462 433 l 381 391 l 437 391 l 697 0 l 844 0 l 484 528 l 513 434 l 513 488 l 851 979 l 712 979 l 418 541 l 499 585 l 444 585 l 182 979 l 35 979 l 364 494 l 364 440 l 393 534 l 31 0 z "},"Ψ":{"ha":1070,"x_min":81,"x_max":989,"o":"m 474 0 l 596 0 l 596 230 q 802 277 714 230 q 940 410 890 325 q 989 609 989 496 l 989 979 l 867 979 l 867 613 q 797 416 867 486 q 596 342 726 346 l 596 979 l 474 979 l 474 342 q 274 416 344 346 q 203 613 203 486 l 203 979 l 81 979 l 81 609 q 131 410 81 496 q 268 278 180 325 q 474 230 356 231 l 474 0 z "},"Ω":{"ha":1036,"x_min":71,"x_max":966,"o":"m 71 0 l 427 0 l 427 131 q 252 308 309 210 q 195 537 195 406 l 195 538 q 234 721 195 644 q 346 840 273 798 q 518 882 418 882 q 691 840 618 882 q 802 721 763 798 q 841 538 841 644 l 841 537 q 784 308 841 406 q 609 131 728 210 l 609 0 l 966 0 l 966 110 l 755 110 l 755 115 q 910 295 855 184 q 966 540 966 406 l 966 541 q 909 778 966 675 q 752 937 853 880 q 518 995 652 995 q 284 937 385 995 q 127 778 183 880 q 71 541 71 675 l 71 540 q 126 295 71 406 q 281 115 181 184 l 281 110 l 71 110 l 71 0 z "},"Ω":{"ha":1036,"x_min":71,"x_max":966,"o":"m 71 0 l 427 0 l 427 131 q 252 308 309 210 q 195 537 195 406 l 195 538 q 234 721 195 644 q 346 840 273 798 q 518 882 418 882 q 691 840 618 882 q 802 721 763 798 q 841 538 841 644 l 841 537 q 784 308 841 406 q 609 131 728 210 l 609 0 l 966 0 l 966 110 l 755 110 l 755 115 q 910 295 855 184 q 966 540 966 406 l 966 541 q 909 778 966 675 q 752 937 853 880 q 518 995 652 995 q 284 937 385 995 q 127 778 183 880 q 71 541 71 675 l 71 540 q 126 295 71 406 q 281 115 181 184 l 281 110 l 71 110 l 71 0 z "},"Ά":{"ha":882,"x_min":17,"x_max":865,"o":"m 186 775 l 277 979 l 157 979 l 95 775 l 186 775 m 17 0 l 145 0 l 440 832 l 471 832 l 471 979 l 381 979 l 17 0 m 184 280 l 699 280 l 659 384 l 224 384 l 184 280 m 737 0 l 865 0 l 502 979 l 443 979 l 443 832 l 737 0 z "},"Έ":{"ha":953,"x_min":17,"x_max":887,"o":"m 109 775 l 199 979 l 79 979 l 17 775 l 109 775 m 281 0 l 887 0 l 887 110 l 403 110 l 403 446 l 862 446 l 862 555 l 403 555 l 403 869 l 887 869 l 887 979 l 281 979 l 281 0 z "},"Ή":{"ha":1157,"x_min":17,"x_max":1062,"o":"m 109 775 l 199 979 l 79 979 l 17 775 l 109 775 m 281 0 l 403 0 l 403 446 l 940 446 l 940 0 l 1062 0 l 1062 979 l 940 979 l 940 555 l 403 555 l 403 979 l 281 979 l 281 0 z "},"Ί":{"ha":498,"x_min":17,"x_max":403,"o":"m 109 775 l 199 979 l 79 979 l 17 775 l 109 775 m 281 0 l 403 0 l 403 979 l 281 979 l 281 0 z "},"Ϊ":{"ha":312,"x_min":-33,"x_max":345,"o":"m 95 0 l 217 0 l 217 979 l 95 979 l 95 0 m 35 1090 q 82 1109 62 1090 q 101 1157 101 1129 q 82 1204 101 1185 q 35 1224 62 1224 q -13 1204 7 1224 q -33 1157 -33 1185 q -13 1109 -33 1129 q 35 1090 7 1090 m 277 1090 q 325 1109 306 1090 q 345 1157 345 1129 q 325 1204 345 1185 q 277 1224 306 1224 q 231 1204 250 1224 q 211 1157 211 1185 q 231 1109 211 1129 q 277 1090 250 1090 z "},"Ό":{"ha":1108,"x_min":17,"x_max":1051,"o":"m 109 775 l 199 979 l 79 979 l 17 775 l 109 775 m 601 -16 q 841 45 740 -16 q 996 220 941 107 q 1051 489 1051 334 l 1051 490 q 996 759 1051 646 q 840 933 941 871 q 601 995 739 995 q 361 933 463 995 q 204 759 260 871 q 149 490 149 646 l 149 489 q 204 220 149 334 q 360 45 259 107 q 601 -16 462 -16 m 601 96 q 427 144 500 96 q 314 281 354 193 q 274 489 274 369 l 274 490 q 314 699 274 611 q 428 834 354 787 q 601 882 501 882 q 774 834 701 882 q 887 699 847 787 q 926 490 926 610 l 926 489 q 887 281 926 370 q 775 145 848 193 q 601 96 702 96 z "},"Ύ":{"ha":1072,"x_min":17,"x_max":1055,"o":"m 109 775 l 199 979 l 79 979 l 17 775 l 109 775 m 585 0 l 707 0 l 707 421 l 1055 979 l 916 979 l 648 539 l 644 539 l 377 979 l 238 979 l 585 421 l 585 0 z "},"Ϋ":{"ha":850,"x_min":17,"x_max":833,"o":"m 364 0 l 486 0 l 486 421 l 833 979 l 694 979 l 427 539 l 423 539 l 156 979 l 17 979 l 364 421 l 364 0 m 304 1090 q 351 1109 332 1090 q 370 1157 370 1129 q 351 1204 370 1185 q 304 1224 332 1224 q 256 1204 276 1224 q 237 1157 237 1185 q 256 1109 237 1129 q 304 1090 276 1090 m 547 1090 q 594 1109 575 1090 q 614 1157 614 1129 q 594 1204 614 1185 q 547 1224 575 1224 q 500 1204 519 1224 q 480 1157 480 1185 q 500 1109 480 1129 q 547 1090 519 1090 z "},"Ώ":{"ha":1113,"x_min":17,"x_max":1042,"o":"m 109 775 l 199 979 l 79 979 l 17 775 l 109 775 m 147 0 l 504 0 l 504 131 q 329 308 385 210 q 272 537 272 406 l 272 538 q 311 721 272 644 q 422 840 350 798 q 595 882 495 882 q 767 840 695 882 q 879 721 840 798 q 918 538 918 644 l 918 537 q 861 308 918 406 q 686 131 804 210 l 686 0 l 1042 0 l 1042 110 l 831 110 l 831 115 q 987 295 932 184 q 1042 540 1042 406 l 1042 541 q 986 778 1042 675 q 829 937 930 880 q 595 995 728 995 q 360 937 461 995 q 203 778 260 880 q 147 541 147 675 l 147 540 q 202 295 147 406 q 358 115 258 184 l 358 110 l 147 110 l 147 0 z "},"Ϝ":{"ha":726,"x_min":102,"x_max":682,"o":"m 224 0 l 224 869 l 682 869 l 682 979 l 102 979 l 102 0 l 224 0 m 102 433 l 682 433 l 682 543 l 102 543 l 102 433 z "},"∇":{"ha":880,"x_min":37,"x_max":843,"o":"m 843 979 l 37 979 l 37 892 l 380 0 l 500 0 l 843 892 l 843 979 m 707 869 l 707 864 l 442 142 l 438 142 l 174 864 l 174 869 l 707 869 z "},"А":{"ha":896,"x_min":24,"x_max":872,"o":"m 24 0 l 152 0 l 447 832 l 478 832 l 478 979 l 388 979 l 24 0 m 191 280 l 706 280 l 665 384 l 231 384 l 191 280 m 744 0 l 872 0 l 509 979 l 450 979 l 450 832 l 744 0 z "},"Ӑ":{"ha":896,"x_min":24,"x_max":872,"o":"m 24 0 l 152 0 l 447 832 l 478 832 l 478 979 l 388 979 l 24 0 m 191 280 l 706 280 l 665 384 l 231 384 l 191 280 m 744 0 l 872 0 l 509 979 l 450 979 l 450 832 l 744 0 m 451 1056 q 559 1080 514 1056 q 628 1146 604 1105 q 652 1240 652 1188 l 652 1243 l 556 1243 l 556 1240 q 529 1165 556 1197 q 452 1134 502 1134 q 374 1165 400 1134 q 347 1240 347 1197 l 347 1243 l 252 1243 l 252 1240 q 275 1146 252 1188 q 344 1080 299 1105 q 451 1056 389 1056 z "},"Ӓ":{"ha":896,"x_min":24,"x_max":872,"o":"m 24 0 l 152 0 l 447 832 l 478 832 l 478 979 l 388 979 l 24 0 m 191 280 l 706 280 l 665 384 l 231 384 l 191 280 m 744 0 l 872 0 l 509 979 l 450 979 l 450 832 l 744 0 m 327 1090 q 374 1109 355 1090 q 393 1157 393 1129 q 374 1204 393 1185 q 327 1224 355 1224 q 279 1204 299 1224 q 260 1157 260 1185 q 279 1109 260 1129 q 327 1090 299 1090 m 570 1090 q 617 1109 598 1090 q 637 1157 637 1129 q 617 1204 637 1185 q 570 1224 598 1224 q 523 1204 543 1224 q 503 1157 503 1185 q 523 1109 503 1129 q 570 1090 543 1090 z "},"Б":{"ha":852,"x_min":102,"x_max":771,"o":"m 102 0 l 458 0 q 621 37 550 0 q 731 141 691 75 q 771 293 771 207 l 771 294 q 731 447 771 381 q 620 551 690 513 q 456 589 549 589 l 224 589 l 224 869 l 673 869 l 673 979 l 102 979 l 102 0 m 224 110 l 224 479 l 426 479 q 589 431 531 479 q 646 294 646 383 l 646 293 q 589 157 646 205 q 426 110 531 110 l 224 110 z "},"В":{"ha":853,"x_min":102,"x_max":803,"o":"m 163 0 l 471 0 q 650 33 576 0 q 763 127 724 66 q 803 275 803 189 l 803 276 q 776 392 803 341 q 698 476 749 444 q 576 517 647 509 l 576 519 q 667 558 627 527 q 730 636 707 590 q 753 733 753 682 l 753 734 q 718 863 753 808 q 620 948 683 918 q 473 979 557 979 l 163 979 l 163 871 l 445 871 q 582 832 534 871 q 630 722 630 794 l 630 720 q 573 599 630 641 q 407 557 515 557 l 163 557 l 163 452 l 441 452 q 572 433 519 452 q 651 376 625 414 q 677 281 677 338 l 677 279 q 620 152 677 195 q 453 108 563 108 l 163 108 l 163 0 m 102 0 l 224 0 l 224 979 l 102 979 l 102 0 z "},"Г":{"ha":726,"x_min":102,"x_max":682,"o":"m 224 0 l 224 869 l 682 869 l 682 979 l 102 979 l 102 0 l 224 0 z "},"Ѓ":{"ha":726,"x_min":102,"x_max":682,"o":"m 224 0 l 224 869 l 682 869 l 682 979 l 102 979 l 102 0 l 224 0 m 417 1057 l 559 1253 l 438 1253 l 328 1057 l 417 1057 z "},"Ґ":{"ha":726,"x_min":102,"x_max":682,"o":"m 224 0 l 224 869 l 682 869 l 682 979 l 102 979 l 102 0 l 224 0 m 570 1172 l 570 979 l 438 979 l 438 869 l 682 869 l 682 1172 l 570 1172 z "},"Ӷ":{"ha":726,"x_min":102,"x_max":682,"o":"m 233 -193 l 346 -193 l 346 110 l 102 110 l 102 0 l 233 0 l 233 -193 m 224 0 l 224 869 l 682 869 l 682 979 l 102 979 l 102 0 l 224 0 z "},"Ғ":{"ha":760,"x_min":34,"x_max":716,"o":"m 258 0 l 258 869 l 716 869 l 716 979 l 136 979 l 136 0 l 258 0 m 34 437 l 461 437 l 461 539 l 34 539 l 34 437 z "},"Ӻ":{"ha":760,"x_min":-12,"x_max":716,"o":"m 258 0 l 258 869 l 716 869 l 716 979 l 136 979 l 136 0 l 258 0 m 34 437 l 461 437 l 461 539 l 34 539 l 34 437 m 257 14 l 135 14 l 135 -39 q 112 -115 135 -90 q 41 -140 89 -140 q 13 -139 26 -140 q -12 -137 -1 -138 l -12 -233 q 20 -236 1 -235 q 60 -237 40 -237 q 208 -189 159 -237 q 257 -39 257 -140 l 257 14 z "},"Д":{"ha":1004,"x_min":20,"x_max":963,"o":"m 134 -193 l 134 0 l 850 0 l 850 -193 l 963 -193 l 963 110 l 841 110 l 841 979 l 235 979 l 198 363 q 183 249 195 299 q 151 164 172 199 q 93 110 129 129 l 20 110 l 20 -193 l 134 -193 m 313 360 l 345 869 l 719 869 l 719 110 l 244 110 l 244 115 q 282 180 269 144 q 302 260 296 215 q 313 360 309 304 z "},"Е":{"ha":781,"x_min":102,"x_max":708,"o":"m 102 0 l 708 0 l 708 110 l 224 110 l 224 446 l 683 446 l 683 555 l 224 555 l 224 869 l 708 869 l 708 979 l 102 979 l 102 0 z "},"Ё":{"ha":781,"x_min":102,"x_max":708,"o":"m 102 0 l 708 0 l 708 110 l 224 110 l 224 446 l 683 446 l 683 555 l 224 555 l 224 869 l 708 869 l 708 979 l 102 979 l 102 0 m 283 1090 q 331 1109 311 1090 q 350 1157 350 1129 q 331 1204 350 1185 q 283 1224 311 1224 q 236 1204 256 1224 q 216 1157 216 1185 q 236 1109 216 1129 q 283 1090 256 1090 m 526 1090 q 574 1109 555 1090 q 593 1157 593 1129 q 574 1204 593 1185 q 526 1224 555 1224 q 479 1204 499 1224 q 460 1157 460 1185 q 479 1109 460 1129 q 526 1090 499 1090 z "},"Ӗ":{"ha":781,"x_min":102,"x_max":708,"o":"m 102 0 l 708 0 l 708 110 l 224 110 l 224 446 l 683 446 l 683 555 l 224 555 l 224 869 l 708 869 l 708 979 l 102 979 l 102 0 m 408 1056 q 515 1080 471 1056 q 584 1146 560 1105 q 608 1240 608 1188 l 608 1243 l 513 1243 l 513 1240 q 486 1165 513 1197 q 408 1134 458 1134 q 330 1165 357 1134 q 304 1240 304 1197 l 304 1243 l 208 1243 l 208 1240 q 232 1146 208 1188 q 300 1080 256 1105 q 408 1056 345 1056 z "},"Ѐ":{"ha":781,"x_min":102,"x_max":708,"o":"m 102 0 l 708 0 l 708 110 l 224 110 l 224 446 l 683 446 l 683 555 l 224 555 l 224 869 l 708 869 l 708 979 l 102 979 l 102 0 m 375 1057 l 465 1057 l 354 1253 l 233 1253 l 375 1057 z "},"Ж":{"ha":1322,"x_min":14,"x_max":1309,"o":"m 722 549 l 722 979 l 600 979 l 600 549 l 566 549 l 209 979 l 58 979 l 475 501 l 475 520 l 14 0 l 178 0 l 566 451 l 600 451 l 600 0 l 722 0 l 722 451 l 756 451 l 1145 0 l 1309 0 l 847 520 l 847 501 l 1265 979 l 1114 979 l 756 549 l 722 549 z "},"Ӂ":{"ha":1322,"x_min":14,"x_max":1309,"o":"m 722 549 l 722 979 l 600 979 l 600 549 l 566 549 l 209 979 l 58 979 l 475 501 l 475 520 l 14 0 l 178 0 l 566 451 l 600 451 l 600 0 l 722 0 l 722 451 l 756 451 l 1145 0 l 1309 0 l 847 520 l 847 501 l 1265 979 l 1114 979 l 756 549 l 722 549 m 665 1056 q 772 1080 728 1056 q 841 1146 817 1105 q 865 1240 865 1188 l 865 1243 l 770 1243 l 770 1240 q 743 1165 770 1197 q 665 1134 715 1134 q 587 1165 614 1134 q 561 1240 561 1197 l 561 1243 l 465 1243 l 465 1240 q 489 1146 465 1188 q 557 1080 513 1105 q 665 1056 602 1056 z "},"Ӝ":{"ha":1322,"x_min":14,"x_max":1309,"o":"m 722 549 l 722 979 l 600 979 l 600 549 l 566 549 l 209 979 l 58 979 l 475 501 l 475 520 l 14 0 l 178 0 l 566 451 l 600 451 l 600 0 l 722 0 l 722 451 l 756 451 l 1145 0 l 1309 0 l 847 520 l 847 501 l 1265 979 l 1114 979 l 756 549 l 722 549 m 541 1090 q 588 1109 568 1090 q 607 1157 607 1129 q 588 1204 607 1185 q 541 1224 568 1224 q 493 1204 513 1224 q 473 1157 473 1185 q 493 1109 473 1129 q 541 1090 513 1090 m 783 1090 q 831 1109 812 1090 q 850 1157 850 1129 q 831 1204 850 1185 q 783 1224 812 1224 q 736 1204 756 1224 q 717 1157 717 1185 q 736 1109 717 1129 q 783 1090 756 1090 z "},"Җ":{"ha":1385,"x_min":14,"x_max":1345,"o":"m 722 549 l 722 979 l 600 979 l 600 549 l 566 549 l 209 979 l 58 979 l 475 501 l 475 520 l 14 0 l 178 0 l 566 451 l 600 451 l 600 0 l 722 0 l 722 451 l 756 451 l 1145 0 l 1309 0 l 847 520 l 847 501 l 1265 979 l 1114 979 l 756 549 l 722 549 m 1232 -193 l 1345 -193 l 1345 110 l 1152 110 l 1152 0 l 1232 0 l 1232 -193 z "},"З":{"ha":812,"x_min":51,"x_max":762,"o":"m 265 445 l 407 445 q 576 398 516 445 q 637 268 637 351 l 637 267 q 609 177 637 215 q 531 117 581 138 q 412 96 480 96 q 291 114 342 96 q 209 166 239 132 q 172 250 178 201 l 172 255 l 51 255 l 52 246 q 103 109 58 168 q 229 17 149 50 q 413 -16 308 -16 q 591 21 513 -16 q 716 121 670 58 q 762 263 762 184 l 762 264 q 706 429 762 363 q 553 507 650 494 l 553 513 q 683 595 633 532 q 733 739 733 658 l 733 741 q 693 872 733 815 q 581 962 652 930 q 415 995 509 995 q 243 964 317 995 q 127 876 170 933 q 78 737 84 818 l 77 728 l 198 728 l 199 738 q 232 815 205 783 q 304 865 259 848 q 410 882 349 882 q 517 864 473 882 q 585 811 562 846 q 608 730 608 777 l 608 728 q 552 604 608 652 q 401 555 495 555 l 265 555 l 265 445 z "},"Ӟ":{"ha":812,"x_min":51,"x_max":762,"o":"m 265 445 l 407 445 q 576 398 516 445 q 637 268 637 351 l 637 267 q 609 177 637 215 q 531 117 581 138 q 412 96 480 96 q 291 114 342 96 q 209 166 239 132 q 172 250 178 201 l 172 255 l 51 255 l 52 246 q 103 109 58 168 q 229 17 149 50 q 413 -16 308 -16 q 591 21 513 -16 q 716 121 670 58 q 762 263 762 184 l 762 264 q 706 429 762 363 q 553 507 650 494 l 553 513 q 683 595 633 532 q 733 739 733 658 l 733 741 q 693 872 733 815 q 581 962 652 930 q 415 995 509 995 q 243 964 317 995 q 127 876 170 933 q 78 737 84 818 l 77 728 l 198 728 l 199 738 q 232 815 205 783 q 304 865 259 848 q 410 882 349 882 q 517 864 473 882 q 585 811 562 846 q 608 730 608 777 l 608 728 q 552 604 608 652 q 401 555 495 555 l 265 555 l 265 445 m 290 1090 q 337 1109 317 1090 q 356 1157 356 1129 q 337 1204 356 1185 q 290 1224 317 1224 q 242 1204 262 1224 q 222 1157 222 1185 q 242 1109 222 1129 q 290 1090 262 1090 m 532 1090 q 580 1109 561 1090 q 600 1157 600 1129 q 580 1204 600 1185 q 532 1224 561 1224 q 486 1204 505 1224 q 466 1157 466 1185 q 486 1109 466 1129 q 532 1090 505 1090 z "},"Ҙ":{"ha":812,"x_min":51,"x_max":762,"o":"m 467 17 l 351 17 l 351 -194 l 467 -194 l 467 17 m 265 445 l 407 445 q 576 398 516 445 q 637 268 637 351 l 637 267 q 609 177 637 215 q 531 117 581 138 q 412 96 480 96 q 291 114 342 96 q 209 166 239 132 q 172 250 178 201 l 172 255 l 51 255 l 52 246 q 103 109 58 168 q 229 17 149 50 q 413 -16 308 -16 q 591 21 513 -16 q 716 121 670 58 q 762 263 762 184 l 762 264 q 706 429 762 363 q 553 507 650 494 l 553 513 q 683 595 633 532 q 733 739 733 658 l 733 741 q 693 872 733 815 q 581 962 652 930 q 415 995 509 995 q 243 964 317 995 q 127 876 170 933 q 78 737 84 818 l 77 728 l 198 728 l 199 738 q 232 815 205 783 q 304 865 259 848 q 410 882 349 882 q 517 864 473 882 q 585 811 562 846 q 608 730 608 777 l 608 728 q 552 604 608 652 q 401 555 495 555 l 265 555 l 265 445 z "},"Ԑ":{"ha":812,"x_min":51,"x_max":762,"o":"m 547 445 l 547 555 l 411 555 q 261 604 317 555 q 204 728 204 652 l 204 730 q 228 811 204 777 q 295 864 251 846 q 402 882 340 882 q 509 865 464 882 q 580 815 553 848 q 613 738 607 783 l 614 728 l 735 728 l 734 737 q 686 876 729 818 q 569 964 643 933 q 397 995 496 995 q 232 962 304 995 q 120 872 160 930 q 79 741 79 815 l 79 739 q 130 595 79 658 q 260 513 180 532 l 260 507 q 106 429 162 494 q 51 264 51 363 l 51 263 q 97 121 51 184 q 221 21 142 58 q 399 -16 300 -16 q 584 17 505 -16 q 709 109 663 50 q 761 246 755 168 l 762 255 l 641 255 l 640 250 q 604 166 634 201 q 522 114 573 132 q 401 96 470 96 q 282 117 333 96 q 203 177 231 138 q 176 267 176 215 l 176 268 q 236 398 176 351 q 406 445 296 445 l 547 445 z "},"И":{"ha":985,"x_min":102,"x_max":883,"o":"m 102 0 l 220 0 l 788 818 l 707 775 l 762 775 l 762 0 l 883 0 l 883 979 l 764 979 l 197 158 l 278 201 l 222 201 l 222 979 l 102 979 l 102 0 z "},"Й":{"ha":985,"x_min":102,"x_max":883,"o":"m 102 0 l 220 0 l 788 818 l 707 775 l 762 775 l 762 0 l 883 0 l 883 979 l 764 979 l 197 158 l 278 201 l 222 201 l 222 979 l 102 979 l 102 0 m 494 1056 q 602 1080 557 1056 q 671 1146 647 1105 q 695 1240 695 1188 l 695 1243 l 600 1243 l 600 1240 q 572 1165 600 1197 q 495 1134 545 1134 q 417 1165 444 1134 q 391 1240 391 1197 l 391 1243 l 295 1243 l 295 1240 q 319 1146 295 1188 q 387 1080 342 1105 q 494 1056 432 1056 z "},"Ѝ":{"ha":985,"x_min":102,"x_max":883,"o":"m 102 0 l 220 0 l 788 818 l 707 775 l 762 775 l 762 0 l 883 0 l 883 979 l 764 979 l 197 158 l 278 201 l 222 201 l 222 979 l 102 979 l 102 0 m 462 1057 l 551 1057 l 441 1253 l 319 1253 l 462 1057 z "},"Ӣ":{"ha":985,"x_min":102,"x_max":883,"o":"m 102 0 l 220 0 l 788 818 l 707 775 l 762 775 l 762 0 l 883 0 l 883 979 l 764 979 l 197 158 l 278 201 l 222 201 l 222 979 l 102 979 l 102 0 m 311 1114 l 671 1114 l 671 1200 l 311 1200 l 311 1114 z "},"Ӥ":{"ha":985,"x_min":102,"x_max":883,"o":"m 102 0 l 220 0 l 788 818 l 707 775 l 762 775 l 762 0 l 883 0 l 883 979 l 764 979 l 197 158 l 278 201 l 222 201 l 222 979 l 102 979 l 102 0 m 370 1090 q 417 1109 398 1090 q 437 1157 437 1129 q 417 1204 437 1185 q 370 1224 398 1224 q 323 1204 342 1224 q 303 1157 303 1185 q 323 1109 303 1129 q 370 1090 342 1090 m 613 1090 q 661 1109 642 1090 q 680 1157 680 1129 q 661 1204 680 1185 q 613 1224 642 1224 q 566 1204 586 1224 q 547 1157 547 1185 q 566 1109 547 1129 q 613 1090 586 1090 z "},"Ҋ":{"ha":1025,"x_min":102,"x_max":1005,"o":"m 820 -193 l 933 -193 l 1005 75 l 1005 110 l 762 110 l 762 0 l 873 0 l 820 -193 m 102 0 l 220 0 l 788 818 l 707 775 l 762 775 l 762 0 l 883 0 l 883 979 l 764 979 l 197 158 l 278 201 l 222 201 l 222 979 l 102 979 l 102 0 m 494 1056 q 603 1080 557 1056 q 671 1146 648 1105 q 695 1240 695 1188 l 695 1243 l 600 1243 l 600 1240 q 572 1165 600 1197 q 495 1134 545 1134 q 417 1165 444 1134 q 391 1240 391 1197 l 391 1243 l 295 1243 l 295 1240 q 319 1146 295 1188 q 387 1080 342 1105 q 494 1056 432 1056 z "},"К":{"ha":859,"x_min":102,"x_max":843,"o":"m 224 0 l 224 451 l 264 451 l 679 0 l 843 0 l 353 526 l 352 496 l 798 979 l 644 979 l 264 549 l 224 549 l 224 979 l 102 979 l 102 0 l 224 0 z "},"Ќ":{"ha":859,"x_min":102,"x_max":843,"o":"m 224 0 l 224 451 l 264 451 l 679 0 l 843 0 l 353 526 l 352 496 l 798 979 l 644 979 l 264 549 l 224 549 l 224 979 l 102 979 l 102 0 l 224 0 m 434 1057 l 576 1253 l 455 1253 l 345 1057 l 434 1057 z "},"Қ":{"ha":918,"x_min":102,"x_max":877,"o":"m 224 0 l 224 451 l 264 451 l 679 0 l 843 0 l 353 526 l 352 496 l 798 979 l 644 979 l 264 549 l 224 549 l 224 979 l 102 979 l 102 0 l 224 0 m 764 -193 l 877 -193 l 877 110 l 684 110 l 684 0 l 764 0 l 764 -193 z "},"Ҝ":{"ha":934,"x_min":102,"x_max":918,"o":"m 224 0 l 224 451 l 429 451 l 766 0 l 918 0 l 526 526 l 525 496 l 873 979 l 731 979 l 429 549 l 224 549 l 224 979 l 102 979 l 102 0 l 224 0 m 320 210 l 412 210 l 412 798 l 320 798 l 320 210 z "},"Ҟ":{"ha":892,"x_min":34,"x_max":877,"o":"m 258 0 l 258 451 l 298 451 l 713 0 l 877 0 l 387 526 l 386 496 l 831 979 l 678 979 l 298 549 l 258 549 l 258 979 l 136 979 l 136 0 l 258 0 m 34 749 l 373 749 l 373 851 l 34 851 l 34 749 z "},"Ҡ":{"ha":1034,"x_min":37,"x_max":1018,"o":"m 399 0 l 399 451 l 439 451 l 854 0 l 1018 0 l 541 511 l 972 979 l 819 979 l 439 549 l 399 549 l 399 979 l 37 979 l 37 869 l 277 869 l 277 0 l 399 0 z "},"Ӄ":{"ha":864,"x_min":102,"x_max":817,"o":"m 386 -279 q 542 -250 472 -279 q 662 -169 612 -222 q 739 -42 712 -116 q 766 123 766 33 l 766 125 q 717 320 766 234 q 578 463 668 407 q 364 536 488 519 l 351 519 l 817 979 l 663 979 l 218 533 l 273 548 l 224 548 l 224 979 l 102 979 l 102 0 l 224 0 l 224 438 l 245 438 q 456 400 368 438 q 593 290 545 361 q 642 121 642 219 l 642 119 q 610 -32 642 32 q 521 -131 578 -96 q 386 -166 464 -166 q 361 -165 372 -166 q 338 -164 349 -165 l 338 -275 q 386 -279 357 -279 z "},"Л":{"ha":954,"x_min":34,"x_max":852,"o":"m 81 -7 q 213 32 161 -7 q 294 153 265 71 q 331 366 323 235 l 362 869 l 730 869 l 730 0 l 852 0 l 852 979 l 251 979 l 216 370 q 194 217 210 276 q 147 132 177 159 q 71 105 117 105 q 51 106 62 105 q 34 109 39 108 l 34 0 q 56 -5 43 -3 q 81 -7 68 -7 z "},"Ӆ":{"ha":993,"x_min":34,"x_max":972,"o":"m 787 -193 l 901 -193 l 972 75 l 972 110 l 730 110 l 730 0 l 840 0 l 787 -193 m 81 -7 q 213 32 161 -7 q 294 153 265 71 q 331 366 323 235 l 362 869 l 730 869 l 730 0 l 852 0 l 852 979 l 251 979 l 216 370 q 194 217 210 276 q 147 132 177 159 q 71 105 117 105 q 51 106 62 105 q 34 109 39 108 l 34 0 q 56 -5 43 -3 q 81 -7 68 -7 z "},"Ԯ":{"ha":1015,"x_min":34,"x_max":974,"o":"m 861 -193 l 974 -193 l 974 110 l 730 110 l 730 0 l 861 0 l 861 -193 m 81 -7 q 213 32 161 -7 q 294 153 265 71 q 331 366 323 235 l 362 869 l 730 869 l 730 0 l 852 0 l 852 979 l 251 979 l 216 370 q 194 217 210 276 q 147 132 177 159 q 71 105 117 105 q 51 106 62 105 q 34 109 39 108 l 34 0 q 56 -5 43 -3 q 81 -7 68 -7 z "},"Ԓ":{"ha":954,"x_min":34,"x_max":852,"o":"m 852 14 l 730 14 l 730 -39 q 707 -115 730 -90 q 636 -140 684 -140 q 607 -139 621 -140 q 583 -137 593 -138 l 583 -233 q 615 -236 595 -235 q 654 -237 635 -237 q 803 -189 754 -237 q 852 -39 852 -140 l 852 14 m 81 -7 q 213 32 161 -7 q 294 153 265 71 q 331 366 323 235 l 362 869 l 730 869 l 730 0 l 852 0 l 852 979 l 251 979 l 216 370 q 194 217 210 276 q 147 132 177 159 q 71 105 117 105 q 51 106 62 105 q 34 109 39 108 l 34 0 q 56 -5 43 -3 q 81 -7 68 -7 z "},"М":{"ha":1168,"x_min":102,"x_max":1066,"o":"m 102 0 l 216 0 l 216 756 l 271 756 l 139 951 l 532 0 l 635 0 l 1029 951 l 897 756 l 952 756 l 952 0 l 1066 0 l 1066 979 l 925 979 l 586 154 l 582 154 l 243 979 l 102 979 l 102 0 z "},"Ӎ":{"ha":1215,"x_min":102,"x_max":1195,"o":"m 1010 -193 l 1123 -193 l 1195 75 l 1195 110 l 952 110 l 952 0 l 1063 0 l 1010 -193 m 102 0 l 216 0 l 216 756 l 271 756 l 139 951 l 532 0 l 635 0 l 1029 951 l 897 756 l 952 756 l 952 0 l 1066 0 l 1066 979 l 925 979 l 586 154 l 582 154 l 243 979 l 102 979 l 102 0 z "},"Н":{"ha":985,"x_min":102,"x_max":883,"o":"m 102 0 l 224 0 l 224 446 l 761 446 l 761 0 l 883 0 l 883 979 l 761 979 l 761 555 l 224 555 l 224 979 l 102 979 l 102 0 z "},"Ӈ":{"ha":985,"x_min":102,"x_max":883,"o":"m 102 0 l 224 0 l 224 446 l 761 446 l 761 0 l 883 0 l 883 979 l 761 979 l 761 555 l 224 555 l 224 979 l 102 979 l 102 0 m 883 14 l 761 14 l 761 -39 q 738 -115 761 -90 q 667 -140 715 -140 q 638 -139 652 -140 q 614 -137 625 -138 l 614 -233 q 646 -236 627 -235 q 686 -237 666 -237 q 834 -189 785 -237 q 883 -39 883 -140 l 883 14 z "},"Ң":{"ha":1046,"x_min":102,"x_max":1005,"o":"m 892 -193 l 1005 -193 l 1005 110 l 761 110 l 761 0 l 892 0 l 892 -193 m 102 0 l 224 0 l 224 446 l 761 446 l 761 0 l 883 0 l 883 979 l 761 979 l 761 555 l 224 555 l 224 979 l 102 979 l 102 0 z "},"Ӊ":{"ha":1024,"x_min":102,"x_max":1004,"o":"m 819 -193 l 932 -193 l 1004 75 l 1004 110 l 761 110 l 761 0 l 871 0 l 819 -193 m 102 0 l 224 0 l 224 446 l 761 446 l 761 0 l 883 0 l 883 979 l 761 979 l 761 555 l 224 555 l 224 979 l 102 979 l 102 0 z "},"Ҥ":{"ha":1379,"x_min":95,"x_max":1335,"o":"m 95 0 l 217 0 l 217 446 l 754 446 l 754 0 l 876 0 l 876 869 l 1335 869 l 1335 979 l 754 979 l 754 555 l 217 555 l 217 979 l 95 979 l 95 0 z "},"О":{"ha":1029,"x_min":64,"x_max":966,"o":"m 515 -16 q 755 45 654 -16 q 911 220 856 107 q 966 489 966 334 l 966 490 q 911 759 966 646 q 755 933 856 871 q 515 995 654 995 q 276 933 377 995 q 119 759 174 871 q 64 490 64 646 l 64 489 q 119 220 64 334 q 275 45 174 107 q 515 -16 376 -16 m 515 96 q 342 144 415 96 q 229 281 269 193 q 189 489 189 369 l 189 490 q 229 699 189 611 q 342 834 269 787 q 515 882 416 882 q 688 834 615 882 q 801 699 762 787 q 841 490 841 610 l 841 489 q 802 281 841 370 q 689 145 762 193 q 515 96 616 96 z "},"Ӧ":{"ha":1029,"x_min":64,"x_max":966,"o":"m 515 -16 q 755 45 654 -16 q 911 220 856 107 q 966 489 966 334 l 966 490 q 911 759 966 646 q 755 933 856 871 q 515 995 654 995 q 276 933 377 995 q 119 759 174 871 q 64 490 64 646 l 64 489 q 119 220 64 334 q 275 45 174 107 q 515 -16 376 -16 m 515 96 q 342 144 415 96 q 229 281 269 193 q 189 489 189 369 l 189 490 q 229 699 189 611 q 342 834 269 787 q 515 882 416 882 q 688 834 615 882 q 801 699 762 787 q 841 490 841 610 l 841 489 q 802 281 841 370 q 689 145 762 193 q 515 96 616 96 m 393 1090 q 440 1109 421 1090 q 460 1157 460 1129 q 440 1204 460 1185 q 393 1224 421 1224 q 346 1204 366 1224 q 326 1157 326 1185 q 346 1109 326 1129 q 393 1090 366 1090 m 636 1090 q 684 1109 665 1090 q 703 1157 703 1129 q 684 1204 703 1185 q 636 1224 665 1224 q 589 1204 609 1224 q 570 1157 570 1185 q 589 1109 570 1129 q 636 1090 609 1090 z "},"Ө":{"ha":1029,"x_min":64,"x_max":966,"o":"m 515 -16 q 755 45 654 -16 q 911 220 856 107 q 966 489 966 334 l 966 490 q 911 759 966 646 q 755 933 856 871 q 515 995 654 995 q 276 933 377 995 q 119 759 174 871 q 64 490 64 646 l 64 489 q 119 220 64 334 q 275 45 174 107 q 515 -16 376 -16 m 515 96 q 342 144 415 96 q 229 281 269 193 q 189 489 189 369 l 189 490 q 229 699 189 611 q 342 834 269 787 q 515 882 416 882 q 688 834 615 882 q 801 699 762 787 q 841 490 841 610 l 841 489 q 802 281 841 370 q 689 145 762 193 q 515 96 616 96 m 125 448 l 905 448 l 905 550 l 125 550 l 125 448 z "},"Ӫ":{"ha":1029,"x_min":64,"x_max":966,"o":"m 515 -16 q 755 45 654 -16 q 911 220 856 107 q 966 489 966 334 l 966 490 q 911 759 966 646 q 755 933 856 871 q 515 995 654 995 q 276 933 377 995 q 119 759 174 871 q 64 490 64 646 l 64 489 q 119 220 64 334 q 275 45 174 107 q 515 -16 376 -16 m 515 96 q 342 144 415 96 q 229 281 269 193 q 189 489 189 369 l 189 490 q 229 699 189 611 q 342 834 269 787 q 515 882 416 882 q 688 834 615 882 q 801 699 762 787 q 841 490 841 610 l 841 489 q 802 281 841 370 q 689 145 762 193 q 515 96 616 96 m 125 448 l 905 448 l 905 550 l 125 550 l 125 448 m 393 1090 q 440 1109 421 1090 q 460 1157 460 1129 q 440 1204 460 1185 q 393 1224 421 1224 q 346 1204 366 1224 q 326 1157 326 1185 q 346 1109 326 1129 q 393 1090 366 1090 m 636 1090 q 684 1109 665 1090 q 703 1157 703 1129 q 684 1204 703 1185 q 636 1224 665 1224 q 589 1204 609 1224 q 570 1157 570 1185 q 589 1109 570 1129 q 636 1090 609 1090 z "},"Ѳ":{"ha":1025,"x_min":64,"x_max":961,"o":"m 513 -16 q 752 45 652 -16 q 907 220 852 106 q 961 489 961 333 l 961 490 q 907 759 961 646 q 752 933 852 872 q 513 995 652 995 q 274 933 375 995 q 119 759 174 871 q 64 490 64 646 l 64 489 q 118 220 64 333 q 274 45 173 106 q 513 -16 375 -16 m 513 96 q 341 144 414 96 q 228 280 268 192 q 189 489 189 368 l 189 490 q 228 699 189 610 q 341 834 268 787 q 513 882 414 882 q 685 834 613 882 q 797 699 758 787 q 836 490 836 611 l 836 489 q 797 280 836 368 q 685 144 758 192 q 513 96 612 96 m 692 402 q 788 419 746 402 q 859 468 829 435 q 903 548 888 500 l 850 575 q 791 521 829 538 q 695 503 753 503 q 605 516 646 503 q 523 544 564 528 q 436 573 483 560 q 330 585 390 585 q 197 546 254 585 q 118 439 141 507 l 172 412 q 232 465 191 446 q 322 484 273 484 q 412 472 371 484 q 493 443 452 459 q 582 415 534 427 q 692 402 630 402 z "},"П":{"ha":971,"x_min":102,"x_max":869,"o":"m 869 0 l 869 979 l 102 979 l 102 0 l 224 0 l 224 869 l 747 869 l 747 0 l 869 0 z "},"Ԥ":{"ha":1034,"x_min":102,"x_max":993,"o":"m 880 -193 l 993 -193 l 993 110 l 749 110 l 749 0 l 880 0 l 880 -193 m 869 0 l 869 979 l 102 979 l 102 0 l 224 0 l 224 869 l 747 869 l 747 0 l 869 0 z "},"Џ":{"ha":971,"x_min":102,"x_max":869,"o":"m 102 979 l 102 0 l 427 0 l 427 -194 l 544 -194 l 544 0 l 869 0 l 869 979 l 747 979 l 747 110 l 224 110 l 224 979 l 102 979 z "},"Р":{"ha":816,"x_min":102,"x_max":764,"o":"m 163 349 l 450 349 q 613 389 543 349 q 724 500 684 429 q 764 665 764 572 l 764 666 q 724 829 764 759 q 613 939 684 900 q 450 979 543 979 l 163 979 l 163 870 l 419 870 q 582 816 524 870 q 640 665 640 762 l 640 663 q 582 512 640 567 q 419 458 524 458 l 163 458 l 163 349 m 102 0 l 224 0 l 224 979 l 102 979 l 102 0 z "},"Ҏ":{"ha":802,"x_min":95,"x_max":758,"o":"m 156 349 l 444 349 q 606 389 536 349 q 717 500 677 429 q 758 665 758 572 l 758 666 q 717 829 758 759 q 606 939 677 900 q 444 979 536 979 l 156 979 l 156 870 l 412 870 q 575 816 517 870 q 633 665 633 762 l 633 663 q 575 512 633 567 q 412 458 517 458 l 156 458 l 156 349 m 95 0 l 217 0 l 217 979 l 95 979 l 95 0 m 529 427 l 420 680 l 340 645 l 448 392 l 529 427 m 642 175 l 533 428 l 444 390 l 553 137 l 642 175 z "},"С":{"ha":966,"x_min":64,"x_max":911,"o":"m 511 -16 q 696 22 613 -16 q 836 129 780 60 q 909 292 891 199 l 911 299 l 787 299 l 785 293 q 726 185 764 229 q 633 119 687 141 q 511 96 579 96 q 341 145 414 96 q 229 282 269 194 q 189 490 189 371 l 189 490 q 229 697 189 610 q 341 834 269 785 q 511 882 413 882 q 634 860 580 882 q 726 796 688 838 q 783 694 764 754 l 787 680 l 911 680 l 909 686 q 835 848 891 779 q 696 956 779 918 q 511 995 612 995 q 274 933 374 995 q 119 758 174 871 q 64 490 64 644 l 64 490 q 119 222 64 336 q 274 46 174 109 q 511 -16 375 -16 z "},"Ҫ":{"ha":966,"x_min":64,"x_max":911,"o":"m 570 17 l 453 17 l 453 -194 l 570 -194 l 570 17 m 511 -16 q 696 22 613 -16 q 836 129 780 60 q 909 292 891 199 l 911 299 l 787 299 l 785 293 q 726 185 764 229 q 633 119 687 141 q 511 96 579 96 q 341 145 414 96 q 229 282 269 194 q 189 490 189 371 l 189 490 q 229 697 189 610 q 341 834 269 785 q 511 882 413 882 q 634 860 580 882 q 726 796 688 838 q 783 694 764 754 l 787 680 l 911 680 l 909 686 q 835 848 891 779 q 696 956 779 918 q 511 995 612 995 q 274 933 374 995 q 119 758 174 871 q 64 490 64 644 l 64 490 q 119 222 64 336 q 274 46 174 109 q 511 -16 375 -16 z "},"Т":{"ha":821,"x_min":41,"x_max":780,"o":"m 349 0 l 471 0 l 471 869 l 780 869 l 780 979 l 41 979 l 41 869 l 349 869 l 349 0 z "},"Ҭ":{"ha":821,"x_min":41,"x_max":780,"o":"m 481 -193 l 593 -193 l 593 110 l 349 110 l 349 0 l 481 0 l 481 -193 m 349 0 l 471 0 l 471 869 l 780 869 l 780 979 l 41 979 l 41 869 l 349 869 l 349 0 z "},"У":{"ha":827,"x_min":24,"x_max":810,"o":"m 198 -7 q 323 20 270 -7 q 420 109 376 46 q 511 280 465 172 l 810 979 l 684 979 l 427 345 l 416 345 l 154 979 l 24 979 l 358 209 q 316 150 339 173 q 263 117 292 127 q 198 106 235 106 q 168 107 182 106 q 144 111 154 109 l 144 2 q 166 -4 152 -2 q 198 -7 181 -7 z "},"Ў":{"ha":827,"x_min":24,"x_max":810,"o":"m 198 -7 q 323 20 270 -7 q 420 109 376 46 q 511 280 465 172 l 810 979 l 684 979 l 427 345 l 416 345 l 154 979 l 24 979 l 358 209 q 316 150 339 173 q 263 117 292 127 q 198 106 235 106 q 168 107 182 106 q 144 111 154 109 l 144 2 q 166 -4 152 -2 q 198 -7 181 -7 m 422 1056 q 530 1080 485 1056 q 598 1146 574 1105 q 623 1240 623 1188 l 623 1243 l 527 1243 l 527 1240 q 500 1165 527 1197 q 422 1134 473 1134 q 345 1165 371 1134 q 318 1240 318 1197 l 318 1243 l 222 1243 l 222 1240 q 246 1146 222 1188 q 315 1080 270 1105 q 422 1056 359 1056 z "},"Ӯ":{"ha":827,"x_min":24,"x_max":810,"o":"m 198 -7 q 323 20 270 -7 q 420 109 376 46 q 511 280 465 172 l 810 979 l 684 979 l 427 345 l 416 345 l 154 979 l 24 979 l 358 209 q 316 150 339 173 q 263 117 292 127 q 198 106 235 106 q 168 107 182 106 q 144 111 154 109 l 144 2 q 166 -4 152 -2 q 198 -7 181 -7 m 239 1114 l 599 1114 l 599 1200 l 239 1200 l 239 1114 z "},"Ӱ":{"ha":827,"x_min":24,"x_max":810,"o":"m 198 -7 q 323 20 270 -7 q 420 109 376 46 q 511 280 465 172 l 810 979 l 684 979 l 427 345 l 416 345 l 154 979 l 24 979 l 358 209 q 316 150 339 173 q 263 117 292 127 q 198 106 235 106 q 168 107 182 106 q 144 111 154 109 l 144 2 q 166 -4 152 -2 q 198 -7 181 -7 m 298 1090 q 345 1109 326 1090 q 364 1157 364 1129 q 345 1204 364 1185 q 298 1224 326 1224 q 250 1204 270 1224 q 231 1157 231 1185 q 250 1109 231 1129 q 298 1090 270 1090 m 541 1090 q 588 1109 569 1090 q 608 1157 608 1129 q 588 1204 608 1185 q 541 1224 569 1224 q 494 1204 513 1224 q 474 1157 474 1185 q 494 1109 474 1129 q 541 1090 513 1090 z "},"Ӳ":{"ha":827,"x_min":24,"x_max":810,"o":"m 198 -7 q 323 20 270 -7 q 420 109 376 46 q 511 280 465 172 l 810 979 l 684 979 l 427 345 l 416 345 l 154 979 l 24 979 l 358 209 q 316 150 339 173 q 263 117 292 127 q 198 106 235 106 q 168 107 182 106 q 144 111 154 109 l 144 2 q 166 -4 152 -2 q 198 -7 181 -7 m 347 1057 l 476 1253 l 355 1253 l 258 1057 l 347 1057 m 557 1057 l 699 1253 l 578 1253 l 467 1057 l 557 1057 z "},"Ү":{"ha":864,"x_min":24,"x_max":840,"o":"m 371 0 l 493 0 l 493 421 l 840 979 l 701 979 l 434 539 l 430 539 l 163 979 l 24 979 l 371 421 l 371 0 z "},"Ұ":{"ha":864,"x_min":24,"x_max":840,"o":"m 371 0 l 493 0 l 493 421 l 840 979 l 701 979 l 434 539 l 430 539 l 163 979 l 24 979 l 371 421 l 371 0 m 128 380 l 736 380 l 736 481 l 128 481 l 128 380 z "},"Ф":{"ha":1101,"x_min":58,"x_max":1043,"o":"m 490 -7 l 611 -7 l 611 89 l 611 89 q 841 143 744 93 q 990 283 937 194 q 1043 492 1043 372 l 1043 493 q 990 703 1043 614 q 841 843 937 793 q 611 897 744 894 l 611 897 l 611 985 l 490 985 l 490 897 l 490 897 q 261 843 358 894 q 111 703 164 793 q 58 493 58 614 l 58 492 q 111 283 58 372 q 261 143 164 194 q 490 89 358 93 l 490 89 l 490 -7 m 490 198 q 326 239 395 202 q 220 340 257 275 q 183 492 183 405 l 183 493 q 220 646 183 581 q 326 748 257 711 q 490 787 395 785 l 490 787 l 490 198 q 490 198 490 198 q 490 198 490 198 m 611 198 l 611 787 l 611 787 q 775 748 707 785 q 881 646 844 711 q 918 493 918 581 l 918 492 q 881 340 918 405 q 775 239 844 275 q 611 198 707 202 q 611 198 611 198 q 611 198 611 198 z "},"Х":{"ha":895,"x_min":37,"x_max":858,"o":"m 37 0 l 176 0 l 469 433 l 388 391 l 444 391 l 704 0 l 850 0 l 490 528 l 519 434 l 519 488 l 858 979 l 719 979 l 425 541 l 506 585 l 450 585 l 189 979 l 41 979 l 371 494 l 371 440 l 400 534 l 37 0 z "},"Ҳ":{"ha":937,"x_min":37,"x_max":897,"o":"m 37 0 l 176 0 l 469 433 l 388 391 l 444 391 l 704 0 l 850 0 l 490 528 l 519 434 l 519 488 l 858 979 l 719 979 l 425 541 l 506 585 l 450 585 l 189 979 l 41 979 l 371 494 l 371 440 l 400 534 l 37 0 m 784 -193 l 897 -193 l 897 110 l 704 110 l 704 0 l 784 0 l 784 -193 z "},"Ӿ":{"ha":895,"x_min":37,"x_max":858,"o":"m 37 0 l 176 0 l 469 433 l 388 391 l 444 391 l 704 0 l 850 0 l 490 528 l 519 434 l 519 488 l 858 979 l 719 979 l 425 541 l 506 585 l 450 585 l 189 979 l 41 979 l 371 494 l 371 440 l 400 534 l 37 0 m 99 439 l 797 439 l 797 541 l 99 541 l 99 439 z "},"Ӽ":{"ha":895,"x_min":37,"x_max":858,"o":"m 617 -264 q 770 -211 712 -264 q 829 -72 829 -158 q 820 1 829 -33 q 790 76 811 36 q 732 171 770 116 l 519 486 l 519 488 l 858 979 l 719 979 l 454 585 l 450 585 l 189 979 l 41 979 l 371 494 l 371 492 l 37 0 l 176 0 l 439 391 l 444 391 l 634 102 q 676 33 661 62 q 699 -21 692 3 q 706 -67 706 -45 q 680 -129 706 -106 q 608 -151 654 -151 q 588 -150 598 -151 q 570 -148 578 -149 l 570 -260 q 592 -263 580 -262 q 617 -264 604 -264 z "},"Ц":{"ha":1034,"x_min":102,"x_max":993,"o":"m 102 979 l 102 0 l 869 0 l 869 979 l 747 979 l 747 110 l 224 110 l 224 979 l 102 979 m 880 -193 l 993 -193 l 993 110 l 749 110 l 749 0 l 880 0 l 880 -193 z "},"Ҵ":{"ha":1238,"x_min":35,"x_max":1198,"o":"m 307 979 l 307 0 l 1075 0 l 1075 979 l 953 979 l 953 110 l 429 110 l 429 979 l 307 979 m 1086 -193 l 1198 -193 l 1198 110 l 954 110 l 954 0 l 1086 0 l 1086 -193 m 35 869 l 700 869 l 700 979 l 35 979 l 35 869 z "},"Ч":{"ha":927,"x_min":85,"x_max":825,"o":"m 703 0 l 825 0 l 825 979 l 703 979 l 703 555 q 641 513 678 531 q 556 486 603 496 q 458 476 510 476 q 321 506 377 476 q 236 592 264 536 q 207 722 207 647 l 207 979 l 85 979 l 85 723 q 127 542 85 623 q 252 412 169 460 q 459 363 336 363 q 555 373 511 363 q 636 397 600 382 q 701 431 672 412 l 703 431 l 703 0 z "},"Ӵ":{"ha":927,"x_min":85,"x_max":825,"o":"m 703 0 l 825 0 l 825 979 l 703 979 l 703 555 q 641 513 678 531 q 556 486 603 496 q 458 476 510 476 q 321 506 377 476 q 236 592 264 536 q 207 722 207 647 l 207 979 l 85 979 l 85 723 q 127 542 85 623 q 252 412 169 460 q 459 363 336 363 q 555 373 511 363 q 636 397 600 382 q 701 431 672 412 l 703 431 l 703 0 m 333 1090 q 380 1109 361 1090 q 399 1157 399 1129 q 380 1204 399 1185 q 333 1224 361 1224 q 286 1204 305 1224 q 266 1157 266 1185 q 286 1109 266 1129 q 333 1090 305 1090 m 576 1090 q 624 1109 604 1090 q 643 1157 643 1129 q 624 1204 643 1185 q 576 1224 604 1224 q 529 1204 549 1224 q 509 1157 509 1185 q 529 1109 509 1129 q 576 1090 549 1090 z "},"Ҷ":{"ha":988,"x_min":85,"x_max":947,"o":"m 835 -193 l 947 -193 l 947 110 l 703 110 l 703 0 l 835 0 l 835 -193 m 703 0 l 825 0 l 825 979 l 703 979 l 703 555 q 641 513 678 531 q 556 486 603 496 q 458 476 510 476 q 321 506 377 476 q 236 592 264 536 q 207 722 207 647 l 207 979 l 85 979 l 85 723 q 127 542 85 623 q 252 412 169 460 q 459 363 336 363 q 555 373 511 363 q 636 397 600 382 q 701 431 672 412 l 703 431 l 703 0 z "},"Ӌ":{"ha":927,"x_min":85,"x_max":825,"o":"m 703 0 l 825 0 l 825 979 l 703 979 l 703 555 q 641 513 678 531 q 556 486 603 496 q 458 476 510 476 q 321 506 377 476 q 236 592 264 536 q 207 722 207 647 l 207 979 l 85 979 l 85 723 q 127 542 85 623 q 252 412 169 460 q 459 363 336 363 q 555 373 511 363 q 636 397 600 382 q 701 431 672 412 l 703 431 l 703 0 m 694 -193 l 694 0 l 825 0 l 825 110 l 581 110 l 581 -193 l 694 -193 z "},"Ҹ":{"ha":968,"x_min":85,"x_max":866,"o":"m 744 0 l 866 0 l 866 979 l 744 979 l 744 555 q 676 513 719 531 q 582 486 633 496 q 479 476 530 476 q 327 506 387 476 q 237 592 267 536 q 207 722 207 647 l 207 979 l 85 979 l 85 723 q 127 542 85 623 q 258 412 170 460 q 479 363 346 363 q 581 373 532 363 q 671 397 630 382 q 741 431 713 412 l 744 431 l 744 0 m 433 171 l 526 171 l 526 758 l 433 758 l 433 171 z "},"Ҩ":{"ha":1308,"x_min":64,"x_max":1260,"o":"m 610 -16 q 765 7 692 -16 q 906 72 838 31 q 1042 175 981 109 q 1141 328 1104 240 q 1178 522 1178 416 l 1178 523 q 1138 703 1178 626 q 1027 823 1099 781 q 858 866 955 866 q 690 819 762 866 q 578 690 618 771 q 538 509 538 609 l 538 507 q 569 334 538 416 q 655 186 599 252 q 791 77 712 121 q 925 7 854 31 q 1074 -16 996 -16 q 1179 -5 1130 -16 q 1260 26 1229 6 l 1260 134 q 1162 100 1209 110 q 1076 90 1116 90 q 981 100 1028 90 q 894 133 934 111 q 770 232 821 173 q 691 362 718 291 q 663 510 663 433 l 663 511 q 685 634 663 579 q 749 721 706 689 q 858 753 793 753 q 961 723 917 753 q 1029 640 1005 692 q 1053 523 1053 588 l 1053 522 q 1022 361 1053 435 q 936 229 991 286 q 807 136 880 172 q 716 106 764 115 q 609 97 669 97 q 399 146 493 97 q 249 287 304 195 q 193 506 193 379 l 193 507 q 227 678 193 601 q 328 807 262 755 q 488 879 394 860 l 488 995 q 268 913 363 981 q 118 740 172 845 q 64 509 64 634 l 64 507 q 133 234 64 352 q 325 51 201 117 q 610 -16 448 -16 z "},"Ҽ":{"ha":1146,"x_min":14,"x_max":1082,"o":"m 682 -16 q 859 16 779 -16 q 992 105 939 47 q 1066 241 1046 163 l 1067 247 l 942 247 l 940 241 q 847 134 913 172 q 685 96 781 96 q 516 141 587 96 q 405 270 444 186 q 366 467 366 353 l 366 486 l 366 492 q 399 695 363 607 q 504 832 436 783 q 663 882 572 882 q 806 848 745 882 q 905 749 868 813 q 947 596 941 685 l 948 587 l 341 587 l 341 477 l 1082 477 q 1082 505 1082 490 q 1082 532 1082 519 q 1031 778 1082 674 q 887 939 981 882 q 665 995 793 995 q 443 931 538 995 q 294 753 347 867 q 241 486 241 639 l 241 485 q 295 217 241 330 q 447 44 349 105 q 682 -16 546 -16 m 296 477 l 296 587 l 252 587 q 159 613 190 587 q 127 694 127 640 q 134 750 127 724 q 147 795 140 776 l 37 795 q 21 746 28 776 q 14 684 14 717 q 78 533 14 590 q 250 477 142 477 l 296 477 z "},"Ҿ":{"ha":1146,"x_min":14,"x_max":1082,"o":"m 741 17 l 624 17 l 624 -194 l 741 -194 l 741 17 m 682 -16 q 859 16 779 -16 q 992 105 939 47 q 1066 241 1046 163 l 1067 247 l 942 247 l 940 241 q 847 134 913 172 q 685 96 781 96 q 516 141 587 96 q 405 270 444 186 q 366 467 366 353 l 366 486 l 366 492 q 399 695 363 607 q 504 832 436 783 q 663 882 572 882 q 806 848 745 882 q 905 749 868 813 q 947 596 941 685 l 948 587 l 341 587 l 341 477 l 1082 477 q 1082 505 1082 490 q 1082 532 1082 519 q 1031 778 1082 674 q 887 939 981 882 q 665 995 793 995 q 443 931 538 995 q 294 753 347 867 q 241 486 241 639 l 241 485 q 295 217 241 330 q 447 44 349 105 q 682 -16 546 -16 m 296 477 l 296 587 l 252 587 q 159 613 190 587 q 127 694 127 640 q 134 750 127 724 q 147 795 140 776 l 37 795 q 21 746 28 776 q 14 684 14 717 q 78 533 14 590 q 250 477 142 477 l 296 477 z "},"Һ":{"ha":937,"x_min":102,"x_max":842,"o":"m 102 0 l 224 0 l 224 446 q 287 488 250 470 q 371 515 324 505 q 469 525 417 525 q 606 495 550 525 q 691 410 663 465 q 720 279 720 355 l 720 0 l 842 0 l 842 278 q 800 460 842 378 q 675 589 758 541 q 468 637 592 637 q 375 629 420 637 q 293 605 330 620 q 227 571 255 590 l 224 571 l 224 979 l 102 979 l 102 0 z "},"Ԧ":{"ha":1005,"x_min":102,"x_max":964,"o":"m 852 -193 l 964 -193 l 964 110 l 720 110 l 720 0 l 852 0 l 852 -193 m 102 0 l 224 0 l 224 446 q 287 488 250 470 q 371 515 324 505 q 469 525 417 525 q 606 495 550 525 q 691 410 663 465 q 720 279 720 355 l 720 0 l 842 0 l 842 278 q 800 460 842 378 q 675 589 758 541 q 468 637 592 637 q 375 629 420 637 q 293 605 330 620 q 227 571 255 590 l 224 571 l 224 979 l 102 979 l 102 0 z "},"Ш":{"ha":1278,"x_min":102,"x_max":1176,"o":"m 102 1 l 1176 1 l 1176 979 l 1054 979 l 1054 111 l 700 111 l 700 979 l 578 979 l 578 111 l 224 111 l 224 979 l 102 979 l 102 1 z "},"Щ":{"ha":1339,"x_min":102,"x_max":1298,"o":"m 1185 -193 l 1298 -193 l 1298 110 l 1054 110 l 1054 0 l 1185 0 l 1185 -193 m 102 1 l 1176 1 l 1176 979 l 1054 979 l 1054 111 l 700 111 l 700 979 l 578 979 l 578 111 l 224 111 l 224 979 l 102 979 l 102 1 z "},"Ъ":{"ha":1004,"x_min":37,"x_max":953,"o":"m 277 0 l 640 0 q 802 39 732 0 q 913 148 873 79 q 953 307 953 217 l 953 308 q 912 468 953 398 q 801 576 872 537 q 638 616 730 616 l 399 616 l 399 979 l 37 979 l 37 869 l 277 869 l 277 0 m 608 506 q 770 454 713 506 q 828 308 828 403 l 828 307 q 770 161 828 212 q 608 110 713 110 l 399 110 l 399 506 l 608 506 z "},"Ы":{"ha":1131,"x_min":102,"x_max":1029,"o":"m 163 0 l 465 0 q 627 39 557 0 q 738 148 698 79 q 778 307 778 217 l 778 308 q 738 468 778 398 q 626 576 697 537 q 463 616 555 616 l 163 616 l 163 506 l 433 506 q 595 454 538 506 q 653 308 653 403 l 653 307 q 595 161 653 212 q 433 110 538 110 l 163 110 l 163 0 m 102 0 l 224 0 l 224 979 l 102 979 l 102 0 m 907 0 l 1029 0 l 1029 979 l 907 979 l 907 0 z "},"Ӹ":{"ha":1131,"x_min":102,"x_max":1029,"o":"m 163 0 l 465 0 q 627 39 557 0 q 738 148 698 79 q 778 307 778 217 l 778 308 q 738 468 778 398 q 626 576 697 537 q 463 616 555 616 l 163 616 l 163 506 l 433 506 q 595 454 538 506 q 653 308 653 403 l 653 307 q 595 161 653 212 q 433 110 538 110 l 163 110 l 163 0 m 102 0 l 224 0 l 224 979 l 102 979 l 102 0 m 907 0 l 1029 0 l 1029 979 l 907 979 l 907 0 m 444 1090 q 491 1109 472 1090 q 511 1157 511 1129 q 491 1204 511 1185 q 444 1224 472 1224 q 397 1204 416 1224 q 377 1157 377 1185 q 397 1109 377 1129 q 444 1090 416 1090 m 687 1090 q 735 1109 715 1090 q 754 1157 754 1129 q 735 1204 754 1185 q 687 1224 715 1224 q 640 1204 660 1224 q 621 1157 621 1185 q 640 1109 621 1129 q 687 1090 660 1090 z "},"Ҍ":{"ha":863,"x_min":34,"x_max":812,"o":"m 197 0 l 498 0 q 661 39 591 0 q 772 148 732 79 q 812 307 812 217 l 812 308 q 771 468 812 398 q 660 576 731 537 q 497 616 589 616 l 197 616 l 197 506 l 467 506 q 629 454 572 506 q 687 308 687 403 l 687 307 q 629 161 687 212 q 467 110 572 110 l 197 110 l 197 0 m 136 0 l 258 0 l 258 1020 l 136 1020 l 136 0 m 34 788 l 461 788 l 461 880 l 34 880 l 34 788 z "},"Ѣ":{"ha":1046,"x_min":41,"x_max":996,"o":"m 380 0 l 682 0 q 845 39 774 0 q 956 148 916 79 q 996 307 996 217 l 996 308 q 955 468 996 398 q 844 576 915 537 q 681 616 773 616 l 380 616 l 380 506 l 650 506 q 813 454 755 506 q 871 308 871 403 l 871 307 q 813 161 871 212 q 650 110 755 110 l 380 110 l 380 0 m 319 0 l 441 0 l 441 1020 l 319 1020 l 319 0 m 41 781 l 781 781 l 781 887 l 41 887 l 41 781 z "},"Ь":{"ha":829,"x_min":102,"x_max":778,"o":"m 163 0 l 465 0 q 627 39 557 0 q 738 148 698 79 q 778 307 778 217 l 778 308 q 738 468 778 398 q 626 576 697 537 q 463 616 555 616 l 163 616 l 163 506 l 433 506 q 595 454 538 506 q 653 308 653 403 l 653 307 q 595 161 653 212 q 433 110 538 110 l 163 110 l 163 0 m 102 0 l 224 0 l 224 979 l 102 979 l 102 0 z "},"Љ":{"ha":1457,"x_min":34,"x_max":1406,"o":"m 81 -7 q 213 32 161 -7 q 294 153 265 71 q 331 366 323 235 l 362 869 l 730 869 l 730 0 l 852 0 l 852 979 l 251 979 l 216 370 q 194 217 210 276 q 147 132 177 159 q 71 105 117 105 q 51 106 62 105 q 34 109 39 108 l 34 0 q 56 -5 43 -3 q 81 -7 68 -7 m 791 0 l 1093 0 q 1255 39 1185 0 q 1366 148 1326 79 q 1406 307 1406 217 l 1406 308 q 1365 468 1406 398 q 1254 576 1325 537 q 1091 616 1183 616 l 791 616 l 791 506 l 1061 506 q 1223 454 1166 506 q 1281 308 1281 403 l 1281 307 q 1223 161 1281 212 q 1061 110 1166 110 l 791 110 l 791 0 m 730 0 l 852 0 l 852 979 l 730 979 l 730 0 z "},"Њ":{"ha":1488,"x_min":102,"x_max":1437,"o":"m 102 0 l 224 0 l 224 446 l 761 446 l 761 0 l 883 0 l 883 979 l 761 979 l 761 555 l 224 555 l 224 979 l 102 979 l 102 0 m 822 0 l 1124 0 q 1286 39 1216 0 q 1397 148 1357 79 q 1437 307 1437 217 l 1437 308 q 1397 468 1437 398 q 1285 576 1356 537 q 1122 616 1215 616 l 822 616 l 822 506 l 1092 506 q 1255 454 1197 506 q 1312 308 1312 403 l 1312 307 q 1255 161 1312 212 q 1092 110 1197 110 l 822 110 l 822 0 m 761 0 l 883 0 l 883 979 l 761 979 l 761 0 z "},"Э":{"ha":964,"x_min":53,"x_max":900,"o":"m 454 -16 q 690 46 590 -16 q 845 222 790 109 q 900 490 900 336 l 900 490 q 845 758 900 644 q 690 933 791 871 q 454 995 590 995 q 268 957 352 995 q 129 851 184 919 q 54 693 73 783 l 53 686 l 176 686 l 178 692 q 237 796 199 754 q 331 860 276 838 q 454 882 385 882 q 625 834 553 882 q 736 697 696 785 q 775 490 775 610 l 775 490 q 736 282 775 371 q 624 145 696 194 q 454 96 552 96 q 331 118 385 96 q 237 183 276 140 q 178 286 199 225 l 176 292 l 53 292 l 54 286 q 128 127 73 195 q 268 22 184 60 q 454 -16 351 -16 m 836 446 l 836 555 l 333 555 l 333 446 l 836 446 z "},"Ӭ":{"ha":964,"x_min":53,"x_max":900,"o":"m 454 -16 q 690 46 590 -16 q 845 222 790 109 q 900 490 900 336 l 900 490 q 845 758 900 644 q 690 933 791 871 q 454 995 590 995 q 268 957 352 995 q 129 851 184 919 q 54 693 73 783 l 53 686 l 176 686 l 178 692 q 237 796 199 754 q 331 860 276 838 q 454 882 385 882 q 625 834 553 882 q 736 697 696 785 q 775 490 775 610 l 775 490 q 736 282 775 371 q 624 145 696 194 q 454 96 552 96 q 331 118 385 96 q 237 183 276 140 q 178 286 199 225 l 176 292 l 53 292 l 54 286 q 128 127 73 195 q 268 22 184 60 q 454 -16 351 -16 m 836 446 l 836 555 l 333 555 l 333 446 l 836 446 m 338 1090 q 385 1109 366 1090 q 404 1157 404 1129 q 385 1204 404 1185 q 338 1224 366 1224 q 290 1204 310 1224 q 271 1157 271 1185 q 290 1109 271 1129 q 338 1090 310 1090 m 581 1090 q 628 1109 609 1090 q 648 1157 648 1129 q 628 1204 648 1185 q 581 1224 609 1224 q 534 1204 553 1224 q 514 1157 514 1185 q 534 1109 514 1129 q 581 1090 553 1090 z "},"Є":{"ha":964,"x_min":64,"x_max":911,"o":"m 510 -16 q 696 22 612 -16 q 836 127 780 60 q 909 286 892 195 l 911 292 l 787 292 l 785 286 q 726 183 765 225 q 633 118 688 140 q 510 96 578 96 q 339 145 412 96 q 228 282 267 194 q 189 490 189 371 l 189 490 q 228 697 189 610 q 339 834 267 785 q 510 882 412 882 q 633 860 578 882 q 726 796 688 838 q 785 692 765 754 l 787 686 l 911 686 l 909 693 q 836 851 892 783 q 695 957 779 919 q 510 995 612 995 q 273 933 374 995 q 118 758 173 871 q 64 490 64 644 l 64 490 q 119 222 64 336 q 274 46 174 109 q 510 -16 374 -16 m 127 446 l 631 446 l 631 555 l 127 555 l 127 446 z "},"Ю":{"ha":1337,"x_min":102,"x_max":1273,"o":"m 102 0 l 224 0 l 224 446 l 403 446 l 403 555 l 224 555 l 224 979 l 102 979 l 102 0 m 832 -16 q 1068 46 970 -16 q 1220 221 1167 108 q 1273 489 1273 335 l 1273 490 q 1220 759 1273 646 q 1068 933 1166 871 q 832 995 969 995 q 607 940 703 995 q 455 784 511 885 q 391 543 399 682 l 391 458 q 450 207 396 313 q 602 42 505 100 q 832 -16 699 -16 m 832 882 q 1001 834 930 882 q 1110 699 1072 787 q 1148 490 1148 610 l 1148 489 q 1110 282 1148 370 q 1001 145 1072 193 q 832 96 930 96 q 662 145 732 96 q 553 282 591 193 q 515 489 515 370 l 515 490 q 553 699 515 610 q 663 834 592 787 q 832 882 734 882 z "},"Я":{"ha":873,"x_min":37,"x_max":771,"o":"m 771 0 l 771 979 l 401 979 q 239 940 310 979 q 128 834 168 902 q 88 679 88 767 l 88 677 q 151 492 88 569 q 318 391 214 415 l 37 0 l 182 0 l 452 376 l 649 376 l 649 0 l 771 0 m 649 486 l 433 486 q 271 536 329 486 q 213 677 213 586 l 213 679 q 271 819 213 770 q 433 869 328 869 l 649 869 l 649 486 z "},"Ӏ":{"ha":326,"x_min":102,"x_max":224,"o":"m 102 0 l 224 0 l 224 979 l 102 979 l 102 0 z "},"І":{"ha":326,"x_min":102,"x_max":224,"o":"m 102 0 l 224 0 l 224 979 l 102 979 l 102 0 z "},"Ї":{"ha":326,"x_min":-26,"x_max":351,"o":"m 102 0 l 224 0 l 224 979 l 102 979 l 102 0 m 41 1090 q 89 1109 69 1090 q 108 1157 108 1129 q 89 1204 108 1185 q 41 1224 69 1224 q -6 1204 14 1224 q -26 1157 -26 1185 q -6 1109 -26 1129 q 41 1090 14 1090 m 284 1090 q 332 1109 313 1090 q 351 1157 351 1129 q 332 1204 351 1185 q 284 1224 313 1224 q 237 1204 257 1224 q 218 1157 218 1185 q 237 1109 218 1129 q 284 1090 257 1090 z "},"Ѕ":{"ha":838,"x_min":54,"x_max":783,"o":"m 422 -16 q 615 18 534 -16 q 740 117 696 53 q 783 267 783 180 l 783 268 q 716 445 783 380 q 498 543 649 509 l 390 566 q 249 626 294 587 q 203 724 203 665 l 203 725 q 230 808 203 772 q 306 863 257 843 q 420 882 355 882 q 529 863 482 882 q 606 809 576 844 q 642 724 635 774 l 644 714 l 766 714 l 765 724 q 714 865 760 804 q 594 961 669 926 q 423 995 519 995 q 245 960 323 995 q 123 864 168 925 q 79 722 79 802 l 79 721 q 148 548 79 614 q 359 450 216 481 l 468 426 q 614 365 569 404 q 659 262 659 326 l 659 261 q 630 174 659 211 q 551 116 602 136 q 429 96 499 96 q 304 116 358 96 q 218 171 250 135 q 178 255 185 206 l 176 264 l 54 264 l 55 255 q 108 111 61 172 q 236 17 155 50 q 422 -16 316 -16 z "},"Ʒ":{"ha":801,"x_min":52,"x_max":741,"o":"m 397 -16 q 575 22 497 -16 q 697 126 652 60 q 741 279 741 193 l 741 281 q 654 500 741 423 q 418 583 566 577 l 418 594 l 720 892 l 720 979 l 87 979 l 87 869 l 541 869 l 541 858 l 267 589 l 267 485 l 346 485 q 547 435 477 485 q 616 279 616 385 l 616 277 q 589 180 616 221 q 512 118 562 140 q 395 96 463 96 q 287 114 334 96 q 210 166 239 132 q 174 245 180 199 l 172 255 l 52 255 l 53 245 q 104 109 59 168 q 224 17 149 50 q 397 -16 299 -16 z "},"Ӡ":{"ha":801,"x_min":52,"x_max":741,"o":"m 397 -16 q 575 22 497 -16 q 697 126 652 60 q 741 279 741 193 l 741 281 q 654 500 741 423 q 418 583 566 577 l 418 594 l 720 892 l 720 979 l 87 979 l 87 869 l 541 869 l 541 858 l 267 589 l 267 485 l 346 485 q 547 435 477 485 q 616 279 616 385 l 616 277 q 589 180 616 221 q 512 118 562 140 q 395 96 463 96 q 287 114 334 96 q 210 166 239 132 q 174 245 180 199 l 172 255 l 52 255 l 53 245 q 104 109 59 168 q 224 17 149 50 q 397 -16 299 -16 z "},"Ћ":{"ha":1185,"x_min":41,"x_max":1090,"o":"m 349 0 l 471 0 l 471 433 q 534 474 497 456 q 618 502 572 492 q 716 511 665 511 q 854 481 798 511 q 939 396 910 451 q 968 265 968 341 l 968 0 l 1090 0 l 1090 264 q 1048 446 1090 365 q 923 576 1006 528 q 715 624 840 624 q 623 615 667 624 q 540 591 578 606 q 474 557 503 576 l 471 557 l 471 979 l 349 979 l 349 0 m 41 869 l 780 869 l 780 979 l 41 979 l 41 869 z "},"Ђ":{"ha":1137,"x_min":41,"x_max":1056,"o":"m 736 -49 q 899 -8 827 -49 q 1014 106 971 32 q 1056 284 1056 181 l 1056 286 q 1015 457 1056 382 q 902 573 975 531 q 734 615 829 615 q 640 603 684 615 q 557 567 595 590 q 485 509 518 543 l 478 509 l 478 869 l 793 869 l 793 979 l 41 979 l 41 869 l 356 869 l 356 0 l 478 0 l 478 356 q 581 460 516 418 q 722 503 645 503 q 832 474 785 503 q 905 397 879 446 q 931 284 931 348 l 931 283 q 904 161 931 210 q 831 88 877 113 q 728 64 785 64 q 692 66 711 64 q 661 71 673 68 l 661 -39 q 692 -46 673 -43 q 736 -49 712 -49 z "},"Ҕ":{"ha":883,"x_min":102,"x_max":802,"o":"m 482 -49 q 645 -8 572 -49 q 759 106 717 32 q 802 284 802 181 l 802 286 q 761 457 802 382 q 648 573 720 531 q 479 615 575 615 q 386 603 430 615 q 302 567 341 590 q 231 509 264 543 l 224 509 l 224 869 l 648 869 l 648 979 l 102 979 l 102 0 l 224 0 l 224 356 q 326 461 262 419 q 467 503 391 503 q 577 474 530 503 q 651 397 625 446 q 677 284 677 348 l 677 283 q 650 161 677 210 q 576 88 623 113 q 473 64 530 64 q 438 66 457 64 q 407 71 419 68 l 407 -39 q 438 -46 418 -43 q 482 -49 458 -49 z "},"Ҧ":{"ha":1487,"x_min":102,"x_max":1406,"o":"m 1086 -49 q 1249 -8 1177 -49 q 1363 106 1321 32 q 1406 284 1406 181 l 1406 286 q 1365 457 1406 382 q 1252 573 1324 531 q 1084 615 1179 615 q 990 603 1034 615 q 907 567 945 590 q 835 509 868 543 l 828 509 l 828 979 l 102 979 l 102 0 l 224 0 l 224 869 l 706 869 l 706 0 l 828 0 l 828 356 q 930 460 866 418 q 1072 503 995 503 q 1182 474 1135 503 q 1255 397 1229 446 q 1281 284 1281 348 l 1281 283 q 1254 161 1281 210 q 1181 88 1227 113 q 1078 64 1135 64 q 1042 66 1061 64 q 1011 71 1023 68 l 1011 -39 q 1042 -46 1023 -43 q 1086 -49 1062 -49 z "},"Ј":{"ha":701,"x_min":35,"x_max":600,"o":"m 311 -16 q 523 62 447 -16 q 600 279 600 140 l 600 979 l 477 979 l 477 280 q 435 143 477 191 q 311 96 392 96 q 230 115 262 96 q 180 164 197 134 q 158 232 162 195 l 157 239 l 35 239 l 36 229 q 74 104 41 159 q 167 16 107 48 q 311 -16 227 -16 z "},"Ѵ":{"ha":995,"x_min":24,"x_max":986,"o":"m 385 0 l 505 0 l 785 758 q 825 843 804 810 q 886 876 845 876 q 917 873 900 876 q 949 863 935 869 l 986 966 q 933 984 964 978 q 874 991 902 991 q 754 943 799 991 q 680 810 709 895 l 447 149 l 443 149 l 152 979 l 24 979 l 385 0 z "},"Ѷ":{"ha":995,"x_min":24,"x_max":986,"o":"m 385 0 l 505 0 l 785 758 q 825 843 804 810 q 886 876 845 876 q 917 873 900 876 q 949 863 935 869 l 986 966 q 933 984 964 978 q 874 991 902 991 q 754 943 799 991 q 680 810 709 895 l 447 149 l 443 149 l 152 979 l 24 979 l 385 0 m 326 1057 l 416 1057 l 292 1253 l 170 1253 l 326 1057 m 536 1057 l 625 1057 l 515 1253 l 393 1253 l 536 1057 z "},"Ԝ":{"ha":1297,"x_min":37,"x_max":1259,"o":"m 304 0 l 419 0 l 647 784 l 650 784 l 878 0 l 993 0 l 1259 979 l 1132 979 l 935 175 l 932 175 l 710 979 l 587 979 l 365 175 l 362 175 l 165 979 l 37 979 l 304 0 z "},"Ӕ":{"ha":1311,"x_min":3,"x_max":1245,"o":"m 3 0 l 129 0 l 563 876 l 716 876 l 716 979 l 488 979 l 3 0 m 216 311 l 716 311 l 716 415 l 265 415 l 216 311 m 652 0 l 1245 0 l 1245 110 l 774 110 l 774 439 l 1220 439 l 1220 548 l 774 548 l 774 869 l 1245 869 l 1245 979 l 652 979 l 652 0 z "},"Ə":{"ha":975,"x_min":64,"x_max":911,"o":"m 484 -16 q 708 46 612 -16 q 858 223 804 109 q 911 488 911 336 l 911 489 q 858 758 911 644 q 705 933 804 871 q 471 995 606 995 q 302 965 379 995 q 170 879 226 935 q 84 743 114 823 l 80 732 l 205 732 l 212 745 q 310 848 246 814 q 468 882 374 882 q 633 838 561 882 q 746 714 705 793 q 787 532 787 635 l 787 503 l 785 420 q 736 248 777 321 q 632 136 696 175 q 487 96 568 96 q 342 132 404 96 q 242 235 279 168 q 199 397 205 302 l 198 406 l 843 406 l 846 514 l 64 514 q 64 488 64 501 q 64 465 64 475 q 115 209 64 317 q 260 42 166 101 q 484 -16 355 -16 z "},"Ә":{"ha":989,"x_min":71,"x_max":918,"o":"m 491 -16 q 715 46 619 -16 q 865 223 811 109 q 918 488 918 336 l 918 489 q 864 758 918 644 q 711 933 810 871 q 477 995 612 995 q 309 965 386 995 q 177 879 233 935 q 91 743 121 823 l 87 732 l 212 732 l 218 745 q 317 848 253 814 q 475 882 380 882 q 640 838 568 882 q 752 714 711 793 q 793 532 793 635 l 793 503 l 792 420 q 743 248 784 321 q 638 136 703 175 q 494 96 574 96 q 349 132 411 96 q 249 235 286 168 q 205 397 212 302 l 205 406 l 850 406 l 852 514 l 71 514 q 71 488 71 501 q 71 465 71 475 q 122 209 71 317 q 267 42 173 101 q 491 -16 361 -16 z "},"Ӛ":{"ha":989,"x_min":71,"x_max":918,"o":"m 491 -16 q 715 46 619 -16 q 865 223 811 109 q 918 488 918 336 l 918 489 q 864 758 918 644 q 711 933 810 871 q 477 995 612 995 q 309 965 386 995 q 177 879 233 935 q 91 743 121 823 l 87 732 l 212 732 l 218 745 q 317 848 253 814 q 475 882 380 882 q 640 838 568 882 q 752 714 711 793 q 793 532 793 635 l 793 503 l 792 420 q 743 248 784 321 q 638 136 703 175 q 494 96 574 96 q 349 132 411 96 q 249 235 286 168 q 205 397 212 302 l 205 406 l 850 406 l 852 514 l 71 514 q 71 488 71 501 q 71 465 71 475 q 122 209 71 317 q 267 42 173 101 q 491 -16 361 -16 m 353 1090 q 400 1109 381 1090 q 420 1157 420 1129 q 400 1204 420 1185 q 353 1224 381 1224 q 306 1204 326 1224 q 286 1157 286 1185 q 306 1109 286 1129 q 353 1090 326 1090 m 596 1090 q 644 1109 625 1090 q 663 1157 663 1129 q 644 1204 663 1185 q 596 1224 625 1224 q 549 1204 569 1224 q 530 1157 530 1185 q 549 1109 530 1129 q 596 1090 569 1090 z "},"ᴀ":{"ha":692,"x_min":16,"x_max":677,"o":"m 16 0 l 134 0 l 345 589 l 376 589 l 376 705 l 286 705 l 16 0 m 146 191 l 547 191 l 514 278 l 180 278 l 146 191 m 558 0 l 677 0 l 408 705 l 348 705 l 348 589 l 558 0 z "},"ʙ":{"ha":724,"x_min":77,"x_max":671,"o":"m 136 0 l 395 0 q 598 53 525 0 q 671 199 671 106 l 671 201 q 648 284 671 248 q 583 345 625 321 q 482 372 541 368 l 482 375 q 588 428 546 382 q 631 528 631 473 l 631 530 q 566 657 631 610 q 395 705 502 705 l 136 705 l 136 614 l 367 614 q 475 588 437 614 q 513 515 513 563 l 513 514 q 468 434 513 463 q 339 406 423 406 l 136 406 l 136 320 l 366 320 q 503 292 456 320 q 550 207 550 263 l 550 205 q 505 121 550 150 q 374 92 460 92 l 136 92 l 136 0 m 77 0 l 195 0 l 195 705 l 77 705 l 77 0 z "},"ᴄ":{"ha":715,"x_min":42,"x_max":683,"o":"m 378 -12 q 524 17 459 -12 q 630 99 588 46 q 682 220 671 151 l 683 225 l 570 225 l 569 221 q 529 145 555 176 q 465 98 503 114 q 378 82 427 82 q 262 115 312 82 q 185 210 212 149 q 158 353 158 271 l 158 353 q 185 496 158 435 q 262 589 212 556 q 378 623 311 623 q 466 607 428 623 q 530 561 504 591 q 568 489 555 531 l 570 479 l 683 479 l 682 484 q 629 606 671 553 q 524 688 588 659 q 378 717 459 717 q 200 672 276 717 q 83 547 125 628 q 42 353 42 465 l 42 353 q 83 159 42 241 q 200 33 125 77 q 378 -12 276 -12 z "}}}
